<?xml version="1.0" standalone="no"?>
<!DOCTYPE svg PUBLIC "-//W3C//DTD SVG 1.1//EN" "http://www.w3.org/Graphics/SVG/1.1/DTD/svg11.dtd" >
<svg>
<metadata>
Created by FontForge 20090914 at Tue Apr  1 10:21:26 2014
 By www-data
Copyright (c) 2005 Parachute&#194;&#168;, www.parachute.gr.  All rights reserved.
</metadata>
<defs>
<font id="PFHandbookPro-Regular" horiz-adv-x="1818" >
  <font-face 
    font-family="PF Handbook Pro"
    font-weight="400"
    font-stretch="normal"
    units-per-em="1000"
    panose-1="2 0 5 6 9 0 0 2 0 4"
    ascent="750"
    descent="-250"
    x-height="438"
    cap-height="617"
    bbox="-168.399 -229.003 1760 913.002"
    underline-thickness="60"
    underline-position="-50"
    unicode-range="U+0020-U+FB05"
  />
<missing-glyph horiz-adv-x="440" 
d="M0 700h440v-700h-440v700zM360 650h-280l140 -255zM390 95v510l-140 -255zM360 50l-140 255l-140 -255h280zM50 95l140 255l-140 255v-510z" />
    <glyph glyph-name="fj" unicode="fj" horiz-adv-x="439" 
d="M159 449c0 -6.66699 3.66504 -9.99805 10.998 -9.99805h205c3.33301 0 5.66602 -1 6.99902 -3s2 -4 2 -6v-486c0 -17.333 -2 -33.666 -6 -48.999s-10.5 -28.833 -19.5 -40.5s-20.5 -20.834 -34.5 -27.501s-30.667 -10 -50 -10c-13.333 0 -24 0.5 -32 1.5s-16 2.5 -24 4.5
c-4.66699 1.33301 -8 3 -10 5s-2.33301 5.66699 -1 11l11 49c1.33301 7.33301 7 9.66602 17 6.99902c4 -1.33301 8.33301 -2.33301 13 -3s9.66699 -1 15 -1c10 0 17.833 1.83301 23.5 5.5s9.83398 8.5 12.501 14.5s4.33398 12.667 5.00098 20s1 14.666 1 21.999v407
c0 3.33301 -0.5 6 -1.5 8s-4.16699 3 -9.5 3h-125c-6.66699 0 -10 -3.33301 -10 -10v-352c0 -6 -3.33301 -9 -10 -9h-60c-3.33301 0 -5.66602 1 -6.99902 3s-2 4 -2 6v350c0 8 -3.33301 12 -10 12h-44c-5.33301 0 -8 3.33301 -8 10v49c0 6 3.33301 9 10 9h41
c7.33301 0 11 3.33301 11 10v60c0 44 13.333 77.333 40 100s62 34 106 34c26 0 48.833 -2.83301 68.5 -8.5s35.5 -12.167 47.5 -19.5c4.66699 -3.33301 7.5 -6 8.5 -8s0.166992 -5.66699 -2.5 -11l-21 -40c-3.33301 -5.33301 -9.33301 -6.33301 -18 -3
c-9.33301 3.33301 -20.5 7 -33.5 11s-29.167 6 -48.5 6c-24 0 -41.333 -6.83301 -52 -20.5s-16 -31.167 -16 -52.5v-48z" />
    <glyph glyph-name="ffj" unicode="ffj" horiz-adv-x="663" 
d="M393 371c-6.66699 0 -10.0029 -3.33105 -10.0029 -9.99805v-352c0 -6 -3.33301 -9 -10 -9h-60c-3.33301 0 -5.66602 1 -6.99902 3s-2 4 -2 6v350c0 8 -3.33301 12 -10 12h-125c-6.66699 0 -10 -3.33301 -10 -10v-352c0 -6 -3.33301 -9 -10 -9h-60
c-3.33301 0 -5.66602 1 -6.99902 3s-2 4 -2 6v350c0 8 -3.33301 12 -10 12h-44c-5.33301 0 -8 3.33301 -8 10v49c0 6 3.33301 9 10 9h41c7.33301 0 11 3.33301 11 10v33c0 41.333 13.333 75 40 101s62 39 106 39c21.333 0 40.166 -2 56.499 -6s30.833 -8.66699 43.5 -14
c1.33301 -0.666992 3 -1.16699 5 -1.5s4 0.5 6 2.5c12.667 12.667 28.834 22.5 48.501 29.5s41.167 10.5 64.5 10.5c26 0 48.833 -2.83301 68.5 -8.5s35.5 -12.167 47.5 -19.5c4.66699 -3.33301 7.5 -6 8.5 -8s0.166992 -5.66699 -2.5 -11l-21 -40
c-3.33301 -5.33301 -9.33301 -6.33301 -18 -3c-9.33301 3.33301 -20.5 7 -33.5 11s-29.167 6 -48.5 6c-21.333 0 -38 -6.83301 -50 -20.5s-18 -31.167 -18 -52.5v-48c0 -6.66699 3.66699 -10 11 -10h205c3.33301 0 5.66602 -1 6.99902 -3s2 -4 2 -6v-486
c0 -17.333 -2 -33.666 -6 -48.999s-10.5 -28.833 -19.5 -40.5s-20.5 -20.834 -34.5 -27.501s-30.667 -10 -50 -10c-13.333 0 -24 0.5 -32 1.5s-16 2.5 -24 4.5c-4.66699 1.33301 -8 3 -10 5s-2.33301 5.66699 -1 11l11 48c1.33301 7.33301 7 9.66602 17 6.99902
c8 -2 17.333 -3 28 -3c10 0 17.833 1.83301 23.5 5.5s9.83398 8.5 12.501 14.5s4.33398 12.667 5.00098 20s1 14.666 1 21.999v407c0 3.33301 -0.5 6 -1.5 8s-4.16699 3 -9.5 3h-125zM292.997 439.002c7.33301 0 11.002 3.33301 11.002 10v74
c0 6.66699 -1.33301 10.667 -4 12c-8.66699 3.33301 -18.834 6.5 -30.501 9.5s-25.834 4.5 -42.501 4.5c-25.333 0 -43 -7 -53 -21s-15 -31.667 -15 -53v-26c0 -6.66699 3.66699 -10 11 -10h123z" />
    <glyph glyph-name="ff" unicode="ff" horiz-adv-x="499" 
d="M226 626c21.333 0 40.165 -2.33398 56.498 -7.00098s30.833 -9.66699 43.5 -15c0.666992 -0.666992 2.33398 -1 5.00098 -1s4.66699 0.666992 6 2c12.667 12.667 29 22.5 49 29.5s41.667 10.5 65 10.5c19.333 0 37.5 -2.16699 54.5 -6.5s31.5 -9.5 43.5 -15.5
c4.66699 -1.33301 7 -4.66602 7 -9.99902c0 -3.33301 -0.666992 -6.33301 -2 -9l-14 -35c-4 -7.33301 -8.33301 -11 -13 -11c-2 0 -4.33301 0.666992 -7 2c-8.66699 3.33301 -18.334 6.16602 -29.001 8.49902s-23.667 3.5 -39 3.5c-23.333 0 -40.5 -6.66699 -51.5 -20
s-16.5 -29.666 -16.5 -48.999v-54c0 -6.66699 3.66699 -10 11 -10h83c6.66699 0 10 -3.33301 10 -10v-49c0 -6 -3.33301 -9 -10 -9h-84c-6.66699 0 -10 -3.33301 -10 -10v-352c0 -6 -3.33301 -9 -10 -9h-60c-3.33301 0 -5.66602 1 -6.99902 3s-2 4 -2 6v350
c0 8 -3.33301 12 -10 12h-126c-6.66699 0 -10 -3.33301 -10 -10v-352c0 -6 -3.33301 -9 -10 -9h-60c-3.33301 0 -5.66602 1 -6.99902 3s-2 4 -2 6v350c0 8 -3.33301 12 -10 12h-44c-5.33301 0 -8 3.33301 -8 10v49c0 6 3.33301 9 10 9h41c7.33301 0 11 3.33301 11 10v45
c0 18.667 3.5 36 10.5 52s17 30 30 42s28.333 21.333 46 28s37.5 10 59.5 10zM292.999 438.999c7.33301 0 11.002 3.33301 11.002 10v78c0 6.66699 -1.33301 10.667 -4 12c-8.66699 3.33301 -18.834 6.5 -30.501 9.5s-25.834 4.5 -42.501 4.5c-25.333 0 -43 -7 -53 -21
s-15 -31.667 -15 -53v-30c0 -6.66699 3.66699 -10 11 -10h123z" />
    <glyph glyph-name="fi" unicode="fi" horiz-adv-x="440" 
d="M159 449c0 -6.66699 3.66504 -10 10.998 -10h197c6.66699 0 11.167 -1.33301 13.5 -4s3.5 -7.66699 3.5 -15v-411c0 -6 -3.33301 -9 -10 -9h-60c-3.33301 0 -5.66602 1 -6.99902 3s-2 4 -2 6v350c0 8 -3.33301 12 -10 12h-126c-6.66699 0 -10 -3.33301 -10 -10v-352
c0 -6 -3.33301 -9 -10 -9h-60c-3.33301 0 -5.66602 1 -6.99902 3s-2 4 -2 6v350c0 8 -3.33301 12 -10 12h-44c-5.33301 0 -8 3.33301 -8 10v49c0 6 3.33301 9 10 9h41c7.33301 0 11 3.33301 11 10v68c0 41.333 13.333 73 40 95s62 33 106 33c26 0 48.833 -2.83301 68.5 -8.5
s35.5 -12.167 47.5 -19.5c6 -4 9 -7.66699 9 -11c0 -1.33301 -1 -4 -3 -8l-21 -40c-2 -4 -4.66699 -6 -8 -6c-2.66699 0 -6 1 -10 3c-9.33301 3.33301 -20.5 7 -33.5 11s-29.167 6 -48.5 6c-26 0 -43.833 -6.83301 -53.5 -20.5s-14.5 -31.167 -14.5 -52.5v-50z" />
    <glyph glyph-name="fl" unicode="fl" horiz-adv-x="472" 
d="M169 371c-6.66699 0 -10.001 -3.33398 -10.001 -10.001v-352c0 -6 -3.33301 -9 -10 -9h-60c-3.33301 0 -5.66602 1 -6.99902 3s-2 4 -2 6v350c0 8 -3.33301 12 -10 12h-44c-5.33301 0 -8 3.33301 -8 10v49c0 6 3.33301 9 10 9h41c7.33301 0 11 3.33301 11 10v68
c0 41.333 13.333 73 40 95s62 33 106 33c17.333 0 33.666 -1.5 48.999 -4.5s28.666 -6.5 39.999 -10.5c2.66699 -1.33301 6 -2 10 -2c3.33301 0 5.66602 0.333008 6.99902 1l29 7c6.66699 1.33301 10.667 2 12 2c7.33301 0 11 -6 11 -18v-496
c0 -23.333 3.33301 -38.333 10 -45s18 -10 34 -10h13c4.66699 0 7.33398 -1.66699 8.00098 -5s1 -6.66602 1 -9.99902v-47c0 -7.33301 -3.33301 -11.666 -10 -12.999c-4 -1.33301 -8.83301 -2 -14.5 -2h-13.5c-22.667 0 -41 3.33301 -55 10s-25 16.167 -33 28.5
s-13.333 27.333 -16 45s-4 37.5 -4 59.5v412c0 4 -0.666992 6.83301 -2 8.5s-3.66602 3.16699 -6.99902 4.5c-8.66699 3.33301 -18.5 6.16602 -29.5 8.49902s-23.833 3.5 -38.5 3.5c-25.333 0 -43 -6.83301 -53 -20.5s-15 -31.167 -15 -52.5v-50
c0 -6.66699 3.66699 -10 11 -10h78c6.66699 0 10.834 -1 12.501 -3s2.5 -6.66699 2.5 -14v-37c0 -7.33301 -1.5 -11.5 -4.5 -12.5s-6.5 -1.5 -10.5 -1.5h-79z" />
    <glyph glyph-name="ffi" unicode="ffi" horiz-adv-x="664" 
d="M450 643c26 0 48.8291 -2.83301 68.4961 -8.5s35.5 -12.167 47.5 -19.5c6 -4 9 -7.66699 9 -11c0 -1.33301 -1 -4 -3 -8l-21 -40c-2 -4 -4.66699 -6 -8 -6c-2.66699 0 -6 1 -10 3c-9.33301 3.33301 -20.5 7 -33.5 11s-29.167 6 -48.5 6c-21.333 0 -38 -6.83301 -50 -20.5
s-18 -31.167 -18 -52.5v-48c0 -6.66699 3.66699 -10 11 -10h200c6.66699 0 10.667 -1.33301 12 -4s2 -7.66699 2 -15v-411c0 -6 -3.33301 -9 -10 -9h-60c-3.33301 0 -5.66602 1 -6.99902 3s-2 4 -2 6v350c0 8 -3.33301 12 -10 12h-126c-6.66699 0 -10 -3.33301 -10 -10v-352
c0 -6 -3.33301 -9 -10 -9h-60c-3.33301 0 -5.66602 1 -6.99902 3s-2 4 -2 6v350c0 8 -3.33301 12 -10 12h-125c-6.66699 0 -10 -3.33301 -10 -10v-352c0 -6 -3.33301 -9 -10 -9h-60c-3.33301 0 -5.66602 1 -6.99902 3s-2 4 -2 6v350c0 8 -3.33301 12 -10 12h-44
c-5.33301 0 -8 3.33301 -8 10v49c0 6 3.33301 9 10 9h41c7.33301 0 11 3.33301 11 10v43c0 18.667 3.5 36 10.5 52s17 30 30 42s28.333 21.333 46 28s37.5 10 59.5 10c21.333 0 40.166 -2.33301 56.499 -7s30.833 -9.66699 43.5 -15
c0.666992 -0.666992 2.33398 -1 5.00098 -1s4.66699 0.666992 6 2c12.667 12.667 28.834 22.5 48.501 29.5s41.167 10.5 64.5 10.5zM292.996 439c7.33301 0 11.002 3.33301 11.002 10v77c0 6.66699 -1.33301 10.667 -4 12c-8.66699 3.33301 -18.834 6.5 -30.501 9.5
s-25.834 4.5 -42.501 4.5c-25.333 0 -43 -7 -53 -21s-15 -31.667 -15 -53v-29c0 -6.66699 3.66699 -10 11 -10h123z" />
    <glyph glyph-name="ffl" unicode="ffl" horiz-adv-x="669" 
d="M226 624c21.333 0 40.1611 -2.33398 56.4941 -7.00098s30.833 -9.66699 43.5 -15c0.666992 -0.666992 2.33398 -1 5.00098 -1s4.66699 0.666992 6 2c12.667 12.667 28.834 22.5 48.501 29.5s41.167 10.5 64.5 10.5c17.333 0 33.5 -1.5 48.5 -4.5s28.167 -6.5 39.5 -10.5
c2.66699 -1.33301 6 -2 10 -2c3.33301 0 5.66602 0.333008 6.99902 1l29 7c6.66699 1.33301 10.667 2 12 2c7.33301 0 11 -6 11 -18v-494c0 -23.333 3.33301 -38.333 10 -45s18 -10 34 -10h13c4.66699 0 7.33398 -1.66699 8.00098 -5s1 -6.66602 1 -9.99902v-47
c0 -7.33301 -3.33301 -11.666 -10 -12.999c-4 -1.33301 -8.83301 -2 -14.5 -2h-13.5c-22.667 0 -41 3.33301 -55 10s-25 16.167 -33 28.5s-13.333 27.333 -16 45s-4 37.5 -4 59.5v410c0 4 -0.666992 6.83301 -2 8.5s-3.66602 3.16699 -6.99902 4.5
c-8.66699 3.33301 -18.5 6.16602 -29.5 8.49902s-23.833 3.5 -38.5 3.5c-21.333 0 -38 -6.83301 -50 -20.5s-18 -31.167 -18 -52.5v-48c0 -6.66699 3.66699 -10 11 -10h78c6.66699 0 10.834 -1 12.501 -3s2.5 -6.66699 2.5 -14v-37c0 -7.33301 -1.5 -11.5 -4.5 -12.5
s-6.5 -1.5 -10.5 -1.5h-79c-6.66699 0 -10 -3.33301 -10 -10v-352c0 -6 -3.33301 -9 -10 -9h-60c-3.33301 0 -5.66602 1 -6.99902 3s-2 4 -2 6v350c0 8 -3.33301 12 -10 12h-124c-6.66699 0 -10 -3.33301 -10 -10v-352c0 -6 -3.33301 -9 -10 -9h-60
c-3.33301 0 -5.66602 1 -6.99902 3s-2 4 -2 6v350c0 8 -3.33301 12 -10 12h-44c-5.33301 0 -8 3.33301 -8 10v49c0 6 3.33301 9 10 9h41c7.33301 0 11 3.33301 11 10v43c0 18.667 3.5 36 10.5 52s17 30 30 42s28.333 21.333 46 28s37.5 10 59.5 10zM292.995 438.999
c7.33301 0 11.002 3.33301 11.002 10v77c0 6.66699 -1.33301 10.667 -4 12c-8.66699 3.33301 -18.834 6.5 -30.501 9.5s-25.834 4.5 -42.501 4.5c-25.333 0 -43 -7 -53 -21s-15 -31.667 -15 -53v-29c0 -6.66699 3.66699 -10 11 -10h123z" />
    <glyph glyph-name="ft" unicode="ft" horiz-adv-x="521" 
d="M384 448c0 -6.66699 3.33594 -10 10.0029 -10h92c6.66699 0 10 -3 10 -9v-49c0 -6.66699 -3.33301 -10 -10 -10h-91c-7.33301 0 -11 -3.33301 -11 -10v-229c0 -19.333 4 -34.666 12 -45.999s22 -17 42 -17c6.66699 0 15.5 0.666992 26.5 2s19.167 3 24.5 5
c4 1.33301 6.66699 2 8 2c3.33301 0 5.66602 -2.33301 6.99902 -7l11 -49c0.666992 -1.33301 1 -3.33301 1 -6c0 -5.33301 -4 -9 -12 -11c-8.66699 -2.66699 -20.334 -4.83398 -35.001 -6.50098s-28.667 -2.5 -42 -2.5c-42 0 -72.833 11.167 -92.5 33.5
s-29.5 51.5 -29.5 87.5v244c0 6.66699 -3.66699 10.334 -11 11.001h-125c-6.66699 0 -10 -3.33301 -10 -10v-352c0 -6 -3.33301 -9 -10 -9h-60c-3.33301 0 -5.66602 1 -6.99902 3s-2 4 -2 6v350c0 8 -3.33301 12 -10 12h-44c-5.33301 0 -8 3.33301 -8 10v49
c0 6 3.33301 9 10 9h41c7.33301 0 11 3.33301 11 10v67c0 17.333 2.66699 33.666 8 48.999s13.166 28.833 23.499 40.5s23 20.834 38 27.501s32.5 10 52.5 10c13.333 0 26.333 -0.833008 39 -2.5s22.667 -3.5 30 -5.5c8 -2 12 -5.33301 12 -10
c0 -2.66699 -0.333008 -4.66699 -1 -6l-11 -49c-0.666992 -4.66699 -3.33398 -7 -8.00098 -7c-3.33301 0 -6 0.333008 -8 1c-14 4 -28 6 -42 6c-20 0 -34 -6.33301 -42 -19s-12 -27.334 -12 -44.001v-58c0 -6.66699 3.66699 -10 11 -10h123c8 0 12 4 12 12v84
c0 5.33301 3 9 9 11l58 14h3c6 0 9 -3 9 -9v-103v0z" />
    <glyph glyph-name=".notdef" horiz-adv-x="440" 
d="M0 700h440v-700h-440v700zM360 650h-280l140 -255zM390 95v510l-140 -255zM360 50l-140 255l-140 -255h280zM50 95l140 255l-140 255v-510z" />
    <glyph glyph-name="space" unicode=" " horiz-adv-x="210" 
 />
    <glyph glyph-name="exclam" unicode="!" horiz-adv-x="263" 
d="M166 170c0 -6 -3 -9 -9 -9h-35c-6 0 -9 2.66699 -9 8l-19 438c0 6.66699 3.33301 10 10 10h67c6.66699 0 10 -3 10 -9zM192 43c0 -14.667 -5.16895 -27.167 -15.502 -37.5s-23.166 -15.5 -38.499 -15.5s-28.333 5.16699 -39 15.5s-16 22.833 -16 37.5
s5.33301 27.167 16 37.5s23.334 15.5 38.001 15.5c15.333 0 28.333 -5 39 -15s16 -22.667 16 -38z" />
    <glyph glyph-name="quotedbl" unicode="&#x22;" horiz-adv-x="288" 
d="M228 617c7.33301 0 10.333 -2.66699 9 -8v-186c0 -5.33301 -3 -8 -9 -8h-47c-6.66699 0 -10 2.66699 -10 8v185c0 6 3.33301 9 10 9h47zM114 617c2.66699 0 5 -0.666992 7 -2s2.66699 -3.33301 2 -6v-186c0 -5.33301 -3.33301 -8 -10 -8h-46
c-6.66699 0 -10 2.66699 -10 8v185c0 6 3 9 9 9h48z" />
    <glyph glyph-name="numbersign" unicode="#" horiz-adv-x="475" 
d="M445 380c-2 -6.66699 -5.99609 -9.99902 -11.9961 -9.99902h-60c-6 0 -9.33301 -2 -10 -6l-27 -122c-0.666992 -4.66699 -0.5 -8 0.5 -10s4.5 -3 10.5 -3h62c6.66699 0 9.33398 -3 8.00098 -9l-7 -36c-2 -6.66699 -6 -10 -12 -10h-69c-6 0 -9.33301 -1.66699 -10 -5
l-26 -118c-0.666992 -4.66699 -3.66699 -7 -9 -7h-41c-6 0 -9.5 1.16699 -10.5 3.5s-1.16699 5.16602 -0.5 8.49902l24 106c0.666992 3.33301 0.5 6.33301 -0.5 9s-4.5 4 -10.5 4h-78c-5.33301 0 -8.33301 -2 -9 -6l-29 -118c-0.666992 -4.66699 -3.33398 -7 -8.00098 -7
h-42c-8.66699 0 -12.334 3.66699 -11.001 11c0 1.33301 1.33301 7.5 4 18.5l9 36.5l12 52c0.666992 3.33301 0.5 6.16602 -0.5 8.49902s-4.5 3.5 -10.5 3.5h-52c-4 0 -6.33301 0.833008 -7 2.5s-1 3.16699 -1 4.5c0 2 0.166992 3.16699 0.5 3.5s0.666016 1.5 0.999023 3.5
s0.833008 5.33301 1.5 10s2 11.667 4 21c2 6.66699 6 10 12 10h58c5.33301 0 8.66602 2.66699 9.99902 8l28 121c0.666992 4 0.5 7 -0.5 9s-4.5 3 -10.5 3h-61c-4 0 -6.33301 0.833008 -7 2.5s-1 3.5 -1 5.5l8 37c0.666992 6 4.33398 9 11.001 9h69
c4.66699 0 7.66699 2.66699 9 8l26 120c1.33301 4 4.33301 6 9 6h41c6 0 9.5 -1 10.5 -3s1.16699 -4.66699 0.5 -8l-24 -109c-1.33301 -4 -1.33301 -7.33301 0 -10s5 -4 11 -4h78c4.66699 0 7.66699 2.66699 9 8l28 120c0 4 3 6 9 6h40c6 0 9.5 -1 10.5 -3
s1.16699 -4.66699 0.5 -8l-23 -109c-1.33301 -4 -1.5 -7.16699 -0.5 -9.5s4.5 -3.5 10.5 -3.5h54c5.33301 0 8.16602 -1.66699 8.49902 -5s0.166016 -6.66602 -0.500977 -9.99902zM299.004 358.001c0.666992 4 0.5 7 -0.5 9s-4.5 3 -10.5 3h-75
c-3.33301 0 -6.33301 -1 -9 -3s-4 -4 -4 -6l-26 -119c-0.666992 -4.66699 -0.666992 -8 0 -10s4.33398 -3 11.001 -3h77c5.33301 0 8.66602 2.66699 9.99902 8z" />
    <glyph glyph-name="dollar" unicode="$" horiz-adv-x="475" 
d="M341 173c0 16 -3 29.5039 -9 40.5039s-14 20.5 -24 28.5s-21.333 14.667 -34 20s-25.334 10 -38.001 14c-18 5.33301 -37.167 11.666 -57.5 18.999s-39.333 17.166 -57 29.499s-32.334 28.166 -44.001 47.499s-17.5 43.666 -17.5 72.999c0 20.667 3.83301 40 11.5 58
s18 34 31 48s28 25.667 45 35s35.167 16 54.5 20c4 0 6 2.66699 6 8v55c0 6 3.33301 9 10 9h31c6.66699 0 10 -3 10 -9v-54c0 -3.33301 2.66699 -5.66602 8 -6.99902c26 -2 50 -7.5 72 -16.5s42 -21.167 60 -36.5c5.33301 -4.66699 5.33301 -10.334 0 -17.001l-30 -37
c-5.33301 -7.33301 -12 -7.33301 -20 0c-18 16.667 -36.333 28 -55 34s-37 9 -55 9c-12 0 -24.167 -2.16699 -36.5 -6.5s-23.5 -10.666 -33.5 -18.999s-18.167 -18.666 -24.5 -30.999s-9.5 -26.833 -9.5 -43.5c0 -15.333 3.66699 -28.333 11 -39s16.666 -19.667 27.999 -27
s23.666 -13.333 36.999 -18l38 -13c21.333 -6 42 -13.167 62 -21.5s37.833 -19 53.5 -32s28.334 -28.833 38.001 -47.5s14.5 -41.334 14.5 -68.001c0 -24 -3.83301 -45.5 -11.5 -64.5s-18.167 -35.5 -31.5 -49.5s-29.166 -25.167 -47.499 -33.5
s-38.166 -14.166 -59.499 -17.499c-5.33301 -0.666992 -8 -3.33398 -8 -8.00098v-62c0 -6.66699 -3.33301 -10 -10 -10h-31c-3.33301 0 -5.83301 0.5 -7.5 1.5s-2.5 3.5 -2.5 7.5v62c0 4.66699 -2.66699 7 -8 7c-26 2 -50.167 7.33301 -72.5 16s-44.166 22 -65.499 40
c-4.66699 4 -4.33398 9.66699 0.999023 17l29 35c4.66699 6.66699 11 6.66699 19 0c14 -12.667 31.167 -23.167 51.5 -31.5s41.5 -12.5 63.5 -12.5c16 0 30.833 2 44.5 6s25.834 10.167 36.501 18.5s19 18.666 25 30.999s9 26.5 9 42.5z" />
    <glyph glyph-name="percent" unicode="%" horiz-adv-x="700" 
d="M239 -23c-1.33301 -3.33301 -3.00098 -5.33301 -5.00098 -6s-4.33301 -1 -7 -1h-36c-6 0 -7.66699 3 -5 9l278 660c2 4 4.16699 6.33301 6.5 7s4.5 1 6.5 1h30c6 0 9.33301 -1 10 -3s0.333984 -5 -0.999023 -9zM282.999 342c0 -34 -10.833 -60.499 -32.5 -79.499
s-51.5 -28.5 -89.5 -28.5c-37.333 0 -66.833 9 -88.5 27s-32.5 45 -32.5 81v171c0 34 11 60.5 33 79.5s51.333 28.5 88 28.5c36 0 65.333 -9.33301 88 -28s34 -45.334 34 -80.001v-171zM215.999 513.001c0 15.333 -4.83301 28 -14.5 38s-23.167 15 -40.5 15
s-30.833 -5 -40.5 -15s-14.5 -22.667 -14.5 -38v-171c0 -16 4.83301 -28.833 14.5 -38.5s23.167 -14.5 40.5 -14.5s30.833 4.83301 40.5 14.5s14.5 22.5 14.5 38.5v171zM659.999 103.001c0 -34 -10.832 -60.167 -32.499 -78.5s-51.167 -27.5 -88.5 -27.5
c-36.667 0 -65.834 8.83301 -87.501 26.5s-32.5 44.167 -32.5 79.5v172c0 33.333 11 59.5 33 78.5s51 28.5 87 28.5s65.167 -9.33301 87.5 -28s33.5 -45 33.5 -79v-172zM597 275.001c0 16 -5.33398 29.167 -16.001 39.5s-24.667 15.5 -42 15.5s-31.166 -5.33301 -41.499 -16
s-15.5 -23.667 -15.5 -39v-172c0 -16.667 5 -30.167 15 -40.5s24 -15.5 42 -15.5c17.333 0 31.333 5.16699 42 15.5s16 23.833 16 40.5v172z" />
    <glyph glyph-name="ampersand" unicode="&#x26;" horiz-adv-x="570" 
d="M245 299c-6.66699 0 -9.99805 3.32812 -9.99805 9.99512v48c0 6.66699 3.66699 10 11 10h204c17.333 0 36 2.5 56 7.5s39.667 14.5 59 28.5c3.33301 2.66699 6.66602 4 9.99902 4s6.66602 -2 9.99902 -6l19 -28c2.66699 -3.33301 4 -7 4 -11
c0 -3.33301 -1.66699 -6.66602 -5 -9.99902c-19.333 -18.667 -41.666 -31.667 -66.999 -39s-49.333 -11.666 -72 -12.999c-12 -1.33301 -18 -6.66602 -18 -15.999v-102c0 -27.333 -4.16699 -52.5 -12.5 -75.5s-20.666 -42.833 -36.999 -59.5s-36.333 -29.667 -60 -39
s-50.5 -14 -80.5 -14h-8c-62.667 0 -109 16 -139 48s-45 75.333 -45 130v221c0 26 4.83301 49.5 14.5 70.5s23 38.667 40 53s37 25.5 60 33.5s47.833 12 74.5 12h126c7.33301 0 11 -3.33301 11 -10v-49c0 -6.66699 -3.33301 -10 -10 -10h-127
c-32 0 -58.167 -9.16699 -78.5 -27.5s-30.5 -42.166 -30.5 -71.499v-221c0 -14 1.16699 -27.667 3.5 -41s7.16602 -25.166 14.499 -35.499s17.833 -18.5 31.5 -24.5s31.834 -9 54.501 -9h8c22 0 40.167 3.5 54.5 10.5s25.666 16.333 33.999 28s14.166 24.667 17.499 39
s5 28.5 5 42.5v106c0 1.33301 -0.333008 3.33301 -1 6s-3.66699 4 -9 4h-112z" />
    <glyph glyph-name="quotesingle" unicode="'" horiz-adv-x="173" 
d="M54 608c0 6 3 9 9 9h48c6.66699 0 10 -2.66699 10 -8l-1 -186c0 -5.33301 -3 -8 -9 -8h-47c-6.66699 0 -10 2.66699 -10 8v185v0z" />
    <glyph glyph-name="parenleft" unicode="(" horiz-adv-x="325" 
d="M139 265c0 -36.667 3.83594 -72.502 11.5029 -107.502s17.667 -68.5 30 -100.5s26.166 -62.167 41.499 -90.5s30.666 -54.5 45.999 -78.5c6.66699 -9.33301 6 -17 -2 -23l-26 -17c-11.333 -6.66699 -21.333 -5.33398 -30 3.99902c-18 22.667 -36.333 49.334 -55 80.001
s-35.667 63.834 -51 99.501s-27.833 73.167 -37.5 112.5s-14.5 79.666 -14.5 120.999s5.5 83 16.5 125s24.833 81.833 41.5 119.5s34.334 72 53.001 103s35.667 56.5 51 76.5c5.33301 6.66699 13 7.33398 23 2.00098l28 -15
c9.33301 -5.33301 10.666 -12.666 3.99902 -21.999c-18 -27.333 -34.833 -56.5 -50.5 -87.5s-29.334 -63.167 -41.001 -96.5s-21 -67.333 -28 -102s-10.5 -69 -10.5 -103z" />
    <glyph glyph-name="parenright" unicode=")" horiz-adv-x="325" 
d="M115 -148c-8 -10 -17.6641 -11.3301 -28.9971 -3.99707l-26 17c-8.66699 5.33301 -9.66699 13 -3 23c15.333 24 30.666 50.167 45.999 78.5s29.166 58.5 41.499 90.5s22.333 65.5 30 100.5s11.5 70.833 11.5 107.5c0 34 -3.5 68.333 -10.5 103s-16.333 68.667 -28 102
s-25.334 65.5 -41.001 96.5s-32.5 60.167 -50.5 87.5c-6.66699 9.33301 -5.33398 16.666 3.99902 21.999l28 15c10 5.33301 17.667 4.66602 23 -2.00098c15.333 -20 32.333 -45.5 51 -76.5s36.334 -65.333 53.001 -103s30.5 -77.5 41.5 -119.5s16.5 -83.667 16.5 -125
s-4.83301 -81.666 -14.5 -120.999s-22.167 -76.833 -37.5 -112.5s-32.333 -68.834 -51 -99.501s-37 -57.334 -55 -80.001z" />
    <glyph glyph-name="asterisk" unicode="*" horiz-adv-x="370" 
d="M234 491c-2.66699 -0.666992 -4.50098 -1.83203 -5.50098 -3.49902s-0.166992 -3.83398 2.5 -6.50098l60 -72c8 -10 8 -17.667 0 -23l-27 -18c-6.66699 -4 -11.667 -6 -15 -6s-7 3.66699 -11 11l-47 78c-3.33301 7.33301 -7.33301 7.33301 -12 0l-49 -79
c-3.33301 -6 -6.66602 -9.33301 -9.99902 -10s-8.33301 1.33301 -15 6l-25 17c-10.667 7.33301 -11 16.333 -1 27l59 69c4.66699 4.66699 4 7.66699 -2 9l-92 23c-9.33301 2 -12.666 7.66699 -9.99902 17l10 32c4 12 11.667 15.667 23 11l88 -36c4.66699 -1.33301 7 0 7 4
l-11 99c-0.666992 4.66699 0.166016 8.16699 2.49902 10.5s7.83301 3.5 16.5 3.5h31c12.667 0 18.334 -5 17.001 -15l-10 -95c-0.666992 -6.66699 1.66602 -9 6.99902 -7l86 35c11.333 5.33301 19 2 23 -10l12 -30c1.33301 -4 1.5 -7.83301 0.5 -11.5
s-4.16699 -6.16699 -9.5 -7.5z" />
    <glyph glyph-name="plus" unicode="+" horiz-adv-x="475" 
d="M435 223c0 -10 -5 -15 -15 -15h-147c-3.33301 0 -5 -1.33301 -5 -4v-147c0 -9.33301 -4.66699 -14 -14 -14h-34c-10 0 -15 4.66699 -15 14v146c0 3.33301 -1.33301 5 -4 5h-146c-10 0 -15 4.66699 -15 14v32c0 10 5 15 15 15h145c3.33301 0 5 1.33301 5 4v146
c0 10 4.66699 15 14 15h34c10 0 15 -5 15 -15v-145c0 -3.33301 1.66699 -5 5 -5h147c10 0 15 -5 15 -15v-31v0z" />
    <glyph glyph-name="comma" unicode="," horiz-adv-x="213" 
d="M110 -101c-2.66699 -8.66699 -7.99902 -13.001 -15.999 -13.001h-29c-5.33301 0 -8.83301 1.83301 -10.5 5.5s-2.16699 7.83398 -1.5 12.501l11 180c1.33301 11.333 6.66602 17 15.999 17h67c13.333 0 18 -7 14 -21z" />
    <glyph glyph-name="hyphen" unicode="-" horiz-adv-x="340" 
d="M277 215c0 -6.66699 -3 -10 -9 -10h-204c-6.66699 0 -10 3.33301 -10 10v46c0 6.66699 3 10 9 10h204c6.66699 0 10 -3 10 -9v-47v0z" />
    <glyph glyph-name="period" unicode="." horiz-adv-x="213" 
d="M106 98c15.333 0 28.333 -5.00195 39 -15.002s16 -22.667 16 -38s-5.33301 -28.166 -16 -38.499s-23.667 -15.5 -39 -15.5c-14.667 0 -27.167 5.33301 -37.5 16s-15.5 23.334 -15.5 38.001s5.16699 27.167 15.5 37.5s22.833 15.5 37.5 15.5z" />
    <glyph glyph-name="slash" unicode="/" horiz-adv-x="303" 
d="M62 -54c-3.33301 -8 -9.00098 -12 -17.001 -12h-31c-9.33301 0 -12.333 4.66699 -9 14l234 715c2.66699 8 9.33398 12 20.001 12h29c3.33301 0 6 -1 8 -3s2.33301 -5 1 -9z" />
    <glyph glyph-name="zero" unicode="0" horiz-adv-x="475" 
d="M426 164c0 -54 -16.168 -95.835 -48.501 -125.502s-75.833 -44.5 -130.5 -44.5c-54 0 -97.5 14.167 -130.5 42.5s-49.5 70.833 -49.5 127.5v292c0 26 4.33301 49.5 13 70.5s20.834 38.833 36.501 53.5s34.5 25.834 56.5 33.501s46.333 11.5 73 11.5
c26 0 50 -3.66699 72 -11s41 -18.166 57 -32.499s28.5 -32 37.5 -53s13.5 -45.167 13.5 -72.5v-292zM344.999 455.998c0 29.333 -9 53.333 -27 72s-41.667 28 -71 28c-30 0 -54 -9.5 -72 -28.5s-27 -42.833 -27 -71.5v-292c0 -30 8.83301 -54.333 26.5 -73
s41.5 -28 71.5 -28s54 9.16699 72 27.5s27 42.833 27 73.5v292z" />
    <glyph glyph-name="one" unicode="1" horiz-adv-x="475" 
d="M295 10c0 -6.66699 -3.33398 -10.001 -10.001 -10.001h-62c-6 0 -9 3 -9 9v490c0 6.66699 -2.33301 10 -7 10c-2 0 -5 -1 -9 -3l-68 -40c-6.66699 -3.33301 -12 -5 -16 -5c-6.66699 0 -10 3.66699 -10 11v46c0 4.66699 0.5 8.83398 1.5 12.501s3.83301 7.16699 8.5 10.5
l107 66c5.33301 3.33301 9.83301 5.83301 13.5 7.5s7.83398 2.5 12.501 2.5h33c10 0 15 -5 15 -15v-592v0z" />
    <glyph glyph-name="two" unicode="2" horiz-adv-x="475" 
d="M411 10c0 -6.66699 -3.33398 -10.002 -10.001 -10.002h-338c-11.333 0 -17 5.33301 -17 16v29c0 7.33301 0.5 14 1.5 20s4.5 13 10.5 21l232 297c10.667 13.333 18.667 27.5 24 42.5s8 29.167 8 42.5c0 10.667 -1.66699 21.334 -5 32.001s-8.66602 20.167 -15.999 28.5
s-17 15 -29 20s-26.667 7.5 -44 7.5c-10 0 -20 -1.5 -30 -4.5s-19.5 -7 -28.5 -12s-17.167 -10.333 -24.5 -16s-13.333 -11.167 -18 -16.5c-4 -4.66699 -8.16699 -8 -12.5 -10s-8.5 -1.33301 -12.5 2l-32 26c-4.66699 3.33301 -7 6.5 -7 9.5s1 6.16699 3 9.5
c18 28 42.167 48.5 72.5 61.5s61.5 19.5 93.5 19.5c24 0 46.5 -3.33301 67.5 -10s39.333 -16.5 55 -29.5s28 -29.167 37 -48.5s13.5 -41.666 13.5 -66.999c0 -23.333 -5.5 -46.5 -16.5 -69.5s-22.167 -41.5 -33.5 -55.5l-206 -264c-6 -8 -4.33301 -12 5 -12h247
c6.66699 0 10 -3 10 -9v-50v0z" />
    <glyph glyph-name="three" unicode="3" horiz-adv-x="475" 
d="M396 167c0 -26.667 -4.49902 -50.665 -13.499 -71.998s-21.667 -39.5 -38 -54.5s-35.833 -26.5 -58.5 -34.5s-47.334 -12 -74.001 -12c-22 0 -42.833 2.5 -62.5 7.5s-37.834 14.167 -54.501 27.5c-20.667 16 -35 32 -43 48c-1.33301 2.66699 -2 5.33398 -2 8.00098
s2.66699 5.66699 8 9l43 27c4 2.66699 7.16699 4 9.5 4s5.16602 -1.66699 8.49902 -5l10 -14c10.667 -12.667 22.667 -23 36 -31s29 -12 47 -12c13.333 0 26.333 2.16699 39 6.5s23.834 10.666 33.501 18.999s17.334 18.833 23.001 31.5s8.5 27.667 8.5 45v47
c0 26 -8.83301 47.667 -26.5 65s-41.167 26 -70.5 26h-62c-6.66699 0 -10 3 -10 9v51c0 6 3 9 9 9h63c28 0 51.5 7.83301 70.5 23.5s28.5 38.167 28.5 67.5c0 27.333 -8.16699 49.666 -24.5 66.999s-40.166 26 -71.499 26c-20 0 -37.5 -4.33301 -52.5 -13
s-27.167 -20 -36.5 -34c-2 -3.33301 -4.83301 -6.5 -8.5 -9.5s-8.16699 -2.83301 -13.5 0.5l-44 26c-4.66699 3.33301 -6.66699 6.5 -6 9.5s2 6.16699 4 9.5c17.333 28 40.5 48.333 69.5 61s59.5 19 91.5 19c56.667 0 99.5 -14.833 128.5 -44.5s43.5 -67.834 43.5 -114.501
c0 -12.667 -2 -25.334 -6 -38.001s-9.5 -24.667 -16.5 -36s-15.667 -21.5 -26 -30.5s-21.5 -15.5 -33.5 -19.5c-3.33301 -1.33301 -5 -3 -5 -5s1.33301 -3.33301 4 -4c14.667 -3.33301 27.167 -9.16602 37.5 -17.499s18.666 -18 24.999 -29s11 -22.667 14 -35
s4.5 -24.5 4.5 -36.5v-48v0z" />
    <glyph glyph-name="four" unicode="4" horiz-adv-x="475" 
d="M323 617c4 0 7 -1.49902 9 -4.49902s2 -6.16699 0 -9.5l-204 -393c-1.33301 -2 -2 -4.33301 -2 -7s2.66699 -4 8 -4h134c5.33301 0 8.33301 1.66699 9 5s1 6 1 8v175c0 6.66699 3 10 9 10h61c6.66699 0 10 -3.33301 10 -10v-173c0 -5.33301 0.333008 -9.16602 1 -11.499
s3.66699 -3.5 9 -3.5h59c6.66699 0 10 -3.33301 10 -10v-46c0 -6.66699 -3.33301 -10 -10 -10h-56c-4 0 -7.16699 -0.833008 -9.5 -2.5s-3.5 -5.5 -3.5 -11.5v-109c0 -6.66699 -3.33301 -10 -10 -10h-61c-6 0 -9 3.33301 -9 10v109c0 9.33301 -4.33301 14 -13 14h-217
c-6.66699 0 -10 3.33301 -10 10v28c0 11.333 0.5 19.666 1.5 24.999s3.5 11.666 7.5 18.999l206 398c1.33301 2.66699 4.33301 4 9 4h61z" />
    <glyph glyph-name="five" unicode="5" horiz-adv-x="475" 
d="M402 170c0 -28 -4.83691 -52.832 -14.5039 -74.499s-22.667 -40 -39 -55s-35.666 -26.5 -57.999 -34.5s-46.166 -12 -71.499 -12c-40 0 -72.167 6.83301 -96.5 20.5s-45.166 35.5 -62.499 65.5c-3.33301 6.66699 -2 11.667 4 15l46 26
c6.66699 4 12.334 3.33301 17.001 -2c12.667 -17.333 25.167 -31 37.5 -41s30.166 -15 53.499 -15c33.333 0 59 9.5 77 28.5s27 42.5 27 70.5v77c0 10.667 -1.5 21.5 -4.5 32.5s-8.33301 21 -16 30s-18.167 16.167 -31.5 21.5s-30 8 -50 8
c-11.333 0 -22.166 -1.83301 -32.499 -5.5s-18.833 -7.83398 -25.5 -12.501c-12 -9.33301 -23 -12 -33 -8l-35 15c-4 2 -7.5 4.5 -10.5 7.5s-4.5 7.5 -4.5 13.5v266c0 6.66699 3 10 9 10h289c6.66699 0 10 -3 10 -9v-52c0 -5.33301 -3 -8 -9 -8h-208
c-8 0 -12 -3.66699 -12 -11v-136c0 -12.667 7.33301 -16 22 -10c16.667 7.33301 33.667 11 51 11c30 0 55.667 -4.16699 77 -12.5s39 -19.833 53 -34.5s24.333 -32 31 -52s10 -41.667 10 -65v-68z" />
    <glyph glyph-name="six" unicode="6" horiz-adv-x="475" 
d="M420 164c0 -26 -4.33301 -49.3301 -13 -69.9971s-21 -38.5 -37 -53.5s-35 -26.5 -57 -34.5s-46 -12 -72 -12s-50.167 3.33301 -72.5 10s-41.5 16.834 -57.5 30.501s-28.667 30.834 -38 51.501s-14 45 -14 73v281c0 29.333 4.66699 55.5 14 78.5s22.333 42.333 39 58
s36.5 27.667 59.5 36s48.167 12.5 75.5 12.5c36 0 66.333 -5 91 -15s47.667 -29 69 -57c6 -8 5 -15.333 -3 -22l-38 -31c-3.33301 -3.33301 -7 -4.16602 -11 -2.49902s-7.33301 4.16699 -10 7.5c-12.667 15.333 -27 27.666 -43 36.999s-34.667 14 -56 14
c-18 0 -33.667 -2.83301 -47 -8.5s-24.5 -13.334 -33.5 -23.001s-15.667 -20.834 -20 -33.501s-6.5 -26.334 -6.5 -41.001v-81c0 -5.33301 1.33301 -8.83301 4 -10.5s5.66699 -0.833984 9 2.49902c13.333 11.333 28.333 19.833 45 25.5s33 8.5 49 8.5
c24.667 0 47.5 -3.5 68.5 -10.5s39.333 -17.333 55 -31s28 -30.334 37 -50.001s13.5 -42.167 13.5 -67.5v-72zM340 236.003c0.666992 29.333 -9.00098 51.666 -29.001 66.999s-43.667 23 -71 23c-28 0 -51.833 -8.83301 -71.5 -26.5s-29.5 -40.5 -29.5 -68.5v-72
c0 -29.333 9.83301 -52.833 29.5 -70.5s43.5 -26.5 71.5 -26.5s51.333 8.83301 70 26.5s28.334 42.834 29.001 75.501z" />
    <glyph glyph-name="seven" unicode="7" horiz-adv-x="475" 
d="M423 573c0 -5.33301 -1.00098 -10.833 -3.00098 -16.5s-3.66699 -10.167 -5 -13.5l-115 -253l-43 -95.5l-38.5 -86.5l-29.5 -65.5c-8 -17.667 -13 -28.5 -15 -32.5c-3.33301 -6.66699 -7.66602 -10 -12.999 -10h-65c-3.33301 0 -6 1 -8 3s-2 5 0 9l233 517
c2.66699 5.33301 3 9.83301 1 13.5s-6.66699 5.5 -14 5.5h-162c-6 0 -9.83301 -0.833008 -11.5 -2.5s-2.5 -4.5 -2.5 -8.5v-46c0 -7.33301 -3 -11 -9 -11h-51c-6.66699 0 -10 3.33301 -10 10v117c0 6.66699 3 10 9 10h332c13.333 0 20 -4.66699 20 -14v-30v0z" />
    <glyph glyph-name="eight" unicode="8" horiz-adv-x="475" 
d="M239 628c26 0 50.002 -4.00098 72.002 -12.001s41 -19.167 57 -33.5s28.5 -32 37.5 -53s13.5 -44.5 13.5 -70.5c0 -23.333 -5.5 -46.166 -16.5 -68.499s-25.833 -40.833 -44.5 -55.5c-6 -5.33301 -6.66699 -9.33301 -2 -12c21.333 -12.667 38.666 -30.667 51.999 -54
s20 -50.666 20 -81.999c0 -30 -5 -57 -15 -81s-23.667 -44.333 -41 -61s-37.666 -29.334 -60.999 -38.001s-48.333 -13 -75 -13c-27.333 0 -52.5 3.66699 -75.5 11s-42.833 18.5 -59.5 33.5s-29.667 34 -39 57s-14 50.167 -14 81.5c0 32 7.33301 61.167 22 87.5
s33.667 45.5 57 57.5c3.33301 1.33301 5.16602 3 5.49902 5s-0.833984 3.66699 -3.50098 5c-11.333 5.33301 -21.333 12.833 -30 22.5s-16 20.167 -22 31.5s-10.5 23.333 -13.5 36s-4.5 24.667 -4.5 36c0 25.333 4.66699 48.5 14 69.5s22 39 38 54s35 26.5 57 34.5
s45.667 12 71 12zM339.002 459.999c0 28 -9.16602 51.5 -27.499 70.5s-42.5 28.5 -72.5 28.5c-28.667 0 -52.667 -9.5 -72 -28.5s-29 -42.833 -29 -71.5c0 -27.333 9.33301 -50.5 28 -69.5s43 -28.5 73 -28.5c13.333 0 26.166 2.5 38.499 7.5s23 12 32 21
s16.167 19.5 21.5 31.5s8 25 8 39zM238.003 292.999c-13.333 0 -26.501 -2.66602 -39.501 -7.99902s-24.667 -13.166 -35 -23.499s-18.666 -22.833 -24.999 -37.5s-9.5 -31.334 -9.5 -50.001c0 -36.667 9.83301 -64.334 29.5 -83.001s45.167 -28 76.5 -28
c14 0 27.667 2.66699 41 8s25.333 13 36 23s19.167 22.5 25.5 37.5s9.5 32.167 9.5 51.5c0 18 -3 33.833 -9 47.5s-14 25.167 -24 34.5s-21.5 16.333 -34.5 21s-26.833 7 -41.5 7z" />
    <glyph glyph-name="nine" unicode="9" horiz-adv-x="475" 
d="M410 193c0 -62.667 -16.002 -111.5 -48.002 -146.5s-80.333 -52.5 -145 -52.5c-36 0 -67.833 7.16699 -95.5 21.5s-50.5 36.166 -68.5 65.499c-4.66699 8 -3.66699 13.667 3 17l46 27c4 2.66699 7.33301 3.16699 10 1.5s5 -3.83398 7 -6.50098
c11.333 -15.333 25 -28.666 41 -39.999s34.667 -17 56 -17c38.667 0 67.334 11.167 86.001 33.5s28 53.833 28 94.5v61c0 4.66699 -1.16699 7.83398 -3.5 9.50098s-5.16602 0.833984 -8.49902 -2.49902c-13.333 -11.333 -28.333 -20 -45 -26s-33.334 -9 -50.001 -9
c-24.667 0 -47.5 3.83301 -68.5 11.5s-39.333 18.5 -55 32.5s-28 31.167 -37 51.5s-13.5 43.166 -13.5 68.499v65c0 26 4.5 49.5 13.5 70.5s21.833 39 38.5 54s36.334 26.667 59.001 35s48 12.5 76 12.5c52 0 94 -15 126 -45s48 -74 48 -132v-255zM329.998 460
c0 29.333 -9.66797 52.832 -29.001 70.499s-43.333 26.5 -72 26.5c-27.333 0 -50.666 -9.16699 -69.999 -27.5s-29 -41.166 -29 -68.499v-73c0 -30 8.16699 -53.333 24.5 -70s41.5 -25 75.5 -25c28 0 51.667 8.83301 71 26.5s29 40.5 29 68.5v72z" />
    <glyph glyph-name="colon" unicode=":" horiz-adv-x="213" 
d="M161 330c0 -15.333 -5.33301 -28.332 -16 -38.999s-23.667 -16 -39 -16c-14.667 0 -27.167 5.16699 -37.5 15.5s-15.5 23.166 -15.5 38.499c0 14 5.16699 26.333 15.5 37s22.833 16 37.5 16s27.5 -5.33301 38.5 -16s16.5 -22.667 16.5 -36zM106 98.001
c15.333 0 28.333 -5.00098 39 -15.001s16 -22.667 16 -38s-5.33301 -28.166 -16 -38.499s-23.667 -15.5 -39 -15.5c-14.667 0 -27.167 5.33301 -37.5 16s-15.5 23 -15.5 37c0 15.333 5.16699 28 15.5 38s22.833 15 37.5 15v1z" />
    <glyph glyph-name="semicolon" unicode=";" horiz-adv-x="213" 
d="M161 330c0 -15.333 -5.33301 -28.167 -16 -38.5s-23.667 -15.5 -39 -15.5c-14.667 0 -27.167 5 -37.5 15s-15.5 22.667 -15.5 38c0 14 5.16699 26.333 15.5 37s22.833 16 37.5 16c15.333 0 28.333 -5 39 -15s16 -22.333 16 -37zM104 -101.001
c-2.66699 -8.66699 -8.00098 -12.998 -16.001 -12.998h-29c-4.66699 0 -8 1.66699 -10 5s-2.66699 7.66602 -2 12.999l11 179c0.666992 5.33301 2.33398 9.66602 5.00098 12.999s6.66699 5 12 5h66c13.333 0 18 -7.33301 14 -22z" />
    <glyph glyph-name="less" unicode="&#x3c;" horiz-adv-x="475" 
d="M447 447c0 -3.33301 -0.999023 -7.50195 -2.99902 -12.502s-5.33301 -8.5 -10 -10.5l-324 -163c-8.66699 -4.66699 -8.66699 -9.33398 0 -14.001l326 -162c6 -3.33301 9.33301 -7.33301 10 -12s1 -9 1 -13v-40c-0.666992 -4 -2.83398 -7.5 -6.50098 -10.5
s-8.16699 -2.83301 -13.5 0.5l-383 198c-12 5.33301 -18 12.333 -18 21v44c0 10.667 4.33301 18.334 13 23.001l388 199c4.66699 2.66699 9.16699 3.33398 13.5 2.00098s6.5 -4.66602 6.5 -9.99902v-40z" />
    <glyph glyph-name="equal" unicode="=" horiz-adv-x="475" 
d="M435 146c0 -10 -5 -15 -15 -15h-365c-10 0 -15 4.66699 -15 14v32c0 10 5 15 15 15h365c10 0 15 -5 15 -15v-31zM435 317c0 -10 -5 -15 -15 -15h-365c-10 0 -15 4.66699 -15 14v32c0 10 5 15 15 15h365c10 0 15 -5 15 -15v-31z" />
    <glyph glyph-name="greater" unicode="&#x3e;" horiz-adv-x="475" 
d="M448 229c0 -8.66699 -5.66602 -15.6641 -16.999 -20.9971l-385 -198c-5.33301 -2.66699 -10 -2.66699 -14 0s-5.66699 6 -5 10v40c0.666992 4 1.16699 8.33301 1.5 13s3.83301 8.66699 10.5 12l325 162c9.33301 5.33301 9.33301 10 0 14l-324 163
c-4.66699 2 -7.83398 5.5 -9.50098 10.5s-2.5 9.16699 -2.5 12.5l-1 40c0 5.33301 2.16699 8.66602 6.5 9.99902s8.83301 0.666016 13.5 -2.00098l388 -199c8.66699 -4.66699 13 -12.334 13 -23.001v-44v0z" />
    <glyph glyph-name="question" unicode="?" horiz-adv-x="491" 
d="M419 469c0 -32.667 -8.33398 -62.6709 -25.001 -90.0039s-41 -50.666 -73 -69.999c-28 -17.333 -49.167 -34.666 -63.5 -51.999s-21.5 -38.666 -21.5 -63.999v-21c0 -9.33301 -3 -14 -9 -14h-58c-5.33301 0 -9 0.833008 -11 2.5s-3 5.83398 -3 12.501v34
c0 25.333 7 50.666 21 75.999s33.667 46.666 59 63.999c30.667 20.667 55.167 40.167 73.5 58.5s27.5 38.833 27.5 61.5c0 12 -1.83301 23.333 -5.5 34s-9.33398 20.334 -17.001 29.001s-17.167 15.5 -28.5 20.5s-24.666 7.5 -39.999 7.5c-18.667 0 -36 -5.83301 -52 -17.5
s-29 -24.5 -39 -38.5c-5.33301 -7.33301 -12 -8.33301 -20 -3l-43 28c-7.33301 4.66699 -8.66602 10.334 -3.99902 17.001c17.333 28 40.333 49.167 69 63.5s59 21.5 91 21.5c24.667 0 47.5 -3.5 68.5 -10.5s39.167 -17.333 54.5 -31s27.333 -30.5 36 -50.5
s13 -42.667 13 -68zM248.999 42.9961c0 -14.667 -5.16699 -27.167 -15.5 -37.5s-23.5 -15.5 -39.5 -15.5c-14.667 0 -27.334 5.16699 -38.001 15.5s-16 22.833 -16 37.5s5.33301 27.167 16 37.5s23.334 15.5 38.001 15.5c15.333 0 28.333 -5 39 -15s16 -22.667 16 -38z" />
    <glyph glyph-name="at" unicode="@" horiz-adv-x="754" 
d="M565 181c8.66699 0 18.1738 2.1582 28.5068 6.49121s19.833 12 28.5 23s16 26.167 22 45.5s9 44.333 9 75c0 36.667 -7.5 69.5 -22.5 98.5s-34.5 53.5 -58.5 73.5s-50.833 35.167 -80.5 45.5s-58.834 15.5 -87.501 15.5c-39.333 0 -75.833 -7 -109.5 -21
s-62.834 -33.167 -87.501 -57.5s-44 -53.166 -58 -86.499s-21 -69 -21 -107c0 -38.667 6.66699 -74.5 20 -107.5s32 -61.667 56 -86s53.167 -43.5 87.5 -57.5s72.5 -21 114.5 -21c13.333 0 27.333 0.833008 42 2.5s29.334 3.83398 44.001 6.50098s28.667 5.83398 42 9.50098
s25.333 7.83398 36 12.501c5.33301 2.66699 9.66602 3.83398 12.999 3.50098s6.66602 -4.5 9.99902 -12.5l9 -24c3.33301 -8.66699 3.16602 -14.167 -0.500977 -16.5s-6.83398 -4.16602 -9.50098 -5.49902c-28 -9.33301 -56.833 -17 -86.5 -23s-60.834 -9 -93.501 -9
c-51.333 0 -98.166 7.5 -140.499 22.5s-78.5 36.667 -108.5 65s-53.333 62.833 -70 103.5s-25 86.334 -25 137.001c0 46 8.33301 88.667 25 128s39.667 73.5 69 102.5s64.5 51.833 105.5 68.5s85.5 25 133.5 25c44 0 85 -7 123 -21s71 -33.5 99 -58.5s50 -54.667 66 -89
s24 -71.833 24 -112.5c0 -40 -4.66699 -73.333 -14 -100s-21.166 -48 -35.499 -64s-30.5 -27.333 -48.5 -34s-35.333 -10 -52 -10c-21.333 0 -39.5 3.16699 -54.5 9.5s-27.5 15.166 -37.5 26.499c-2.66699 2.66699 -5.33398 3 -8.00098 1
c-11.333 -10.667 -24.833 -19.5 -40.5 -26.5s-31.834 -10.5 -48.501 -10.5c-16 0 -31.167 2.66699 -45.5 8s-27 12.833 -38 22.5s-19.667 21.334 -26 35.001s-9.5 29.167 -9.5 46.5c0 36 11.5 64 34.5 84s52.167 30 87.5 30c9.33301 0 18 -1.16699 26 -3.5
s15.667 -5.16602 23 -8.49902c4 -1.33301 7.33301 -0.666016 10 2.00098s4 5.66699 4 9c0 12.667 -4 24 -12 34s-24 15 -48 15c-13.333 0 -26.5 -1.83301 -39.5 -5.5s-25.167 -7.5 -36.5 -11.5c-6 -1.33301 -10 0.666992 -12 6l-11 33c-2 6 -0.666992 10 4 12
c14.667 7.33301 31 13 49 17s34.667 6 50 6c46 0 78.167 -10.167 96.5 -30.5s27.5 -50.5 27.5 -90.5v-94c0 -18 4.16699 -32.833 12.5 -44.5s23.166 -17.5 44.499 -17.5zM377.007 300.991c-17.333 0 -31.833 -5.83301 -43.5 -17.5s-17.5 -26.167 -17.5 -43.5
s5.83301 -31.833 17.5 -43.5s26.167 -17.5 43.5 -17.5s31.833 5.83301 43.5 17.5s17.5 26.167 17.5 43.5c0 6 -1.16699 12.667 -3.5 20s-5.83301 14 -10.5 20s-11 11 -19 15s-17.333 6 -28 6z" />
    <glyph glyph-name="A" unicode="A" horiz-adv-x="457" 
d="M366 0c-8.66699 0 -13.333 2.33496 -14 7.00195l-33 130c-1.33301 2.66699 -2.66602 4 -3.99902 4h-177c-2.66699 0 -4.16699 -0.333008 -4.5 -1s-0.833008 -1.33398 -1.5 -2.00098l-32 -131c-0.666992 -4.66699 -5 -7 -13 -7h-54c-5.33301 0 -9.16602 1 -11.499 3
s-2.83301 6 -1.5 12l148 590c0.666992 3.33301 2.16699 6.16602 4.5 8.49902s6.16602 3.5 11.499 3.5h85c8 0 13 -3.33301 15 -10l152 -590c1.33301 -3.33301 1.66602 -7 0.999023 -11s-4 -6 -10 -6h-61zM196.001 402.002l-44.998 -184
c-0.666992 -3.33301 -0.833984 -5.5 -0.500977 -6.5s2.16602 -1.5 5.49902 -1.5h138c3.33301 0 5.33301 0.5 6 1.5s0.666992 3.16699 0 6.5l-44 180l-28 126c-0.666992 2 -1.5 3 -2.5 3s-1.83301 -0.666992 -2.5 -2z" />
    <glyph glyph-name="B" unicode="B" horiz-adv-x="476" 
d="M438 184c0 -27.333 -4.16699 -52.168 -12.5 -74.501s-20.333 -41.666 -36 -57.999s-34.5 -29 -56.5 -38s-46.667 -13.5 -74 -13.5h-193c-8 0 -12 3.66699 -12 11v595c0 7.33301 3.66699 11 11 11h179c54 0 96.833 -13.667 128.5 -41s47.5 -67.333 47.5 -120
c0 -10.667 -1.66699 -21.667 -5 -33s-8 -22.333 -14 -33s-13 -20.667 -21 -30s-16.667 -17.333 -26 -24c-1.33301 -2.66699 -1 -5 1 -7c27.333 -14 48 -34.333 62 -61s21 -54.667 21 -84zM355 180.998c0 14 -1.83203 27.833 -5.49902 41.5s-9.83398 25.667 -18.501 36
s-20 18.833 -34 25.5s-31 10 -51 10h-100c-5.33301 0 -8 -2.66699 -8 -8v-204c0 -6 2.66699 -9 8 -9h111c30.667 0 54.667 10 72 30s26 46 26 78zM337.001 457.998c0 26.667 -7.99902 47.834 -23.999 63.501s-39.333 23.5 -70 23.5h-97c-5.33301 0 -8 -2.66699 -8 -8v-163
c0 -6 2.66699 -9 8 -9h98c31.333 0 54.666 9.16699 69.999 27.5s23 40.166 23 65.499z" />
    <glyph glyph-name="C" unicode="C" horiz-adv-x="430" 
d="M410 551c3.33301 -4 5.00195 -7.49805 5.00195 -10.498s-2.66699 -6.83301 -8 -11.5l-38 -32c-2.66699 -2.66699 -6.16699 -3.5 -10.5 -2.5s-7.83301 3.16699 -10.5 6.5c-12 15.333 -27.667 27.666 -47 36.999s-39.333 14 -60 14c-32 0 -56.5 -9 -73.5 -27
s-25.5 -41.333 -25.5 -70v-291c0 -28 9.33301 -51.167 28 -69.5s44 -27.5 76 -27.5c20.667 0 40 5.16699 58 15.5s32.667 21.166 44 32.499c3.33301 4 6.66602 7.16699 9.99902 9.5s7.66602 1.5 12.999 -2.5l40 -33c2 -1.33301 3.16699 -3.66602 3.5 -6.99902
s-0.166992 -6.33301 -1.5 -9c-20 -26 -44.667 -45.667 -74 -59s-60.333 -20 -93 -20c-26.667 0 -51.5 3.66699 -74.5 11s-42.833 18.166 -59.5 32.499s-29.834 32 -39.501 53s-14.5 45.167 -14.5 72.5v292c0 26 4.5 49.5 13.5 70.5s21.5 38.833 37.5 53.5s35.167 26 57.5 34
s46.833 12 73.5 12c30.667 0 60.334 -5 89.001 -15s55.667 -29.667 81 -59z" />
    <glyph glyph-name="D" unicode="D" horiz-adv-x="492" 
d="M437 186c0 -62 -16.167 -108.501 -48.5 -139.501s-77.833 -46.5 -136.5 -46.5h-179c-8 0 -12 3.66699 -12 11v595c0 7.33301 4 11 12 11h179c60 0 105.833 -15.667 137.5 -47s47.5 -75.666 47.5 -132.999v-251zM353 445.999c0 34.667 -9.83203 59.833 -29.499 75.5
s-45.167 23.5 -76.5 23.5h-93c-6 0 -9 -2.66699 -9 -8v-455c0 -6 2.66699 -9 8 -9h101c33.333 0 58.166 8.83301 74.499 26.5s24.5 42.167 24.5 73.5v273z" />
    <glyph glyph-name="E" unicode="E" horiz-adv-x="440" 
d="M410 12c0 -8 -4 -12 -12 -12h-326c-8 0 -12 3.66699 -12 11v595c0 7.33301 4 11 12 11h322c8.66699 0 13 -3.66699 13 -11v-49c0 -8 -4 -12 -12 -12h-243c-5.33301 0 -8 -2.66699 -8 -8v-171c0 -5.33301 2.33301 -8 7 -8h201c8 0 12 -4 12 -12v-50
c0 -7.33301 -3.66699 -11 -11 -11h-201c-5.33301 0 -8 -3 -8 -9v-194c0 -6 2.33301 -9 7 -9h247c8 0 12 -3.66699 12 -11v-50v0z" />
    <glyph glyph-name="F" unicode="F" horiz-adv-x="402" 
d="M390 556c0 -7.33301 -4 -11 -12 -11h-228c-6 0 -9 -2.66699 -9 -8v-175c0 -5.33301 2.66699 -8 8 -8h195c7.33301 0 11 -4 11 -12v-50c0 -7.33301 -3.66699 -11 -11 -11h-194c-5.33301 0 -8 -3 -8 -9v-260c0 -8 -3.66699 -12 -11 -12h-61c-8 0 -12 3.66699 -12 11v595
c0 7.33301 4 11 12 11h308c8 0 12 -3.33301 12 -10v-51v0z" />
    <glyph glyph-name="G" unicode="G" horiz-adv-x="480" 
d="M427 161c0 -24.667 -4.33398 -47.1631 -13.001 -67.4961s-21 -37.833 -37 -52.5s-35.167 -26.167 -57.5 -34.5s-46.833 -12.5 -73.5 -12.5s-51.5 3.66699 -74.5 11s-42.833 18.166 -59.5 32.499s-29.834 32 -39.501 53s-14.5 45.167 -14.5 72.5v292
c0 26 4.83301 49.5 14.5 70.5s23 38.833 40 53.5s37 26 60 34s47.833 12 74.5 12c32.667 0 64.834 -6.33301 96.501 -19s55.834 -33.334 72.501 -62.001c2.66699 -4.66699 3.5 -8.33398 2.5 -11.001s-3.5 -5.66699 -7.5 -9l-39 -31
c-3.33301 -2.66699 -6.83301 -3.16699 -10.5 -1.5s-7.16699 4.5 -10.5 8.5c-14 19.333 -30.333 32.666 -49 39.999s-36.667 11 -54 11c-36.667 0 -63.5 -10.167 -80.5 -30.5s-25.5 -44.833 -25.5 -73.5v-283c0 -28 9.33301 -51.167 28 -69.5s44 -27.5 76 -27.5
c28.667 0 51.667 8.33301 69 25s26 40 26 70v92c0 5.33301 -2 8 -6 8h-74c-8 0 -12 3.66699 -12 11v51c0 8 4 12 12 12h153c8.66699 0 13 -4 13 -12v-163v0z" />
    <glyph glyph-name="H" unicode="H" horiz-adv-x="522" 
d="M461 12c0 -8 -4 -12 -12 -12h-61c-8 0 -12 3.66699 -12 11v263c0 6 -2.66699 9 -8 9h-213c-5.33301 0 -8 -3 -8 -9v-262c0 -8 -3.66699 -12 -11 -12h-61c-8 0 -12 3.66699 -12 11v595c0 7.33301 3.66699 11 11 11h61c8 0 12 -3.33301 12 -10v-243c0 -6 2.66699 -9 8 -9
h213c5.33301 0 8 3 8 9v242c0 7.33301 3.66699 11 11 11h61c8.66699 0 13 -3.33301 13 -10v-595v0z" />
    <glyph glyph-name="I" unicode="I" horiz-adv-x="241" 
d="M162 12c0 -8 -4 -12 -12 -12h-62c-8 0 -12 3.66699 -12 11v595c0 7.33301 4 11 12 11h62c8 0 12 -3.33301 12 -10v-595v0z" />
    <glyph glyph-name="J" unicode="J" horiz-adv-x="269" 
d="M-10 -63c-1.33301 5.33301 -1.83301 9.66602 -1.5 12.999s4.16602 6.33301 11.499 9c18 7.33301 34.667 15 50 23s28.333 18 39 30s19 26.667 25 44s9 39.333 9 66v482c0 8.66699 5 13 15 13h52c10 0 15 -4.33301 15 -13v-474c0 -31.333 -2.83301 -60 -8.5 -86
s-15.5 -49.333 -29.5 -70s-32.667 -38.5 -56 -53.5s-52.666 -27.5 -87.999 -37.5c-5.33301 -1.33301 -9.5 -1.16602 -12.5 0.500977s-5.5 6.16699 -7.5 13.5z" />
    <glyph glyph-name="K" unicode="K" horiz-adv-x="499" 
d="M445 617c6.66699 0 10.6719 -1.49805 12.0049 -4.49805s0.666016 -6.16699 -2.00098 -9.5l-185 -227c-2.66699 -3.33301 -3.33398 -5.83301 -2.00098 -7.5s3.66602 -2.5 6.99902 -2.5c5.33301 0 10.166 0.166992 14.499 0.5s8.83301 0.166016 13.5 -0.500977
c46 -3.33301 80.167 -19.333 102.5 -48s35.166 -67.667 38.499 -117l15 -191c0 -6.66699 -3.33301 -10 -10 -10h-58c-7.33301 0 -11 3 -11 9l-12 180c-0.666992 10.667 -2.33398 22.667 -5.00098 36s-7.66699 25.666 -15 36.999s-17.666 20.833 -30.999 28.5
s-31.333 11.5 -54 11.5c-38 0 -66.667 -11 -86 -33s-29 -50.667 -29 -86v-173c0 -6.66699 -3 -10 -9 -10h-65c-7.33301 0 -11 3 -11 9v598c0 6.66699 3.66699 10 11 10h65c6 0 9 -3 9 -9v-248c0 -6 1.33301 -8.66699 4 -8s5 2 7 4l207 254c4 4.66699 8.66699 7 14 7h65z" />
    <glyph glyph-name="L" unicode="L" horiz-adv-x="426" 
d="M407 12c0 -8 -3.66699 -12 -11 -12h-318c-8 0 -12 3.66699 -12 11v595c0 7.33301 3.66699 11 11 11h61c7.33301 0 11 -3.33301 11 -10v-525c0 -6 2.66699 -9 8 -9h238c8 0 12 -3.66699 12 -11v-50v0z" />
    <glyph glyph-name="M" unicode="M" horiz-adv-x="627" 
d="M577 12c0 -8 -3.66602 -12 -10.999 -12h-57c-7.33301 0 -11 3.66699 -11 11v388c0 1.33301 -0.5 2.16602 -1.5 2.49902s-1.83301 -0.166992 -2.5 -1.5l-42 -117l-97 -249c-1.33301 -2 -3.33301 -4.83301 -6 -8.5s-7 -5.5 -13 -5.5h-39
c-5.33301 0 -9.5 0.833008 -12.5 2.5s-5.5 5.16699 -7.5 10.5l-92 242l-43 122c-2 2 -3 2 -3 0v-385c0 -8 -3.66699 -12 -11 -12h-56c-8 0 -12 3.66699 -12 11v587c0 12.667 6 19 18 19h39c9.33301 0 15 -0.833008 17 -2.5s4.66699 -5.83398 8 -12.501l134 -358l38 -110
c3.33301 -5.33301 6.33301 -5.66602 9 -0.999023c6.66699 18 13.167 36.833 19.5 56.5s12.833 38.5 19.5 56.5l133 357c3.33301 5.33301 6.5 9 9.5 11s7.83301 3 14.5 3h40c7.33301 0 12.166 -1.66699 14.499 -5s3.5 -7.66602 3.5 -12.999v-587v0z" />
    <glyph glyph-name="N" unicode="N" horiz-adv-x="519" 
d="M118 617c8 0 13.6689 -1.5 17.002 -4.5s6.66602 -6.83301 9.99902 -11.5l233 -429c0.666992 -1.33301 1.33398 -2.16602 2.00098 -2.49902s1 0.166992 1 1.5v435c0 7.33301 3.66699 11 11 11h56c8 0 12 -3.33301 12 -10v-587c0 -8.66699 -2.16699 -14.167 -6.5 -16.5
s-8.5 -3.5 -12.5 -3.5h-38c-7.33301 0 -12.833 1.16699 -16.5 3.5s-6.83398 6.16602 -9.50098 11.499l-233 428c-2 2 -3 2 -3 0v-431c0 -8 -3.66699 -12 -11 -12h-57c-8 0 -12 3.66699 -12 11v581c0 8.66699 1.16699 15 3.5 19s8.16602 6 17.499 6h36z" />
    <glyph glyph-name="O" unicode="O" horiz-adv-x="497" 
d="M439 165c0 -27.333 -4.83301 -51.501 -14.5 -72.501s-23 -38.833 -40 -53.5s-37 -25.834 -60 -33.501s-48.167 -11.5 -75.5 -11.5s-52.5 3.66699 -75.5 11s-43.167 18.166 -60.5 32.499s-30.833 32.166 -40.5 53.499s-14.5 46 -14.5 74v290c0 26.667 5 50.5 15 71.5
s23.5 38.833 40.5 53.5s37 25.834 60 33.501s47.833 11.5 74.5 11.5c26 0 50.5 -3.66699 73.5 -11s43.333 -18.166 61 -32.499s31.5 -32.166 41.5 -53.499s15 -45.666 15 -72.999v-290zM355 452.999c0 28.667 -9.66699 52.333 -29 71s-45 28 -77 28
c-32.667 0 -58.667 -9.5 -78 -28.5s-29 -42.5 -29 -70.5v-286c0 -30 9.16699 -54.167 27.5 -72.5s44.5 -27.5 78.5 -27.5c33.333 0 59.5 9.16699 78.5 27.5s28.5 42.5 28.5 72.5v286z" />
    <glyph glyph-name="P" unicode="P" horiz-adv-x="458" 
d="M434 434c0 -24.667 -4.66504 -48.0029 -13.998 -70.0029s-22.333 -41.167 -39 -57.5s-36.334 -29.166 -59.001 -38.499s-47.334 -14 -74.001 -14h-92c-5.33301 0 -8 -3 -8 -9v-233c0 -8 -4 -12 -12 -12h-60c-8 0 -12 3.66699 -12 11v595c0 7.33301 4 11 12 11h171
c29.333 0 55.5 -4.66699 78.5 -14s42.5 -22.166 58.5 -38.499s28.333 -35.666 37 -57.999s13 -46.5 13 -72.5zM156.002 544.997c-6 0 -9 -2.66602 -9 -7.99902v-203c0 -6 2.66699 -9 8 -9h92c31.333 0 56.5 9.83301 75.5 29.5s28.5 46.5 28.5 80.5
c0 12.667 -2.16699 25.667 -6.5 39s-10.833 25.166 -19.5 35.499s-19.5 18.833 -32.5 25.5s-28.167 10 -45.5 10h-91z" />
    <glyph glyph-name="Q" unicode="Q" horiz-adv-x="497" 
d="M439 165c0 -46 -13.1641 -83.834 -39.4971 -113.501s-61.166 -47.5 -104.499 -53.5c-6 -0.666992 -9 -5 -9 -13c0 -14.667 3 -25.834 9 -33.501s16.667 -11.5 32 -11.5c7.33301 0 17.166 1.33301 29.499 4s23.166 6 32.499 10c6.66699 3.33301 11.667 4.66602 15 3.99902
s5.66602 -3.66699 6.99902 -9l15 -34c1.33301 -4.66699 1.66602 -8.66699 0.999023 -12s-4 -6.66602 -10 -9.99902c-15.333 -8.66699 -31.5 -14.834 -48.5 -18.501s-31.833 -5.5 -44.5 -5.5c-40 0 -69.667 10.167 -89 30.5s-29 49.5 -29 87.5c0 3.33301 -1.16699 6 -3.5 8
s-4.16602 3.33301 -5.49902 4c-20 4.66699 -38.333 11.667 -55 21s-31.334 20.833 -44.001 34.5s-22.5 29.667 -29.5 48s-10.5 39.166 -10.5 62.499v290c0 26.667 5 50.5 15 71.5s23.5 38.833 40.5 53.5s37 25.834 60 33.501s47.833 11.5 74.5 11.5
c26 0 50.5 -3.66699 73.5 -11s43.333 -18.166 61 -32.499s31.5 -32.166 41.5 -53.499s15 -45.666 15 -72.999v-290zM355.003 452.999c0 28.667 -9.66699 52.333 -29 71s-45 28 -77 28c-32.667 0 -58.667 -9.5 -78 -28.5s-29 -42.5 -29 -70.5v-286
c0 -30 9.16699 -54.167 27.5 -72.5s44.5 -27.5 78.5 -27.5c33.333 0 59.5 9.16699 78.5 27.5s28.5 42.5 28.5 72.5v286z" />
    <glyph glyph-name="R" unicode="R" horiz-adv-x="483" 
d="M437 444c0 -17.333 -2.66699 -34.335 -8 -51.002s-12.5 -32.5 -21.5 -47.5s-19 -28.667 -30 -41s-21.833 -23.166 -32.5 -32.499c-3.33301 -2 -4.33301 -4.33301 -3 -7c0.666992 -1.33301 1.83398 -3.83301 3.50098 -7.5l13.5 -29l33.5 -71.5l63.5 -135
c4 -8.66699 4.16699 -14.5 0.5 -17.5s-7.5 -4.5 -11.5 -4.5h-52c-10.667 0 -17.834 1.66699 -21.501 5s-7.16699 8.33301 -10.5 15l-102 225c-1.33301 2.66699 -3 4.83398 -5 6.50098s-5.33301 2.5 -10 2.5h-88c-5.33301 0 -8 -3 -8 -9v-233c0 -8 -4 -12 -12 -12h-60
c-8 0 -12 3.66699 -12 11v595c0 7.33301 4 11 12 11h176c62.667 0 109.167 -15.667 139.5 -47s45.5 -73.333 45.5 -126zM156 544.998c-6 0 -9.00098 -2.66699 -9.00098 -8v-203c0 -6 2.66699 -9 8 -9h122c3.33301 0 6.33301 0.5 9 1.5s5 2.16699 7 3.5
c18 12.667 32.333 29.334 43 50.001s16 39 16 55c0 12.667 -1.5 25.667 -4.5 39s-8.66699 25.166 -17 35.499s-19.666 18.833 -33.999 25.5s-32.833 10 -55.5 10h-85z" />
    <glyph glyph-name="S" unicode="S" horiz-adv-x="453" 
d="M207 68c38 0 69 8.49805 93 25.498s36 42.5 36 76.5c0 16.667 -3.5 30.834 -10.5 42.501s-16 21.5 -27 29.5s-23.333 14.833 -37 20.5s-27.167 10.834 -40.5 15.501c-19.333 6.66699 -39.666 14.334 -60.999 23.001s-40.833 19.667 -58.5 33s-32.334 29.833 -44.001 49.5
s-17.5 43.5 -17.5 71.5c0 26.667 4.66699 50.5 14 71.5s22.166 38.833 38.499 53.5s35.5 25.834 57.5 33.501s45.667 11.5 71 11.5c24 0 51 -3 81 -9s59.333 -19.667 88 -41c6 -4.66699 8 -8.83398 6 -12.501s-3.66699 -6.83398 -5 -9.50098l-24 -38
c-3.33301 -4.66699 -7.33301 -6.66699 -12 -6s-9 2.33398 -13 5.00098c-22.667 13.333 -42.667 22.833 -60 28.5s-34.666 8.5 -51.999 8.5c-14.667 0 -28.5 -1.66699 -41.5 -5s-24.333 -8.83301 -34 -16.5s-17.334 -17.667 -23.001 -30s-8.5 -27.833 -8.5 -46.5
c0 -13.333 3.5 -25 10.5 -35s16.167 -18.833 27.5 -26.5s24 -14.5 38 -20.5s28 -11.667 42 -17l65 -26.5c21.333 -9 40.333 -20.167 57 -33.5s30.167 -29.666 40.5 -48.999s15.5 -44 15.5 -74c0 -27.333 -5.16699 -51.833 -15.5 -73.5s-24.833 -40 -43.5 -55
s-41 -26.667 -67 -35s-54.333 -12.5 -85 -12.5c-38 0 -73.5 6.5 -106.5 19.5s-58.5 32.167 -76.5 57.5c-6 6.66699 -4.66699 13.334 4 20.001l37 34c4 3.33301 7.5 4.16602 10.5 2.49902s6.83301 -4.83398 11.5 -9.50098c15.333 -16.667 33.333 -29.334 54 -38.001
s42.334 -13 65.001 -13z" />
    <glyph glyph-name="T" unicode="T" horiz-adv-x="417" 
d="M402 556c0 -7.33301 -4 -11 -12 -11h-132c-6 0 -9 -2.66699 -9 -8v-525c0 -8 -3.66699 -12 -11 -12h-61c-8 0 -12 3.66699 -12 11v525c0 6 -2.66699 9 -8 9h-130c-8 0 -12 3.66699 -12 11v50c0 7.33301 4 11 12 11h363c8 0 12 -3.33301 12 -10v-51v0z" />
    <glyph glyph-name="U" unicode="U" horiz-adv-x="498" 
d="M440 160c0 -26.667 -5.16895 -50.335 -15.502 -71.002s-24.333 -38 -42 -52s-38 -24.667 -61 -32s-47.167 -11 -72.5 -11s-49.666 3.66699 -72.999 11s-43.666 18 -60.999 32s-31.166 31.333 -41.499 52s-15.5 44.334 -15.5 71.001v446c0 7.33301 3.66699 11 11 11h62
c7.33301 0 11 -3.33301 11 -10v-447c0 -27.333 10.167 -49.666 30.5 -66.999s45.5 -26 75.5 -26c33.333 0 59.666 9 78.999 27s29 41 29 69v443c0 7.33301 4 11 12 11h60c8 0 12 -3.33301 12 -10v-447v0z" />
    <glyph glyph-name="V" unicode="V" horiz-adv-x="445" 
d="M274 9c-2 -6 -6.66797 -9 -14.001 -9h-68c-7.33301 -0 -12.333 3.33301 -15 10l-166 590c-1.33301 4.66699 -1 8.66699 1 12s6 5 12 5h62c7.33301 0 12 -3 14 -9l87 -346l38 -160c1.33301 -4 2.66602 -4 3.99902 0l36 160l86 346c2.66699 6 7.33398 9 14.001 9h58
c9.33301 0 14.333 -2.33301 15 -7s0.333984 -8.66699 -0.999023 -12z" />
    <glyph glyph-name="W" unicode="W" horiz-adv-x="666" 
d="M523 9c-1.33301 -2 -2.99902 -3.99707 -4.99902 -5.99707s-4 -3 -6 -3h-74c-6 0 -9.66699 2.66699 -11 8l-69 328l-23 121c0 1.33301 -0.666992 1.33301 -2 0l-23 -123l-65 -327c-2 -4.66699 -6 -7 -12 -7h-72c-6 0 -10 2 -12 6l-140 597
c-0.666992 3.33301 -0.166992 6.5 1.5 9.5s5.16699 4.5 10.5 4.5h65c5.33301 0 8.5 -1.33301 9.5 -4s1.83301 -5.66699 2.5 -9l69 -318l29 -148c1.33301 -3.33301 3 -3.33301 5 0c4 23.333 8.33301 47.166 13 71.499s9 48.166 13 71.499l66 329
c0.666992 1.33301 1.83398 2.83301 3.50098 4.5s5.16699 2.5 10.5 2.5h57c7.33301 0 12 -3.33301 14 -10l69 -325l28 -144c0 -2 0.666992 -2.83301 2 -2.5s2.33301 1.16602 3 2.49902l28 147l67 322c1.33301 6.66699 5.66602 10 12.999 10h59
c7.33301 0 11.666 -1.83301 12.999 -5.5s1.33301 -7.5 0 -11.5z" />
    <glyph glyph-name="X" unicode="X" horiz-adv-x="451" 
d="M234 233c-0.666992 2 -2.17285 3.50098 -4.50586 4.50098s-4.16602 -0.166992 -5.49902 -3.5l-111 -223c-3.33301 -5.33301 -6.5 -8.5 -9.5 -9.5s-7.16699 -1.5 -12.5 -1.5h-62c-11.333 0 -14.333 5.33301 -9 16l154 294c3.33301 7.33301 4.33301 12.666 3 15.999
s-2.66602 6.33301 -3.99902 9l-140 268c-5.33301 9.33301 -1.66602 14 11.001 14h66c6 0 10.333 -0.833008 13 -2.5s5 -4.5 7 -8.5l97 -200c2.66699 -2.66699 5.33398 -2.66699 8.00098 0l50 99.5l49 100.5c2 4 4.33301 6.83301 7 8.5s7 2.5 13 2.5h60
c10.667 0 14.334 -4.66699 11.001 -14l-71.5 -136l-71.5 -136c-3.33301 -8 -3.33301 -14.667 0 -20l37.5 -71.5l40 -76l40.5 -76l38 -71.5c5.33301 -10.667 2.33301 -16 -9 -16h-62c-5.33301 0 -9.66602 0.5 -12.999 1.5s-6.33301 4.16699 -9 9.5z" />
    <glyph glyph-name="Y" unicode="Y" horiz-adv-x="435" 
d="M264 245c-3.33301 -7.33301 -5 -15.334 -5 -24.001v-209c0 -8 -4 -12 -12 -12h-60c-8 0 -12 3.66699 -12 11v212c0 8 -1.33301 14.667 -4 20l-154 357c-4.66699 11.333 -1.33398 17 9.99902 17h57c10.667 0 17.667 -3.66699 21 -11l108 -274
c3.33301 -5.33301 6.33301 -5.66602 9 -0.999023l54 136.5l53 136.5c2.66699 5.33301 5.33398 8.83301 8.00098 10.5s7.66699 2.5 15 2.5h55c7.33301 0 11.5 -1.5 12.5 -4.5s0.5 -6.83301 -1.5 -11.5z" />
    <glyph glyph-name="Z" unicode="Z" horiz-adv-x="420" 
d="M390 12c0 -8 -4 -11.999 -12 -11.999h-325c-6.66699 0 -11.5 1.66699 -14.5 5s-4.5 7 -4.5 11v32c0 9.33301 2.33301 18.666 7 27.999l239 457c4.66699 8 2.33398 12 -6.99902 12h-212c-8 0 -12 3.66699 -12 11v50c0 7.33301 4 11 12 11h301
c8.66699 0 14.5 -1.5 17.5 -4.5s4.5 -7.5 4.5 -13.5v-29c0 -6.66699 -1.5 -14 -4.5 -22s-5.83301 -14.333 -8.5 -19l-231 -444c-4.66699 -8 -2.66699 -12 6 -12h232c3.33301 0 6.16602 -1 8.49902 -3s3.5 -4.66699 3.5 -8v-50v0z" />
    <glyph glyph-name="bracketleft" unicode="[" horiz-adv-x="326" 
d="M269 -138c0 -6 -3 -9 -9 -9h-148c-6 0 -9 3 -9 9v812c0 6.66699 3 10 9 10h147c6.66699 0 10 -3.33301 10 -10v-50c0 -6 -3 -9 -9 -9h-66c-7.33301 0 -11 -3.66699 -11 -11v-672c0 -6.66699 3.33301 -10 10 -10h66c6.66699 0 10 -3 10 -9v-51v0z" />
    <glyph glyph-name="backslash" unicode="\" horiz-adv-x="303" 
d="M297 -52c3.33301 -9.33301 0.332031 -14 -9.00098 -14h-31c-8 0 -13.667 4 -17 12l-235 717c-1.33301 4 -1 7 1 9s4.66699 3 8 3h29c10.667 0 17.334 -4 20.001 -12l234 -715v0z" />
    <glyph glyph-name="bracketright" unicode="]" horiz-adv-x="317" 
d="M215 -139c0 -6 -3 -9 -9 -9h-148c-6 0 -9 3 -9 9v50c0 6 3 9 9 9h66c7.33301 0 11 3.66699 11 11v672c0 6.66699 -3.66699 10 -11 10h-66c-6 0 -9 3.33301 -9 10v50c0 6.66699 3 10 9 10h147c6.66699 0 10 -3.33301 10 -10v-812v0z" />
    <glyph glyph-name="asciicircum" unicode="^" horiz-adv-x="548" 
d="M463 416c4 -5.33301 5.00195 -9.49902 3.00195 -12.499s-5 -6.16699 -9 -9.5l-22 -17c-4 -3.33301 -11 0 -21 10l-138 149c-1.33301 1.33301 -2.5 2.83301 -3.5 4.5s-2.5 2.5 -4.5 2.5s-3.5 -0.5 -4.5 -1.5s-2.5 -2.83301 -4.5 -5.5l-126 -151
c-4 -5.33301 -7.83301 -9 -11.5 -11s-7.83398 -1.66699 -12.501 1l-27 17c-3.33301 1.33301 -5.33301 4.16602 -6 8.49902s0.666016 8.5 3.99902 12.5l151 204c2.66699 3.33301 5 5.83301 7 7.5s6.33301 2.5 13 2.5h46c5.33301 0 8.83301 -0.5 10.5 -1.5
s4.16699 -3.83301 7.5 -8.5l148 -201v0z" />
    <glyph glyph-name="underscore" unicode="_" horiz-adv-x="500" 
d="M500 -134c0 -6.66699 -3 -10 -9 -10h-482c-6.66699 0 -10 3 -10 9v41c0 6 3.33301 9 10 9h481c6.66699 0 10 -3 10 -9v-40v0z" />
    <glyph glyph-name="grave" unicode="`" horiz-adv-x="438" 
d="M120 601c-2.66699 2.66699 -4.33301 6.00098 -5 10.001s1.66602 8 6.99902 12l44 29c4 2.66699 7.83301 2.66699 11.5 0s6.5 -5.66699 8.5 -9l76 -127c4.66699 -7.33301 3.33398 -13.333 -3.99902 -18l-19 -12c-3.33301 -2.66699 -7 -3.33398 -11 -2.00098
s-7.33301 3.33301 -10 6z" />
    <glyph glyph-name="a" unicode="a" horiz-adv-x="438" 
d="M40 147c0 21.333 3.49902 41.3291 10.499 59.9961s17.333 34.834 31 48.501s30.5 24.5 50.5 32.5s43.333 12 70 12c29.333 0 55.666 -6.33301 78.999 -19c4.66699 -2.66699 8.83398 -3.5 12.501 -2.5s5.5 4.5 5.5 10.5v9c0 26.667 -6.83301 46.334 -20.5 59.001
s-36.5 19 -68.5 19c-6 0 -13.667 -0.666992 -23 -2s-18.833 -3 -28.5 -5s-19.167 -4.5 -28.5 -7.5s-17 -6.16699 -23 -9.5c-7.33301 -3.33301 -12.333 -1.33301 -15 6l-17 44c-2 6.66699 -0.333008 11 5 13c18 9.33301 39.667 16.666 65 21.999s50 8 74 8
c30.667 0 56.334 -3.66699 77.001 -11s37.167 -18 49.5 -32s21 -30.833 26 -50.5s7.5 -41.5 7.5 -65.5v-276c0 -6.66699 -3 -10 -9 -10h-55c-6 0 -9 2.66699 -9 8v18c0 4.66699 -1.33301 7.33398 -4 8.00098s-5.66699 -0.666016 -9 -3.99902
c-13.333 -13.333 -28.5 -22.666 -45.5 -27.999s-35.167 -8 -54.5 -8c-50 0 -88 14 -114 42s-39 65 -39 111zM114.999 148.996c0 -24.667 7.33105 -45.5 21.998 -62.5s37.334 -25.5 68.001 -25.5c27.333 0 49 8.33301 65 25s24 37.667 24 63
c0 24.667 -7.16699 45.5 -21.5 62.5s-37.166 25.5 -68.499 25.5c-27.333 0 -49 -8.33301 -65 -25s-24 -37.667 -24 -63z" />
    <glyph glyph-name="b" unicode="b" horiz-adv-x="451" 
d="M407 160c0 -48.667 -14.332 -88.3311 -42.999 -118.998s-70.334 -46 -125.001 -46c-24 0 -43.333 3.66699 -58 11s-26.667 14.666 -36 21.999c-4.66699 3.33301 -8.66699 4.66602 -12 3.99902s-5 -3.33398 -5 -8.00098v-14c0 -6.66699 -3.66699 -10 -11 -10h-53
c-6.66699 0 -10 3 -10 9v618c0 6.66699 3.33301 10 10 10h61c6 0 9 -3 9 -9v-208c0 -4 1.66699 -7.16699 5 -9.5s7.33301 -1.5 12 2.5c8 6.66699 19.5 13.334 34.5 20.001s35.833 10 62.5 10c28 0 52.167 -4.5 72.5 -13.5s36.833 -21.333 49.5 -37s22 -33.5 28 -53.5
s9 -41 9 -63v-116zM327.001 276.003c0 27.333 -7.33301 50.666 -22 69.999s-39.334 29 -74.001 29c-28.667 0 -52 -9.66699 -70 -29s-27 -42.666 -27 -69.999v-116c0 -27.333 8.83301 -50.5 26.5 -69.5s40.834 -28.5 69.501 -28.5c35.333 0 60.333 9.33301 75 28
s22 42 22 70v116z" />
    <glyph glyph-name="c" unicode="c" horiz-adv-x="402" 
d="M375 368c2.66699 -3.33301 3.66699 -7.16406 3 -11.4971s-3 -7.83301 -7 -10.5l-35 -27c-8.66699 -6 -16.334 -4 -23.001 6c-11.333 16.667 -25.166 29.167 -41.499 37.5s-33.833 12.5 -52.5 12.5c-28.667 0 -51.5 -8.83301 -68.5 -26.5s-25.5 -40.5 -25.5 -68.5v-124
c0 -27.333 8.83301 -49.5 26.5 -66.5s41.167 -25.5 70.5 -25.5c26 0 46.667 5.66699 62 17s29 24.666 41 39.999c3.33301 4 8.33301 3.66699 15 -1l33 -24c6.66699 -4 10.334 -7.83301 11.001 -11.5s-0.333008 -7.16699 -3 -10.5c-20 -30 -43.833 -50.833 -71.5 -62.5
s-56.5 -17.5 -86.5 -17.5c-54 0 -97.167 14.667 -129.5 44s-48.5 69.666 -48.5 120.999v115c0 26.667 4.5 50.667 13.5 72s21.333 39.166 37 53.499s34.167 25.333 55.5 33s44.666 11.5 69.999 11.5c64.667 -0.666992 116 -26 154 -76z" />
    <glyph glyph-name="d" unicode="d" horiz-adv-x="451" 
d="M399 9c0 -6 -3.00098 -9.00098 -9.00098 -9.00098h-54c-6.66699 0 -10 3.33301 -10 10v14c0 4 -1.83301 6.66699 -5.5 8s-7.5 0.333008 -11.5 -3c-8.66699 -7.33301 -22 -14.833 -40 -22.5s-39 -11.5 -63 -11.5c-48.667 0 -87.5 14 -116.5 42s-43.5 69 -43.5 123v116
c0 22.667 3.66699 44.167 11 64.5s18 38 32 53s30.833 27 50.5 36s41.834 13.5 66.501 13.5c26.667 0 47.667 -3.66699 63 -11s26.333 -13.666 33 -18.999c5.33301 -4 9.33301 -5 12 -3s4 5.33301 4 10v207c0 6.66699 3.33301 10 10 10h61c6.66699 0 10 -3 10 -9v-619z
M318.999 275.999c0 27.333 -7.66895 50.5 -23.002 69.5s-39.666 28.5 -72.999 28.5c-34.667 0 -59.5 -9.5 -74.5 -28.5s-22.5 -42.167 -22.5 -69.5v-116c0 -28 7.83301 -51.167 23.5 -69.5s38.834 -27.5 69.501 -27.5c28 0 51.5 9.33301 70.5 28s28.5 41.667 28.5 69z" />
    <glyph glyph-name="e" unicode="e" horiz-adv-x="438" 
d="M399 225c0 -7.33301 -2.16699 -13.1699 -6.5 -17.5029s-8.83301 -6.5 -13.5 -6.5h-234c-5.33301 0 -9.66602 -1.66699 -12.999 -5s-5 -7.66602 -5 -12.999v-19c0 -13.333 1.66699 -26.166 5 -38.499s8.83301 -23 16.5 -32s17.667 -16.167 30 -21.5s27.166 -8 44.499 -8
c20 0 38.167 4.66699 54.5 14s30.166 21.666 41.499 36.999c5.33301 7.33301 12 8.33301 20 3l35 -24c8 -5.33301 10.667 -10.666 8 -15.999c-16 -29.333 -38 -50.666 -66 -63.999s-58.333 -20 -91 -20c-54 0 -97.167 14.833 -129.5 44.5s-48.5 69.5 -48.5 119.5v114
c0 25.333 4.33301 48.666 13 69.999s20.834 39.666 36.501 54.999s34.167 27.166 55.5 35.499s45 12.5 71 12.5c26.667 0 50.834 -4.16699 72.501 -12.5s40.167 -20.166 55.5 -35.499s27.166 -33.666 35.499 -54.999s12.5 -44.666 12.5 -69.999v-47zM223 375.996
c-28 0 -50.667 -8.99902 -68 -26.999s-26 -39.667 -26 -65v-7c0 -2.66699 1 -5.33398 3 -8.00098s6 -4 12 -4h164c6.66699 0 10 3.66699 10 11v9c0 25.333 -8 46.833 -24 64.5s-39.667 26.5 -71 26.5z" />
    <glyph glyph-name="f" unicode="f" horiz-adv-x="274" 
d="M271 571c-1.33301 -3.33301 -3 -5.49902 -5 -6.49902s-5.66699 -0.833008 -11 0.5c-8 2 -15.333 3.33301 -22 4s-13.334 1 -20.001 1c-20 0 -34 -6.33301 -42 -19s-12 -27.334 -12 -44.001v-58c0 -6.66699 3.66699 -10 11 -10h83c6.66699 0 10 -3.33301 10 -10v-49
c0 -6 -3.33301 -9 -10 -9h-84c-6.66699 0 -10 -3.33301 -10 -10v-352c0 -6 -3.33301 -9 -10 -9h-60c-3.33301 0 -5.66602 1 -6.99902 3s-2 4 -2 6v350c0 8 -3.33301 12 -10 12h-44c-5.33301 0 -8 3.33301 -8 10v49c0 6 3.33301 9 10 9h41c7.33301 0 11 3.33301 11 10v67
c0 17.333 2.66699 33.666 8 48.999s13.166 28.833 23.499 40.5s23 20.834 38 27.501s32.5 10 52.5 10c13.333 0 25.333 -0.5 36 -1.5s21.667 -3.16699 33 -6.5c5.33301 -1.33301 8.83301 -3 10.5 -5s1.83398 -5.66699 0.500977 -11z" />
    <glyph glyph-name="g" unicode="g" horiz-adv-x="438" 
d="M283 -141c16.667 10 30.8369 21.6631 42.5039 34.9961s17.5 26.666 17.5 39.999c0 12 -3.66699 22 -11 30s-16.5 14.333 -27.5 19s-23.333 8 -37 10s-26.834 3 -39.501 3c-21.333 0 -45.5 -1.66699 -72.5 -5s-52.833 -7 -77.5 -11c-8 -1.33301 -13.5 -1 -16.5 1
s-5.83301 4.66699 -8.5 8c-6 8.66699 -10.5 18.667 -13.5 30s-4.5 23.333 -4.5 36c0 18.667 6.5 36.5 19.5 53.5s28.5 30.5 46.5 40.5c2 1.33301 3 2.83301 3 4.5s-1 3.16699 -3 4.5l-4 2c-20.667 13.333 -37.334 30.833 -50.001 52.5s-19 46.834 -19 75.501
c0 22 4.66699 42.5 14 61.5s21.833 35.667 37.5 50s33.834 25.5 54.501 33.5s42.667 12 66 12c22 0 43 -3.33301 63 -10s37.667 -16 53 -28c3.33301 -2.66699 6.66602 -2.66699 9.99902 0c12.667 10.667 26.834 19.167 42.501 25.5s31.5 9.5 47.5 9.5
c9.33301 0.666992 14 -4.33301 14 -15v-51c0 -5.33301 -0.833008 -8.66602 -2.5 -9.99902s-5.83398 -1.66602 -12.501 -0.999023c-17.333 2.66699 -33 1.33398 -47 -3.99902c-5.33301 -0.666992 -7 -3.33398 -5 -8.00098c11.333 -19.333 17 -41 17 -65
c0 -23.333 -4.83301 -44.666 -14.5 -63.999s-22.667 -36 -39 -50s-35.333 -24.833 -57 -32.5s-44.834 -11.5 -69.501 -11.5c-10 0 -17.667 -0.666992 -23 -2c-17.333 -4 -32.5 -13.333 -45.5 -28s-20.167 -28 -21.5 -40c0 -5.33301 2.33301 -7 7 -5
c18.667 4.66699 38.667 7.83398 60 9.50098s37.666 2.5 48.999 2.5c22.667 0 45.834 -2 69.501 -6s45.167 -11 64.5 -21s35 -23.333 47 -40s18 -37.667 18 -63c0 -14.667 -3 -28.834 -9 -42.501s-14 -26.5 -24 -38.5s-21.333 -22.667 -34 -32
s-25.334 -16.666 -38.001 -21.999c-8.66699 -4.66699 -15.667 -2.66699 -21 6l-22 34c-4 6 -2 11.667 6 17zM298.003 283.996c0 24.667 -8.5 46.167 -25.5 64.5s-39.167 27.5 -66.5 27.5c-30 0 -53.833 -9.16699 -71.5 -27.5s-26.5 -39.833 -26.5 -64.5
c0 -24 8 -45.167 24 -63.5s38.667 -27.5 68 -27.5c31.333 0 55.5 8.83301 72.5 26.5s25.5 39.167 25.5 64.5z" />
    <glyph glyph-name="h" unicode="h" horiz-adv-x="466" 
d="M410 10c0 -6.66699 -3.00195 -10.001 -9.00195 -10.001h-62c-6 0 -9 3 -9 9v267c0 28.667 -7.5 52.167 -22.5 70.5s-39.5 27.5 -73.5 27.5c-29.333 0 -52.666 -9.16699 -69.999 -27.5s-26 -41.5 -26 -69.5v-267c0 -6.66699 -3.33301 -10 -10 -10h-61
c-6.66699 0 -10 3 -10 9v618c0 6.66699 3 10 9 10h62c6 0 9 -3.33301 9 -10v-211c0 -5.33301 1.66699 -8.5 5 -9.5s6.66602 0.166992 9.99902 3.5c14.667 10.667 30.834 18.834 48.501 24.501s35.834 8.5 54.501 8.5c50 0 88.333 -15.167 115 -45.5s40 -70.5 40 -120.5v-267
v0z" />
    <glyph glyph-name="i" unicode="i" horiz-adv-x="203" 
d="M154 576c0 -13.333 -5 -25 -15 -35s-22 -15 -36 -15s-25.833 4.66699 -35.5 14s-14.5 21.333 -14.5 36c0 13.333 4.83301 24.833 14.5 34.5s21.167 14.5 34.5 14.5c14.667 0 27 -4.66699 37 -14s15 -21 15 -35zM61 428c0 6.66699 3 10 9 10h62
c6.66699 0 10 -3.33301 10 -10v-419c0 -6 -3 -9 -9 -9h-62c-6.66699 0 -10 3 -10 9v419z" />
    <glyph glyph-name="j" unicode="j" horiz-adv-x="219" 
d="M166 576c0 -13.333 -5 -25 -15 -35s-22 -15 -36 -15s-25.833 4.66699 -35.5 14s-14.5 21.333 -14.5 36c0 13.333 4.83301 24.833 14.5 34.5s21.167 14.5 34.5 14.5c14.667 0 27 -4.66699 37 -14s15 -21 15 -35zM-13 -115c1.33301 6.66699 7.00195 8.99902 17.002 6.99902
c4.66699 -0.666992 9 -1.16699 13 -1.5s7.66699 -0.5 11 -0.5c18 0.666992 30.5 6.33398 37.5 17.001s10.5 25.667 10.5 45v477c0 6 3.33301 9 10 9h60c3.33301 0 5.66602 -1 6.99902 -3s2 -4 2 -6v-486c0 -17.333 -2.16699 -33.666 -6.5 -48.999s-11 -28.833 -20 -40.5
s-21 -20.834 -36 -27.501s-32.833 -10 -53.5 -10c-22.667 0 -39.334 1.33301 -50.001 4c-4.66699 1.33301 -8 3 -10 5s-2.33301 5.66699 -1 11z" />
    <glyph glyph-name="k" unicode="k" horiz-adv-x="437" 
d="M414 17c0 -11.333 -4.66797 -17.0029 -14.001 -17.0029h-53c-9.33301 0 -14 4.66699 -14 14l-5 93c-0.666992 12.667 -2.5 24.834 -5.5 36.501s-8 22 -15 31s-16.5 16 -28.5 21s-27 7.5 -45 7.5c-31.333 0 -55.166 -9.33301 -71.499 -28s-24.5 -41 -24.5 -67v-98
c0 -6.66699 -3.33301 -10 -10 -10h-61c-6.66699 0 -10 3 -10 9v618c0 6.66699 3 10 9 10h62c6 0 9 -3 9 -9v-354c0 -7.33301 1.66699 -11.666 5 -12.999s6.66602 -0.333008 9.99902 3l155 169c3.33301 3.33301 8 5 14 5h74c7.33301 0 11 -3 11 -9
c0 -1.33301 -0.5 -2.83301 -1.5 -4.5s-2.16699 -3.16699 -3.5 -4.5l-132 -142c-4 -4.66699 -2.66699 -8 4 -10c4.66699 -0.666992 9.16699 -1.16699 13.5 -1.5s8.5 -1.16602 12.5 -2.49902c40.667 -9.33301 68.834 -28 84.501 -56s24.5 -61.333 26.5 -100l4 -91v0z" />
    <glyph glyph-name="l" unicode="l" horiz-adv-x="221" 
d="M63 627c0 6.66699 2.99902 9.99805 8.99902 9.99805h61c6.66699 0 10 -3 10 -9v-504c0 -23.333 3.33301 -38.333 10 -45s18 -10 34 -10h13c4.66699 0 7.33398 -1.66699 8.00098 -5s1 -6.66602 1 -9.99902v-47c0 -7.33301 -3.33301 -11.666 -10 -12.999
c-4 -1.33301 -8.83301 -2 -14.5 -2h-13.5c-22.667 0 -41 2.83301 -55 8.5s-25 14 -33 25s-13.333 24.833 -16 41.5s-4 36 -4 58v502v0z" />
    <glyph glyph-name="m" unicode="m" horiz-adv-x="703" 
d="M651 10c0 -6.66699 -2.99805 -9.99902 -8.99805 -9.99902h-62c-6 0 -9 3 -9 9v268c0 26 -7.33301 48.833 -22 68.5s-37.334 29.5 -68.001 29.5c-12.667 0 -24.5 -2.83301 -35.5 -8.5s-20.5 -13 -28.5 -22s-14.167 -19.333 -18.5 -31s-6.5 -23.834 -6.5 -36.501v-267
c0 -6.66699 -3 -10 -9 -10h-61c-6.66699 0 -10 3 -10 9v268c0 26 -7 48.833 -21 68.5s-36.333 29.5 -67 29.5c-14.667 0 -27.667 -2.66699 -39 -8s-20.666 -12.5 -27.999 -21.5s-13 -19.5 -17 -31.5s-6 -24.333 -6 -37v-267c0 -6.66699 -3 -10 -9 -10h-62
c-6.66699 0 -10 3 -10 9v268c0 24 3.83301 46.167 11.5 66.5s18.667 38 33 53s32.166 26.667 53.499 35s45.666 12.5 72.999 12.5c26.667 0 50.167 -5.16699 70.5 -15.5s37.5 -23.5 51.5 -39.5c4 -4.66699 8 -5 12 -1c13.333 15.333 30.666 28.5 51.999 39.5
s46.666 16.5 75.999 16.5c28 0 52.333 -4.16699 73 -12.5s37.834 -19.833 51.501 -34.5s23.834 -32.167 30.501 -52.5s10 -42.833 10 -67.5v-267v0z" />
    <glyph glyph-name="n" unicode="n" horiz-adv-x="462" 
d="M408 10c0 -6.66699 -3.00098 -10.001 -9.00098 -10.001h-62c-6 0 -9 3 -9 9v267c0 28.667 -8 52.334 -24 71.001s-40 28 -72 28c-29.333 0 -52.666 -9.16699 -69.999 -27.5s-26 -41.833 -26 -70.5v-267c0 -6.66699 -3.33301 -10 -10 -10h-61c-6.66699 0 -10 3 -10 9v419
c0 6.66699 3 10 9 10h58c6 0 9 -3 9 -9v-15c0 -6 2.33301 -9 7 -9c1.33301 0 4 1.33301 8 4c28 23.333 61.333 35 100 35c50 0 89.5 -15.167 118.5 -45.5s43.5 -70.833 43.5 -121.5v-267v0z" />
    <glyph glyph-name="o" unicode="o" horiz-adv-x="448" 
d="M400 163c0 -54 -15.834 -95.667 -47.501 -125s-74.5 -44 -128.5 -44c-55.333 0 -98.5 14.5 -129.5 43.5s-46.5 70.5 -46.5 124.5v115c0 51.333 15 92.166 45 122.499s73.333 45.5 130 45.5s100.334 -14.667 131.001 -44s46 -70.666 46 -123.999v-114zM319.999 277
c0 28.667 -7.83301 52.1689 -23.5 70.502s-39.834 27.5 -72.501 27.5c-29.333 0 -52.666 -9 -69.999 -27s-26 -41.667 -26 -71v-115c0 -28.667 7.33301 -52.334 22 -71.001s39 -28 73 -28s58.5 9.16699 73.5 27.5s22.833 42.166 23.5 71.499v115z" />
    <glyph glyph-name="p" unicode="p" horiz-adv-x="454" 
d="M408 161c0 -23.333 -4 -45.1689 -12 -65.502s-19.167 -38.166 -33.5 -53.499s-31.333 -27.333 -51 -36s-41.167 -13 -64.5 -13c-26 0 -46.167 3.16699 -60.5 9.5s-25.833 13.5 -34.5 21.5c-5.33301 4.66699 -9.5 5.83398 -12.5 3.50098s-4.5 -5.5 -4.5 -9.5v-189
c0 -6.66699 -3 -10 -9 -10h-62c-6 0 -9 3 -9 9v601c0 6 3 9 9 9h55c6.66699 0 10 -3 10 -9v-21c0 -4 1.66699 -5.83301 5 -5.5s7 2.5 11 6.5c8.66699 7.33301 21.5 14.833 38.5 22.5s38.167 11.5 63.5 11.5c48 0 86.833 -14.167 116.5 -42.5s44.5 -68.833 44.5 -121.5v-118z
M327 277.997c0 28 -8.16797 51.165 -24.501 69.498s-40.166 27.5 -71.499 27.5c-28 0 -51 -9.16699 -69 -27.5s-27 -41.166 -27 -68.499v-118c0 -27.333 8.83301 -50.666 26.5 -69.999s40.834 -29 69.501 -29c29.333 0 52.666 9.5 69.999 28.5s26 42.5 26 70.5v117z" />
    <glyph glyph-name="q" unicode="q" horiz-adv-x="454" 
d="M403 -181c0 -6.66699 -3 -9.99902 -9 -9.99902h-62c-6.66699 0 -10 3 -10 9v200c0 3.33301 -1.5 6.33301 -4.5 9s-7.16699 1.66699 -12.5 -3c-8.66699 -8 -20.167 -15.167 -34.5 -21.5s-34.166 -9.5 -59.499 -9.5c-26 0 -49 4.33301 -69 13s-36.833 20.667 -50.5 36
s-24 33 -31 53s-10.5 41.667 -10.5 65v118c0 24.667 3.83301 47.167 11.5 67.5s18.667 37.666 33 51.999s31.5 25.5 51.5 33.5s42 12 66 12c25.333 0 46.166 -3.83301 62.499 -11.5s28.833 -15.167 37.5 -22.5c4 -4 7.66699 -5.33301 11 -4s5 4 5 8v16c0 6 3.33301 9 10 9
h55c6.66699 0 10 -3 10 -9v-610zM322 278.001c0 28 -8.83301 51.166 -26.5 69.499s-40.5 27.5 -68.5 27.5s-51.167 -9 -69.5 -27s-27.5 -41 -27.5 -69v-118c0 -27.333 8.66699 -50.666 26 -69.999s40.666 -29 69.999 -29c28.667 0 51.834 9.5 69.501 28.5
s26.5 42.5 26.5 70.5v117z" />
    <glyph glyph-name="r" unicode="r" horiz-adv-x="295" 
d="M120 438c6.66699 0 9.99902 -3.00195 9.99902 -9.00195v-47c0 -3.33301 1.16699 -5.5 3.5 -6.5s4.83301 0.166992 7.5 3.5c11.333 16 27 30.833 47 44.5s43.333 20.5 70 20.5c4 0 9 -0.166992 15 -0.5s10 -1.16602 12 -2.49902
c5.33301 -1.33301 8.5 -3.16602 9.5 -5.49902s0.833008 -5.5 -0.5 -9.5l-12 -59c-1.33301 -5.33301 -3.16602 -8.5 -5.49902 -9.5s-4.83301 -1.16699 -7.5 -0.5c-10 2 -19.667 3 -29 3c-37.333 0 -63.333 -10.833 -78 -32.5s-22 -48.5 -22 -80.5v-237
c0 -6.66699 -3 -10 -9 -10h-62c-6.66699 0 -10 3 -10 9v419c0 6.66699 3 10 9 10h52z" />
    <glyph glyph-name="s" unicode="s" horiz-adv-x="392" 
d="M355 119c0 -16.667 -3.49707 -32.4971 -10.4971 -47.4971s-17.167 -28.167 -30.5 -39.5s-29.833 -20.333 -49.5 -27s-42.167 -10 -67.5 -10c-35.333 0 -68 8 -98 24s-51.667 40.667 -65 74c-2 5.33301 -0.666992 9 4 11l51 23c3.33301 1.33301 5.83301 1.33301 7.5 0
s3.16699 -3 4.5 -5c10 -19.333 23.833 -34.5 41.5 -45.5s37.834 -16.5 60.501 -16.5c21.333 0 39.166 5.5 53.499 16.5s21.5 24.167 21.5 39.5c0 16 -5.66699 28.333 -17 37s-26.666 16.667 -45.999 24c-15.333 6 -32.833 12.333 -52.5 19s-38.167 15.167 -55.5 25.5
s-31.833 23.333 -43.5 39s-17.5 35.5 -17.5 59.5c0 20 4.16699 37.667 12.5 53s19.5 28.166 33.5 38.499s30 18.166 48 23.499s37 8 57 8c28 0.666992 54.667 -3.83301 80 -13.5s47.666 -24.834 66.999 -45.501c4.66699 -4.66699 3.66699 -10.334 -3 -17.001l-27 -31
c-6.66699 -7.33301 -14.334 -7 -23.001 1c-13.333 12 -28.333 21.5 -45 28.5s-33.334 10.5 -50.001 10.5c-22 0 -39.5 -4.5 -52.5 -13.5s-19.5 -21.167 -19.5 -36.5c0 -14.667 5.5 -26.5 16.5 -35.5s26.167 -17.167 45.5 -24.5l59 -22
c20 -7.33301 38.167 -16.166 54.5 -26.499s29.666 -23.333 39.999 -39s15.5 -35.5 15.5 -59.5z" />
    <glyph glyph-name="t" unicode="t" horiz-adv-x="305" 
d="M197 -6c-22 0 -40.666 3 -55.999 9s-27.5 14.333 -36.5 25s-15.5 23.334 -19.5 38.001s-6 31 -6 49v245c0 6.66699 -3.66699 10 -11 10h-41c-6.66699 0 -10 3 -10 9v49c0 6.66699 2.66699 10 8 10h42c8 0 12 4 12 12v84c0 5.33301 3 9 9 11l58 14c4 1.33301 7 1 9 -1
s3 -4.66699 3 -8v-102c0 -6.66699 3.33301 -10 10 -10h92c6.66699 0 10 -3 10 -9v-49c0 -6.66699 -3.33301 -10 -10 -10h-91c-7.33301 0 -11 -3.33301 -11 -10v-228c0 -19.333 3.33301 -34.666 10 -45.999s20 -17 40 -17c11.333 0 22.166 0.666992 32.499 2
s19.166 2.66602 26.499 3.99902s12.166 0.833008 14.499 -1.5s3.83301 -5.5 4.5 -9.5l8 -41c1.33301 -5.33301 1.33301 -9 0 -11s-4.66602 -4 -9.99902 -6c-10 -4.66699 -23.667 -7.83398 -41 -9.50098s-32.666 -2.5 -45.999 -2.5z" />
    <glyph glyph-name="u" unicode="u" horiz-adv-x="459" 
d="M401 10c0 -6.66699 -3.33301 -10 -10 -10h-57c-6.66699 0 -10 3 -10 9v15c0 4.66699 -1.5 7.5 -4.5 8.5s-6.16699 -0.166992 -9.5 -3.5c-12.667 -11.333 -28.667 -20 -48 -26s-37.666 -9 -54.999 -9c-50 0 -89 15 -117 45s-42 70.667 -42 122v267c0 6.66699 3 10 9 10h62
c6 0 9 -3 9 -9v-268c0 -28 8 -51.333 24 -70s40 -28 72 -28c29.333 0 52.666 9.16699 69.999 27.5s26 41.833 26 70.5v267c0 6.66699 3 10 9 10h62c6.66699 0 10 -3 10 -9v-419v0z" />
    <glyph glyph-name="v" unicode="v" horiz-adv-x="404" 
d="M245 12c-1.33301 -4.66699 -3.16699 -7.83203 -5.5 -9.49902s-6.5 -2.5 -12.5 -2.5h-49c-9.33301 0 -15.333 3.66699 -18 11l-146 413c-3.33301 9.33301 -0.666016 14 8.00098 14h55c11.333 0 18 -4 20 -12l68 -207l33 -113c1.33301 -3.33301 2.83301 -5 4.5 -5
s3.16699 1.33301 4.5 4l31 108l68 210c1.33301 3.33301 3.16602 6.66602 5.49902 9.99902s6.83301 5 13.5 5h57c9.33301 0 12.333 -4.33301 9 -13z" />
    <glyph glyph-name="w" unicode="w" horiz-adv-x="604" 
d="M474 14c-2.66699 -9.33301 -8.00293 -14.002 -16.0029 -14.002h-45c-5.33301 0 -9.33301 0.5 -12 1.5s-4.66699 4.16699 -6 9.5l-64 204l-31 113c-2.66699 4.66699 -4.66699 4.66699 -6 0l-32 -121l-60 -196c-1.33301 -5.33301 -3.5 -8.5 -6.5 -9.5
s-6.83301 -1.5 -11.5 -1.5h-45c-4.66699 0 -8.5 0.833008 -11.5 2.5s-5.16699 5.16699 -6.5 10.5l-111 412c-3.33301 9.33301 -0.666016 14 8.00098 14h62c9.33301 0 15 -4.33301 17 -13l37 -165l29 -138c0.666992 -2.66699 1.83398 -4 3.50098 -4
s2.83398 1.33301 3.50098 4l38 134l51 166c1.33301 5.33301 3.33301 9.33301 6 12s6.66699 4 12 4h45c3.33301 0 6.66602 -0.666992 9.99902 -2s6 -5.66602 8 -12.999l61 -198l29 -103c0.666992 -2 1.83398 -3.16699 3.50098 -3.5s2.83398 0.833984 3.50098 3.50098l19 96
l45 206c1.33301 4 3.16602 7.33301 5.49902 10s6.5 4 12.5 4h59c8 0 11 -4.33301 9 -13z" />
    <glyph glyph-name="x" unicode="x" horiz-adv-x="387" 
d="M375 14c2.66699 -3.33301 3.50488 -6.50098 2.50488 -9.50098s-4.16699 -4.5 -9.5 -4.5h-61c-4.66699 0 -8.83398 0.666992 -12.501 2s-7.16699 4.66602 -10.5 9.99902l-85 145c-2.66699 4.66699 -5 6 -7 4l-5 -5l-84 -144
c-3.33301 -5.33301 -6.83301 -8.66602 -10.5 -9.99902s-7.83398 -2 -12.501 -2h-60c-5.33301 0 -8.5 1.5 -9.5 4.5s-0.166992 6.16699 2.5 9.5l125 199c4.66699 7.33301 6.66699 12.833 6 16.5s-2.33398 7.83398 -5.00098 12.501l-113 181
c-2.66699 4 -3.33398 7.5 -2.00098 10.5s4.66602 4.5 9.99902 4.5h58c6.66699 0 11.334 -0.5 14.001 -1.5s5.66699 -4.16699 9 -9.5l74 -127c2.66699 -4 4.83398 -5.66699 6.50098 -5s3.16699 2.66699 4.5 6l73 126c3.33301 5.33301 6.33301 8.5 9 9.5
s7.33398 1.5 14.001 1.5h58c5.33301 0 8.66602 -1.5 9.99902 -4.5s0.666016 -6.5 -2.00098 -10.5l-115 -182c-4 -6.66699 -5.33301 -11.667 -4 -15s2.66602 -6.33301 3.99902 -9z" />
    <glyph glyph-name="y" unicode="y" horiz-adv-x="412" 
d="M187 87c1.33301 -5.33301 3.33301 -8.49707 6 -9.49707s5.33398 2.16699 8.00098 9.5l110 333c1.33301 4 3.5 8.16699 6.5 12.5s8.5 6.5 16.5 6.5h47c6.66699 0 10.834 -1.83301 12.501 -5.5s1.83398 -8.16699 0.500977 -13.5l-193 -582
c-1.33301 -4.66699 -4.5 -9.33398 -9.5 -14.001s-12.167 -7 -21.5 -7h-37c-14.667 0 -19.334 8.66699 -14.001 26l47 142c1.33301 3.33301 2.16602 6.66602 2.49902 9.99902s-2.16699 5 -7.5 5h-10c-12.667 0 -20.667 6.66699 -24 20l-110 401
c-1.33301 5.33301 -1.33301 9.66602 0 12.999s5 5 11 5h53c6.66699 0 11.667 -1.5 15 -4.5s5.66602 -6.5 6.99902 -10.5z" />
    <glyph glyph-name="z" unicode="z" horiz-adv-x="402" 
d="M367 10c0 -6.66699 -3.00098 -10 -9.00098 -10h-306c-5.33301 0 -9.33301 1.5 -12 4.5s-4 6.16699 -4 9.5v27c0 4 0.333008 8.33301 1 13s2.66699 9 6 13l194 289c3.33301 4 4 7.5 2 10.5s-5.66699 4.5 -11 4.5h-172c-6.66699 0 -10 3 -10 9v48c0 6.66699 3 10 9 10h275
c13.333 0 20 -5.66699 20 -17v-28c0 -4.66699 -0.666992 -9.5 -2 -14.5s-2.66602 -8.83301 -3.99902 -11.5l-192 -284c-5.33301 -10 -2.33301 -15 9 -15h196c6.66699 0 10 -3.33301 10 -10v-48v0z" />
    <glyph glyph-name="braceleft" unicode="{" horiz-adv-x="338" 
d="M38 292c0 7.33301 1.99902 12.002 5.99902 14.002s9.66699 4.66699 17 8c20 9.33301 36.167 21.333 48.5 36s18.5 34.334 18.5 59.001v129c0 53.333 12.833 90.833 38.5 112.5s62.5 32.5 110.5 32.5h15c6.66699 0 10 -3.33301 10 -10v-49c0 -6.66699 -3 -10 -9 -10h-12
c-14 0 -25.667 -0.833008 -35 -2.5s-16.833 -4.83398 -22.5 -9.50098s-9.5 -11.5 -11.5 -20.5s-3 -20.833 -3 -35.5v-154c0 -24 -6 -45.667 -18 -65s-28.333 -35 -49 -47c-2.66699 -2 -4 -4.33301 -4 -7s1.33301 -4.33398 4 -5.00098
c11.333 -5.33301 21.166 -12.666 29.499 -21.999s15.333 -19.5 21 -30.5s9.83398 -22.5 12.501 -34.5s4 -23.333 4 -34v-161c0 -15.333 1 -27.333 3 -36s5.83301 -15.5 11.5 -20.5s13.167 -8.16699 22.5 -9.5s21 -2 35 -2h12c6 0 9 -3.33301 9 -10v-49
c0 -6.66699 -3.33301 -10 -10 -10h-15c-48 0 -84.667 10.833 -110 32.5s-38 59.167 -38 112.5v142c0 24.667 -6.16699 44.667 -18.5 60s-28.166 26.666 -47.499 33.999c-9.33301 3.33301 -15.833 6.16602 -19.5 8.49902s-5.5 5.83301 -5.5 10.5v43z" />
    <glyph glyph-name="bar" unicode="|" horiz-adv-x="227" 
d="M141 -105c0 -6.66699 -3 -10 -9 -10h-39c-6.66699 0 -10 3 -10 9v773c0 6 3.33301 9 10 9h38c6.66699 0 10 -2.66699 10 -8v-773z" />
    <glyph glyph-name="braceright" unicode="}" horiz-adv-x="338" 
d="M298 251c0 -5.33301 -1.83398 -9.33398 -5.50098 -12.001s-10.167 -5.66699 -19.5 -9c-19.333 -7.33301 -35.166 -18.666 -47.499 -33.999s-18.5 -35.333 -18.5 -60v-142c0 -53.333 -12.667 -90.833 -38 -112.5s-62 -32.5 -110 -32.5h-15c-6.66699 0 -10 3.33301 -10 10
v49c0 6.66699 3 10 9 10h12c14 0 25.667 0.666992 35 2s16.833 4.5 22.5 9.5s9.5 11.833 11.5 20.5s3 20.667 3 36v161c0 10.667 1.33301 22 4 34s6.83398 23.5 12.501 34.5s12.667 21.167 21 30.5s18.166 16.666 29.499 21.999c2.66699 0.666992 4 2.33398 4 5.00098
s-1.33301 5 -4 7c-20.667 12 -37 27.667 -49 47s-18 41 -18 65v154c0 14.667 -1 26.5 -3 35.5s-5.83301 15.833 -11.5 20.5s-13.167 7.83398 -22.5 9.50098s-21 2.5 -35 2.5h-12c-6 0 -9 3.33301 -9 10v49c0 6.66699 3.33301 10 10 10h15c48 0 84.833 -10.833 110.5 -32.5
s38.5 -59.167 38.5 -112.5v-129c0 -24.667 6.16699 -44.334 18.5 -59.001s28.5 -26.667 48.5 -36c7.33301 -3.33301 13 -6 17 -8s6 -6.66699 6 -14v-41v0z" />
    <glyph glyph-name="asciitilde" unicode="~" horiz-adv-x="475" 
d="M460 306c-16.667 -22 -35.001 -39.499 -55.001 -52.499s-41.667 -19.5 -65 -19.5c-20.667 0 -41.5 4.5 -62.5 13.5l-60.5 26.5c-15.333 7.33301 -29.833 13.5 -43.5 18.5s-27.167 7.5 -40.5 7.5c-14 0 -27 -3.83301 -39 -11.5s-24.667 -19.167 -38 -34.5
c-2 -2 -4 -3 -6 -3l-3 1l-34 32c-2 2 -3 4.33301 -3 7s1 5 3 7c20 26 40.167 44.167 60.5 54.5s39.166 15.5 56.499 15.5c18.667 0 37.5 -3.16699 56.5 -9.5s36.833 -13.5 53.5 -21.5s33.167 -15.167 49.5 -21.5s32.833 -9.5 49.5 -9.5c14.667 0 27.334 4.16699 38.001 12.5
s20.667 17.166 30 26.499c4.66699 4.66699 8.33398 7 11.001 7s5 -1 7 -3l33 -26c4 -3.33301 6 -6 6 -8s-1.33301 -5 -4 -9z" />
    <glyph glyph-name="exclamdown" unicode="&#xa1;" horiz-adv-x="263" 
d="M110 258c0 6 3 9 9 9h35c6 0 9 -2.66699 9 -8l19 -438c0 -6.66699 -3.33301 -10 -10 -10h-67c-6.66699 0 -10 3 -10 9zM84 385c0 14.667 5.16895 27.167 15.502 37.5s23.166 15.5 38.499 15.5s28.333 -5.16699 39 -15.5s16 -22.833 16 -37.5s-5.33301 -27.167 -16 -37.5
s-23.334 -15.5 -38.001 -15.5c-15.333 0 -28.333 5 -39 15s-16 22.667 -16 38z" />
    <glyph glyph-name="cent" unicode="&#xa2;" horiz-adv-x="475" 
d="M406 366c2.66699 -3.33301 3.66895 -7.16797 3.00195 -11.501s-3 -7.83301 -7 -10.5l-38 -27c-8.66699 -6 -16.334 -4 -23.001 6c-11.333 16.667 -24.166 29.5 -38.499 38.5s-30.833 13.5 -49.5 13.5c-28 0 -51.333 -8.83301 -70 -26.5s-28 -40.5 -28 -68.5v-124
c0 -27.333 9.33301 -49.5 28 -66.5s41.667 -25.5 69 -25.5c12.667 0 23.667 1.5 33 4.5s17.666 7.16699 24.999 12.5s13.833 11.5 19.5 18.5l17.5 22.5c3.33301 4 8.33301 3.66699 15 -1l39 -25c6.66699 -4 10.334 -7.83301 11.001 -11.5s-0.333008 -7.16699 -3 -10.5
c-15.333 -22.667 -32.666 -40 -51.999 -52s-39.666 -20 -60.999 -24c-3.33301 -0.666992 -7 -1.16699 -11 -1.5s-6 -5.16602 -6 -14.499v-43c0 -6.66699 -3.33301 -10 -10 -10h-31c-3.33301 0 -5.83301 0.5 -7.5 1.5s-2.5 3.5 -2.5 7.5v44c0 6 -1.83301 9.83301 -5.5 11.5
s-6.83398 2.83398 -9.50098 3.50098c-42.667 7.33301 -76.334 25 -101.001 53s-37 64.333 -37 109v115c0 46.667 13.333 84.5 40 113.5s60.667 46.833 102 53.5c2 0.666992 4.33301 1.5 7 2.5s4 5.16699 4 12.5v45c0 6 3.33301 9 10 9h31c6.66699 0 10 -3 10 -9v-47
c0 -7.33301 1.66699 -11.333 5 -12s6.33301 -1.33398 9 -2.00098c23.333 -4.66699 44.166 -13.167 62.499 -25.5s35.166 -28.5 50.499 -48.5z" />
    <glyph glyph-name="sterling" unicode="&#xa3;" horiz-adv-x="475" 
d="M175 358c0 -6.66699 3.33203 -9.99609 9.99902 -9.99609h109c6.66699 0 10 -3.33301 10 -10v-50c0 -6 -3.33301 -9 -10 -9h-108c-7.33301 0 -11 -3.66699 -11 -11v-60c0 -28 -1 -52.833 -3 -74.5s-8 -40.5 -18 -56.5c-2 -5.33301 -0.666992 -8 4 -8h243
c6.66699 0 10 -3 10 -9v-50c0 -6.66699 -3 -10 -9 -10h-359c-6 0 -9 3 -9 9v50c0 5.33301 3.33301 8.66602 10 9.99902c11.333 3.33301 20.333 8.66602 27 15.999s11.667 15.5 15 24.5s5.5 18.333 6.5 28s1.5 18.5 1.5 26.5v104c0 6.66699 -3.33301 10 -10 10h-39
c-6 0 -9 3.33301 -9 10v50c0 6 3 9 9 9h38c7.33301 0 11 3.66699 11 11v87c0 26 4.5 50 13.5 72s21.5 41 37.5 57s34.833 28.5 56.5 37.5s45.167 13.5 70.5 13.5c32 0 63.333 -6.33301 94 -19s54.334 -33.334 71.001 -62.001c4 -7.33301 2.66699 -13 -4 -17l-44 -28
c-9.33301 -6 -16 -5 -20 3c-10 17.333 -23 30.666 -39 39.999s-34.667 14 -56 14c-28 0 -51.5 -8.83301 -70.5 -26.5s-28.5 -40.5 -28.5 -68.5v-103z" />
    <glyph glyph-name="currency" unicode="&#xa4;" horiz-adv-x="492" 
d="M94 431c4.66699 4.66699 9.00391 5.00098 13.0039 1.00098l46 -51c27.333 18.667 57.666 28 90.999 28c15.333 0 30.666 -2.33301 45.999 -7s29.666 -11.667 42.999 -21l55 52c1.33301 2.66699 3.5 4.16699 6.5 4.5s5.5 -1.16699 7.5 -4.5l32 -32
c4.66699 -5.33301 5 -10 1 -14l-53 -51c20 -27.333 30 -58.333 30 -93c0 -16 -2.33301 -31.833 -7 -47.5s-12 -30.5 -22 -44.5l50 -48c4.66699 -4.66699 5 -9 1 -13l-34 -34c-4.66699 -4.66699 -9 -4.66699 -13 0l-51 49c-28 -20 -58 -30 -90 -30c-33.333 0 -64 11 -92 33
l-52 -53c-4 -5.33301 -8.33301 -5.66602 -13 -0.999023l-34 33c-4.66699 4 -4.66699 8.33301 0 13l53 56c-10 14 -17.333 28.5 -22 43.5s-7 30.167 -7 45.5c0 31.333 9.33301 61 28 89l-46 51c-2 3.33301 -3.33301 5.66602 -4 6.99902s0.666016 3.66602 3.99902 6.99902z
M144.004 243.001c0 -14 2.66699 -27.167 8 -39.5s12.666 -23 21.999 -32s20.166 -16.167 32.499 -21.5s25.5 -8 39.5 -8s27.167 2.66699 39.5 8s23 12.5 32 21.5s16.167 19.667 21.5 32s8 25.5 8 39.5s-2.66699 27.167 -8 39.5s-12.5 23.166 -21.5 32.499
s-19.667 16.666 -32 21.999s-25.5 8 -39.5 8s-27.167 -2.66699 -39.5 -8s-23.166 -12.666 -32.499 -21.999s-16.666 -20.166 -21.999 -32.499s-8 -25.5 -8 -39.5z" />
    <glyph glyph-name="yen" unicode="&#xa5;" horiz-adv-x="475" 
d="M432 256c6 0 9 -3.00098 9 -9.00098v-37c0 -3.33301 -1.16699 -5.66602 -3.5 -6.99902s-4.16602 -2 -5.49902 -2h-147c-4.66699 0 -7.33398 -1.33301 -8.00098 -4s-1 -5.66699 -1 -9v-178c0 -6.66699 -3.33301 -10 -10 -10h-60c-6.66699 0 -10 3 -10 9v178
c0 3.33301 -0.833008 6.33301 -2.5 9s-5.16699 4 -10.5 4h-129c-6.66699 0 -10 3.33301 -10 10v37c0 6 3.33301 9 10 9h378zM54 303.999c-6.66699 0 -10.001 2.99902 -10.001 8.99902v37c0 6.66699 3.33301 10 10 10h78c3.33301 0 5.33301 1.33301 6 4
s0.333984 4.66699 -0.999023 6l-100 232c-5.33301 10 -2.66602 15 8.00098 15h59c5.33301 0 9.16602 -0.5 11.499 -1.5s4.83301 -4.16699 7.5 -9.5l62 -143l47 -119c4.66699 -9.33301 9 -9.66602 13 -0.999023l50 125l58 136c2.66699 5.33301 5.16699 8.83301 7.5 10.5
s6.83301 2.5 13.5 2.5h53c6 0 9.5 -1.5 10.5 -4.5s0.5 -6.16699 -1.5 -9.5l-102 -235c-2.66699 -5.33301 -0.666992 -8 6 -8h92c6 0 9 -3 9 -9v-37c0 -6.66699 -3 -10 -9 -10h-378z" />
    <glyph glyph-name="brokenbar" unicode="&#xa6;" horiz-adv-x="227" 
d="M141 310c-1.33301 -6 -4.33301 -9 -9 -9h-39c-6.66699 0 -10 3 -10 9v357c0 6 3.33301 9 10 9h38c6.66699 0 10 -2.66699 10 -8v-358zM141 -106c-1.33301 -6 -4.33301 -9 -9 -9h-39c-6.66699 0 -10 3 -10 9l1 354c0 6 3.33301 9 10 9h38c6.66699 0 10 -2.66699 10 -8z
" />
    <glyph glyph-name="section" unicode="&#xa7;" horiz-adv-x="452" 
d="M239 600c-30 0 -52.333 -5.16699 -67 -15.5s-22 -23.166 -22 -38.499s6.83301 -28.166 20.5 -38.499s37.5 -21.5 71.5 -33.5c22.667 -8 43.834 -16 63.501 -24s36.5 -17.333 50.5 -28s25 -23.167 33 -37.5s12 -31.833 12 -52.5c0 -27.333 -7.66699 -50.5 -23 -69.5
s-35 -33.5 -59 -43.5c-0.666992 0 -1.33398 -0.166992 -2.00098 -0.5s-1.66699 -0.5 -3 -0.5c-4 0 -7 2.33301 -9 7l-17 39c-1.33301 2.66699 -2 4.66699 -2 6c0 4 2.33301 6.66699 7 8c10 5.33301 18 12 24 20s9 18 9 30c0 10.667 -2.66699 19.834 -8 27.501
s-12.666 14.5 -21.999 20.5s-20.5 11.667 -33.5 17s-27.5 10.666 -43.5 15.999c-20.667 7.33301 -39.667 14.833 -57 22.5s-32.5 16.667 -45.5 27s-23.167 22.166 -30.5 35.499s-11 29 -11 47c0 36.667 14.333 66.5 43 89.5s69.667 34.5 123 34.5
c29.333 0 56.166 -4.83301 80.499 -14.5s46.166 -25.167 65.499 -46.5c2 -2 3 -4 3 -6c0 -3.33301 -2 -7 -6 -11l-29 -31c-3.33301 -3.33301 -6.66602 -5 -9.99902 -5c-4.66699 0 -9 2.33301 -13 7c-12.667 13.333 -27.167 23.666 -43.5 30.999s-32.833 11 -49.5 11z
M233 -73c-32.667 0 -64.1699 5.8291 -94.5029 17.4961s-55.166 28.167 -74.499 49.5c-2 2 -3 4 -3 6c0 3.33301 2 7 6 11l33 31c3.33301 3.33301 6.66602 5 9.99902 5c4.66699 0 9 -2.33301 13 -7c12.667 -13.333 29.5 -24.666 50.5 -33.999s41.833 -14 62.5 -14
c12 0 23.833 1 35.5 3s22.167 5.33301 31.5 10s17 10.834 23 18.501s9 16.834 9 27.501c0 20 -11.167 35.667 -33.5 47s-50.166 22.666 -83.499 33.999c-20.667 6.66699 -39.667 14.334 -57 23.001s-32.5 18.334 -45.5 29.001s-23.167 22.667 -30.5 36
s-11 28.666 -11 45.999c0 25.333 7.5 47 22.5 65s35.5 33 61.5 45c4 1.33301 6.66699 2 8 2c4.66699 0 8.33398 -3 11.001 -9l14 -31c0.666992 -1.33301 1.33398 -2.83301 2.00098 -4.5s1 -3.16699 1 -4.5c0 -4.66699 -3.33301 -8.66699 -10 -12
c-10.667 -5.33301 -19.334 -12.5 -26.001 -21.5s-10 -17.167 -10 -24.5c0 -15.333 7.16699 -28.166 21.5 -38.499s38.166 -21.166 71.499 -32.499c22.667 -8 44.334 -16.167 65.001 -24.5s38.834 -18 54.501 -29s28.167 -24 37.5 -39s14 -32.5 14 -52.5
c0 -20.667 -4.66699 -39 -14 -55s-22.166 -29.333 -38.499 -40s-35.333 -18.834 -57 -24.501s-44.834 -8.5 -69.501 -8.5z" />
    <glyph glyph-name="dieresis" unicode="&#xa8;" horiz-adv-x="455" 
d="M347 545c0 -13.333 -4.33398 -24.5 -13.001 -33.5s-19.667 -13.5 -33 -13.5s-24.666 4.5 -33.999 13.5s-14 20.167 -14 33.5s4.5 24.5 13.5 33.5s20.167 13.5 33.5 13.5s24.5 -4.5 33.5 -13.5s13.5 -20.167 13.5 -33.5zM184.999 545c0 -13.333 -4.5 -24.5 -13.5 -33.5
s-20.167 -13.5 -33.5 -13.5s-24.5 4.5 -33.5 13.5s-13.5 20.167 -13.5 33.5s4.5 24.5 13.5 33.5s20.167 13.5 33.5 13.5s24.5 -4.5 33.5 -13.5s13.5 -20.167 13.5 -33.5z" />
    <glyph glyph-name="copyright" unicode="&#xa9;" horiz-adv-x="707" 
d="M469 424c2.66699 -4.66699 1.66699 -8.33594 -3 -11.0029l-29 -19c-6.66699 -3.33301 -11.334 -2.66602 -14.001 2.00098c-13.333 24 -33.666 36 -60.999 36c-19.333 0 -35.166 -6.16699 -47.499 -18.5s-18.5 -28.166 -18.5 -47.499v-125c0 -19.333 6 -35.166 18 -47.499
s27.667 -18.5 47 -18.5c13.333 0 25 3.16699 35 9.5s18.667 14.166 26 23.499c1.33301 2.66699 3.33301 4.5 6 5.5s5.66699 0.166992 9 -2.5l30 -20c2.66699 -2.66699 2.66699 -6 0 -10c-26 -35.333 -61 -53 -105 -53c-36 0 -65 9.5 -87 28.5s-33 46.833 -33 83.5v125
c0 35.333 11.167 63 33.5 83s51.5 30 87.5 30c24.667 0 45.667 -4.16699 63 -12.5s31.666 -22.166 42.999 -41.499zM355 -0.00195312c-43.333 0 -83 5.49609 -119 16.4961s-67 26.833 -93 47.5s-46.167 45.834 -60.5 75.501s-21.5 62.834 -21.5 99.501v138
c0 36.667 7.16699 69.834 21.5 99.501s34.5 54.834 60.5 75.501s57 36.667 93 48s75.667 17 119 17s83.166 -5.33301 119.499 -16s67.666 -26.167 93.999 -46.5s46.833 -45.5 61.5 -75.5s22 -64 22 -102v-138c0 -38 -7.33301 -71.833 -22 -101.5s-35.167 -54.667 -61.5 -75
s-57.666 -35.833 -93.999 -46.5s-76.166 -16 -119.499 -16zM608 379.994c0 28 -5.5 54 -16.5 78s-27.167 44.833 -48.5 62.5s-47.833 31.667 -79.5 42s-68.167 15.5 -109.5 15.5s-77.666 -5.33301 -108.999 -16s-57.333 -25 -78 -43s-36.167 -39 -46.5 -63
s-15.5 -49.333 -15.5 -76v-143c0 -26.667 5.16699 -52 15.5 -76s25.833 -45.167 46.5 -63.5s46.667 -32.833 78 -43.5s67.666 -16 108.999 -16s77.833 5.33301 109.5 16s58.167 25 79.5 43s37.5 39 48.5 63s16.5 49.667 16.5 77v143z" />
    <glyph glyph-name="ordfeminine" unicode="&#xaa;" horiz-adv-x="292" 
d="M257 255c0 -4.66699 -0.501953 -7.99805 -1.50195 -9.99805s-4.16699 -3 -9.5 -3h-37c-5.33301 0 -8.5 1 -9.5 3s-1.5 4.66699 -1.5 8v7c0 2.66699 -0.666992 3.66699 -2 3l-4 -2c-6.66699 -5.33301 -16 -10.333 -28 -15s-23 -7 -33 -7c-35.333 0 -62.5 8.66699 -81.5 26
s-28.5 41.666 -28.5 72.999s10.5 55.833 31.5 73.5s47.833 26.5 80.5 26.5c7.33301 0 16 -1.16699 26 -3.5s19 -6.83301 27 -13.5c2.66699 -1.33301 4.33398 -0.333008 5.00098 3v5c0 13.333 -3.66699 23.333 -11 30s-20.333 10 -39 10c-8 0 -19.167 -1.33301 -33.5 -4
s-26.166 -6.33398 -35.499 -11.001c-4 -2 -7 -2.33301 -9 -1s-4 4 -6 8l-10 24c-4.66699 8 -2.66699 14.333 6 19c12.667 6 27 10.833 43 14.5s31.667 5.5 47 5.5c42 0 71.5 -9 88.5 -27s25.5 -43 25.5 -75v-167zM186.998 339.002c0 13.333 -4.83203 24.5 -14.499 33.5
s-21.834 13.5 -36.501 13.5c-15.333 0 -27.666 -4.5 -36.999 -13.5s-14 -20.167 -14 -33.5s4.66699 -24.833 14 -34.5s21.666 -14.5 36.999 -14.5c16 0 28.5 4.83301 37.5 14.5s13.5 21.167 13.5 34.5z" />
    <glyph glyph-name="guillemotleft" unicode="&#xab;" horiz-adv-x="479" 
d="M316 211c-4 -4.66699 -5.66895 -8.16895 -5.00195 -10.502s2.33398 -5.16602 5.00098 -8.49902l122 -152c4 -5.33301 5 -10 3 -14s-5.66699 -6 -11 -6h-47c-7.33301 0 -13.333 1.33301 -18 4s-10 7.66699 -16 15l-113 142c-7.33301 8.66699 -10.666 16 -9.99902 22
s3.66699 12.667 9 20l116 145c3.33301 4.66699 7 8.5 11 11.5s10.667 4.5 20 4.5h48c7.33301 0 11.833 -1.66699 13.5 -5s0.5 -7.66602 -3.5 -12.999zM137.998 210.998c-4 -4.66699 -5.83105 -8.16895 -5.49805 -10.502s2.16602 -5.16602 5.49902 -8.49902l121 -152
c4 -5.33301 5 -10 3 -14s-5.33301 -6 -10 -6h-48c-7.33301 0 -13.333 1.33301 -18 4s-10 7.66699 -16 15l-113 142c-6.66699 8.66699 -9.66699 16 -9 22s3.66699 12.667 9 20l115 145c4 4.66699 8 8.5 12 11.5s10.333 4.5 19 4.5h49c7.33301 0 11.666 -1.66699 12.999 -5
s0 -7.66602 -4 -12.999z" />
    <glyph glyph-name="logicalnot" unicode="&#xac;" horiz-adv-x="475" 
d="M435 57c0 -9.33301 -4.66699 -14 -14 -14h-41c-10 0 -15 4.66699 -15 14v146c0 3.33301 -1.33301 5 -4 5h-306c-10 0 -15 4.66699 -15 14v32c0 10 5 15 15 15h365c10 0 15 -5 15 -15v-197z" />
    <glyph glyph-name="sfthyphen" unicode="&#xad;" horiz-adv-x="340" 
d="M277 215c0 -6.66699 -3 -10 -9 -10h-204c-6.66699 0 -10 3.33301 -10 10v46c0 6.66699 3 10 9 10h204c6.66699 0 10 -3 10 -9v-47v0z" />
    <glyph glyph-name="registered" unicode="&#xae;" horiz-adv-x="409" 
d="M211 567c18.667 0 33.001 -4.66699 43.001 -14s15 -21.666 15 -36.999c0 -10 -2.5 -19 -7.5 -27s-11.5 -14.667 -19.5 -20c-2 -1.33301 -3.33301 -2.5 -4 -3.5s-0.333984 -3.16699 0.999023 -6.5l31 -65c1.33301 -2.66699 2 -5.33398 2 -8.00098s-2.66699 -4 -8 -4h-17
c-5.33301 0 -9 2.33301 -11 7l-28 65c-1.33301 2.66699 -4.33301 4 -9 4h-11c-4 0 -6 -1.66699 -6 -5v-63c0 -5.33301 -2.33301 -8 -7 -8h-18c-5.33301 0 -8 2.33301 -8 7v170c0 5.33301 2.66699 8 8 8h54zM237.001 513c0 7.33301 -2.5 13.334 -7.5 18.001
s-11.167 7 -18.5 7h-23c-4 0 -6 -1.66699 -6 -5v-43c0 -2.66699 1.66699 -4 5 -4h21c7.33301 0 14 2.66699 20 8s9 11.666 9 18.999zM203.001 307.001c-24 0 -45.833 2.99902 -65.5 8.99902s-36.5 14.833 -50.5 26.5s-25 25.667 -33 42s-12 34.5 -12 54.5v74
c0 20 4 38.167 12 54.5s19 30.333 33 42s30.833 20.5 50.5 26.5s41.5 9 65.5 9c23.333 0 45 -3 65 -9s37.167 -14.5 51.5 -25.5s25.666 -24.833 33.999 -41.5s12.5 -35.334 12.5 -56.001v-74c0 -21.333 -4.16699 -40.166 -12.5 -56.499s-19.666 -30.166 -33.999 -41.499
s-31.5 -19.833 -51.5 -25.5s-41.667 -8.5 -65 -8.5zM335.001 514c0 29.333 -11.168 53.833 -33.501 73.5s-55.166 29.5 -98.499 29.5c-22 0 -41.167 -2.83301 -57.5 -8.5s-30 -13.167 -41 -22.5s-19.167 -20.166 -24.5 -32.499s-8 -25.5 -8 -39.5v-77
c0 -13.333 2.66699 -26.333 8 -39s13.5 -23.667 24.5 -33s24.667 -16.833 41 -22.5s35.5 -8.5 57.5 -8.5c21.333 0 40.333 2.83301 57 8.5s30.5 13.167 41.5 22.5s19.333 20.166 25 32.499s8.5 25.5 8.5 39.5v77z" />
    <glyph glyph-name="macron" unicode="&#xaf;" horiz-adv-x="438" 
d="M339 525c0 -6.66699 -3 -10 -9 -10h-213c-6.66699 0 -10 3.33301 -10 10v41c0 6.66699 3 10 9 10h213c6.66699 0 10 -3 10 -9v-42v0z" />
    <glyph glyph-name="degree" unicode="&#xb0;" horiz-adv-x="303" 
d="M265 523c0 -16 -3.33301 -30.6689 -10 -44.002s-15.5 -25 -26.5 -35s-23.667 -17.833 -38 -23.5s-29.5 -8.5 -45.5 -8.5s-31 2.83301 -45 8.5s-26.167 13.334 -36.5 23.001s-18.5 21.334 -24.5 35.001s-9 28.5 -9 44.5s3 30.667 9 44s14.167 25 24.5 35
s22.333 17.833 36 23.5s28.5 8.5 44.5 8.5c39.333 0 69.333 -10.5 90 -31.5s31 -47.5 31 -79.5zM144 587.998c-16 0 -30.166 -6.33398 -42.499 -19.001s-18.5 -28 -18.5 -46c0 -17.333 5.83301 -32.666 17.5 -45.999s26.167 -20 43.5 -20c18 0 33.5 6.5 46.5 19.5
s19.5 28.5 19.5 46.5c0 17.333 -5.83301 32.5 -17.5 45.5s-27.834 19.5 -48.501 19.5z" />
    <glyph glyph-name="plusminus" unicode="&#xb1;" horiz-adv-x="475" 
d="M435 333c0 -10 -5 -15 -15 -15h-147c-3.33301 0 -5 -1.33301 -5 -4v-147c0 -9.33301 -4.66699 -14 -14 -14h-34c-10 0 -15 4.66699 -15 14v146c0 3.33301 -1.33301 5 -4 5h-146c-10 0 -15 4.66699 -15 14v32c0 10 5 15 15 15h145c3.33301 0 5 1.33301 5 4v146
c0 10 4.66699 15 14 15h34c10 0 15 -5 15 -15v-145c0 -3.33301 1.66699 -5 5 -5h147c10 0 15 -5 15 -15v-31zM435 55c0 -10 -5 -15 -15 -15h-365c-10 0 -15 4.66699 -15 14v32c0 10 5 15 15 15h365c10 0 15 -5 15 -15v-31z" />
    <glyph glyph-name="twosuperior" unicode="&#xb2;" horiz-adv-x="309" 
d="M263 340c0 -8 -3.66797 -11.999 -11.001 -11.999h-219c-6 0 -10 0.833008 -12 2.5s-3 5.16699 -3 10.5v22c0 4.66699 0.333008 8.5 1 11.5s3 7.16699 7 12.5l146 177c3.33301 4 7.33301 10.333 12 19s7 16.667 7 24c0 14.667 -4.83301 26.667 -14.5 36
s-22.167 14 -37.5 14c-12.667 0 -24 -3.33301 -34 -10s-17.333 -13 -22 -19c-4 -5.33301 -7.16699 -8.66602 -9.5 -9.99902s-5.5 -0.333008 -9.5 3l-29 22c-6.66699 4 -7 9.66699 -1 17c13.333 18 29.333 31 48 39s38 12 58 12c36 0 64.333 -8.83301 85 -26.5
s31 -41.834 31 -72.501c0 -13.333 -4.16699 -27.833 -12.5 -43.5s-16.166 -28.167 -23.499 -37.5l-111 -137c-2 -2.66699 -2.66699 -4.83398 -2 -6.50098s2 -2.5 4 -2.5h141c2.66699 0 5.16699 -1 7.5 -3s3.5 -4.66699 3.5 -8v-34v0z" />
    <glyph glyph-name="threesuperior" unicode="&#xb3;" horiz-adv-x="309" 
d="M258 435c0 -35.333 -11 -62.668 -33 -82.001s-51.333 -29 -88 -29c-23.333 0 -44 4 -62 12s-32.667 22.667 -44 44c-1.33301 2.66699 -2 5.66699 -2 9s2.66699 6.33301 8 9l24 15c8.66699 5.33301 16.334 4.33301 23.001 -3c14 -20.667 31.667 -31 53 -31
c15.333 0 28.5 4.66699 39.5 14s16.5 21.333 16.5 36v29c0 13.333 -5.16699 25 -15.5 35s-23.166 15 -38.499 15h-39c-6 0 -9.83301 0.666992 -11.5 2s-2.5 4 -2.5 8v30c0 5.33301 0.833008 8.83301 2.5 10.5s5.16699 2.5 10.5 2.5h40c15.333 0 27.833 4.16699 37.5 12.5
s14.5 19.833 14.5 34.5s-5 26.334 -15 35.001s-22.667 13 -38 13c-12 0 -22.167 -2.33301 -30.5 -7s-15.166 -10.667 -20.499 -18c-2.66699 -3.33301 -6 -6.5 -10 -9.5s-8.66699 -2.83301 -14 0.5l-27 17c-5.33301 3.33301 -7.5 7 -6.5 11s2.5 7.66699 4.5 11
c11.333 17.333 26.166 30 44.499 38s38.166 12 59.499 12c36 0 64.667 -9.33301 86 -28s32 -43 32 -73c0 -14 -3.33301 -28 -10 -42s-16.667 -25.667 -30 -35c-1.33301 -1.33301 -1.33301 -2.33301 0 -3c13.333 -7.33301 23.666 -17.5 30.999 -30.5s11 -26.167 11 -39.5v-25
v0z" />
    <glyph glyph-name="acute" unicode="&#xb4;" horiz-adv-x="438" 
d="M233 490c-2 -2.66699 -4.99902 -4.66797 -8.99902 -6.00098s-8 -0.666016 -12 2.00098l-19 12c-6 4.66699 -7 10.667 -3 18l75 127c2 3.33301 4.5 6.5 7.5 9.5s7.16699 2.83301 12.5 -0.5l44 -29c5.33301 -4 7.66602 -8 6.99902 -12s-2 -7.33301 -4 -10z" />
    <glyph glyph-name="mu" unicode="&#xb5;" horiz-adv-x="474" 
d="M408 9c0 -6 -3.00195 -9.00098 -9.00195 -9.00098h-57c-6.66699 0 -10 3 -10 9v15c0 4.66699 -1.66699 7.33398 -5 8.00098s-6.66602 -0.333008 -9.99902 -3c-9.33301 -8.66699 -20.666 -16 -33.999 -22c-17.333 -8.66699 -37.333 -13 -60 -13
c-14 0 -26.667 1.83301 -38 5.5s-21.666 9.16699 -30.999 16.5c-6 4.66699 -10.5 5.5 -13.5 2.5s-4.5 -6.16699 -4.5 -9.5v-180c0 -6.66699 -3 -10 -9 -10h-61c-6.66699 0 -10.334 3 -11.001 9v600c0 6 3.33301 9 10 9h61c6 0 9 -3 9 -9v-271c0 -12.667 2.5 -24.667 7.5 -36
s11.833 -21.333 20.5 -30s19 -15.5 31 -20.5s24.667 -7.5 38 -7.5c28 0 50.833 9 68.5 27s26.5 40.333 26.5 67v271c0 6 3.33301 9 10 9h61c6.66699 0 10 -3 10 -9v-419v0z" />
    <glyph glyph-name="mu" unicode="&#x3bc;" horiz-adv-x="474" 
d="M408 9c0 -6 -3.00195 -9.00098 -9.00195 -9.00098h-57c-6.66699 0 -10 3 -10 9v15c0 4.66699 -1.66699 7.33398 -5 8.00098s-6.66602 -0.333008 -9.99902 -3c-9.33301 -8.66699 -20.666 -16 -33.999 -22c-17.333 -8.66699 -37.333 -13 -60 -13
c-14 0 -26.667 1.83301 -38 5.5s-21.666 9.16699 -30.999 16.5c-6 4.66699 -10.5 5.5 -13.5 2.5s-4.5 -6.16699 -4.5 -9.5v-180c0 -6.66699 -3 -10 -9 -10h-61c-6.66699 0 -10.334 3 -11.001 9v600c0 6 3.33301 9 10 9h61c6 0 9 -3 9 -9v-271c0 -12.667 2.5 -24.667 7.5 -36
s11.833 -21.333 20.5 -30s19 -15.5 31 -20.5s24.667 -7.5 38 -7.5c28 0 50.833 9 68.5 27s26.5 40.333 26.5 67v271c0 6 3.33301 9 10 9h61c6.66699 0 10 -3 10 -9v-419v0z" />
    <glyph glyph-name="paragraph" unicode="&#xb6;" horiz-adv-x="449" 
d="M192 315c-24 0 -45.834 4.16699 -65.501 12.5s-36.667 19.666 -51 33.999s-25.5 31.166 -33.5 50.499s-12 40.333 -12 63c0 22 4 42.833 12 62.5s19.333 36.834 34 51.501s31.834 26.334 51.501 35.001s41.167 13 64.5 13h87c6 0 9 -3 9 -9v-304c0 -6 -3 -9 -9 -9h-87z
M398.999 88c0 -26 -3 -49.499 -9 -70.499s-15.667 -39 -29 -54s-30.666 -26.833 -51.999 -35.5s-47.666 -14 -78.999 -16c-2.66699 0 -4.83398 0.5 -6.50098 1.5s-2.83398 3.5 -3.50098 7.5l-4 36c-1.33301 7.33301 1.33398 11.666 8.00098 12.999
c23.333 2.66699 42.166 7 56.499 13s25.5 13.667 33.5 23s13.5 20.333 16.5 33s4.5 27 4.5 43v546c0 6 3.33301 9 10 9h44c6.66699 0 10 -3 10 -9v-540z" />
    <glyph glyph-name="periodcentered" unicode="&#xb7;" horiz-adv-x="213" 
d="M161 233c0 -15.333 -5.33301 -28.332 -16 -38.999s-23.667 -16 -39 -16c-14.667 0 -27.167 5.16699 -37.5 15.5s-15.5 23.166 -15.5 38.499c0 14 5.16699 26.333 15.5 37s22.833 16 37.5 16s27.5 -5.33301 38.5 -16s16.5 -22.667 16.5 -36z" />
    <glyph glyph-name="cedilla" unicode="&#xb8;" horiz-adv-x="408" 
d="M314 -126c0 -19.333 -8.16309 -37.001 -24.4961 -53.001s-38.833 -24 -67.5 -24c-17.333 0 -32 1.83301 -44 5.5s-23.667 9.16699 -35 16.5c-5.33301 4 -5.66602 9 -0.999023 15l16 21c4 4 8 5 12 3c7.33301 -4 14.833 -7.66699 22.5 -11s16.834 -5 27.501 -5
c13.333 0 23.666 2.83301 30.999 8.5s11 13.167 11 22.5c0 2.66699 -0.333008 5.83398 -1 9.50098s-2.33398 7.16699 -5.00098 10.5s-6.5 6.33301 -11.5 9s-11.833 4 -20.5 4h-27c-12.667 0 -21.334 3.66699 -26.001 11s-5.66699 16 -3 26c3.33301 14 6.33301 26 9 36
s5.66699 20 9 30c0.666992 2 1.66699 4.66699 3 8s4 5 8 5h30c3.33301 0 5.16602 -1.83301 5.49902 -5.5s0.166016 -6.5 -0.500977 -8.5l-7.5 -28.5c-2.33301 -9 -3.83301 -15.167 -4.5 -18.5c-2.66699 -7.33301 -0.333984 -11 6.99902 -11h11
c23.333 0 41.833 -6.83301 55.5 -20.5s20.5 -32.167 20.5 -55.5z" />
    <glyph glyph-name="onesuperior" unicode="&#xb9;" horiz-adv-x="256" 
d="M180 341c0 -9.33301 -4.66602 -14 -13.999 -14h-39c-9.33301 0 -14 4.33301 -14 13v281c0 3.33301 -1 4.33301 -3 3l-43 -23c-6 -3.33301 -11.667 -4.33301 -17 -3s-8 5 -8 11v32c0 4.66699 0.666992 8.5 2 11.5s4.33301 5.83301 9 8.5l75 41
c5.33301 3.33301 10.333 5 15 5h22c7.33301 0 11.666 -1.5 12.999 -4.5s2 -7.16699 2 -12.5v-349v0z" />
    <glyph glyph-name="ordmasculine" unicode="&#xba;" horiz-adv-x="299" 
d="M271 348c0 -35.333 -10.833 -62.334 -32.5 -81.001s-51.5 -28 -89.5 -28c-37.333 0 -66.833 9.33301 -88.5 28s-32.5 45.334 -32.5 80.001v70c0 32.667 11 58.667 33 78s51.333 29 88 29s66.167 -9.33301 88.5 -28s33.5 -45 33.5 -79v-69zM206 416.999
c0 14.667 -5.16797 26.834 -15.501 36.501s-24.166 14.5 -41.499 14.5c-16.667 0 -30.167 -4.83301 -40.5 -14.5s-15.5 -21.834 -15.5 -36.501v-70c0 -15.333 5 -28.166 15 -38.499s23.667 -15.5 41 -15.5s31 5.16699 41 15.5s15.333 23.166 16 38.499v70z" />
    <glyph glyph-name="guillemotright" unicode="&#xbb;" horiz-adv-x="479" 
d="M318 37c-6 -7.33301 -11.332 -12.332 -15.999 -14.999s-10.667 -4 -18 -4h-48c-4.66699 0 -8 2 -10 6s-1 8.66699 3 14l122 151c2.66699 3.33301 4.16699 6.16602 4.5 8.49902s-1.16699 6.16602 -4.5 11.499l-124 155c-4 4.66699 -5.33301 8.83398 -4 12.501
s5.66602 5.5 12.999 5.5h49c8.66699 0 15 -1.5 19 -4.5s8 -6.83301 12 -11.5l115 -146c5.33301 -6.66699 8.33301 -13.167 9 -19.5s-2.33301 -13.833 -9 -22.5zM139.001 37.001c-6 -7.33301 -11.335 -12.332 -16.002 -14.999s-10.667 -4 -18 -4h-47c-5.33301 0 -9 2 -11 6
s-1 8.66699 3 14l122 151c2.66699 3.33301 4.33398 6.16602 5.00098 8.49902s-1 6.16602 -5 11.499l-124 155c-4 4.66699 -5.16699 8.83398 -3.5 12.501s6.16699 5.5 13.5 5.5h48c9.33301 0 16 -1.5 20 -4.5s7.66699 -6.83301 11 -11.5l116 -146
c5.33301 -6.66699 8.33301 -13.167 9 -19.5s-2.66602 -13.833 -9.99902 -22.5z" />
    <glyph glyph-name="onequarter" unicode="&#xbc;" horiz-adv-x="700" 
d="M214 251c0 -9.33301 -4.66602 -14 -13.999 -14h-39c-9.33301 0 -14 4.33301 -14 13v281c0 3.33301 -1 4.33301 -3 3l-43 -23c-6 -3.33301 -11.667 -4.33301 -17 -3s-8 5 -8 11v32c0 4.66699 0.666992 8.5 2 11.5s4.33301 5.83301 9 8.5l75 41
c5.33301 3.33301 10.333 5 15 5h22c7.33301 0 11.666 -1.5 12.999 -4.5s2 -7.16699 2 -12.5v-349zM214.001 -23c-1.33301 -3.33301 -3.00098 -5.33301 -5.00098 -6s-4.33301 -1 -7 -1h-36c-6 0 -7.66699 3 -5 9l278 660c2 4 4.16699 6.33301 6.5 7s4.5 1 6.5 1h30
c6 0 9.33301 -1 10 -3s0.333984 -5 -0.999023 -9zM534 380c2.66699 0 4.66699 -0.833008 6 -2.5s1.33301 -3.83398 0 -6.50098l-117 -228c-0.666992 -1.33301 -1 -2.83301 -1 -4.5s2 -2.5 6 -2.5h72c3.33301 0 5.33301 1 6 3s1 3.66699 1 5v87c0 4 2 6 6 6h48
c4.66699 0 7 -2 7 -6v-86c0 -3.33301 0.333008 -5.66602 1 -6.99902s2.66699 -2 6 -2h41c4.66699 0 7 -2 7 -6v-40c0 -4 -2.33301 -6 -7 -6h-39c-6 0 -9 -2.66699 -9 -8v-70c0 -4 -2.33301 -6 -7 -6h-48c-4 0 -6 2 -6 6v70c0 5.33301 -3 8 -9 8h-147c-4.66699 0 -7 2 -7 6
v17c0 7.33301 0.333008 12.5 1 15.5s2.33398 6.83301 5.00098 11.5l128 244c1.33301 1.33301 3.66602 2 6.99902 2h49z" />
    <glyph glyph-name="onehalf" unicode="&#xbd;" horiz-adv-x="700" 
d="M204 251c0 -9.33301 -4.66602 -14 -13.999 -14h-39c-9.33301 0 -14 4.33301 -14 13v281c0 3.33301 -1 4.33301 -3 3l-43 -23c-6 -3.33301 -11.667 -4.33301 -17 -3s-8 5 -8 11v32c0 4.66699 0.666992 8.5 2 11.5s4.33301 5.83301 9 8.5l75 41
c5.33301 3.33301 10.333 5 15 5h22c7.33301 0 11.666 -1.5 12.999 -4.5s2 -7.16699 2 -12.5v-349zM207.001 -23c-1.33301 -3.33301 -3.00098 -5.33301 -5.00098 -6s-4.33301 -1 -7 -1h-36c-6 0 -7.66699 3 -5 9l278 660c2 4 4.16699 6.33301 6.5 7s4.5 1 6.5 1h30
c6 0 9.33301 -1 10 -3s0.333984 -5 -0.999023 -9zM633 12c0 -8 -3.66797 -11.999 -11.001 -11.999h-219c-6 0 -10 0.833008 -12 2.5s-3 5.16699 -3 10.5v22c0 4.66699 0.333008 8.5 1 11.5s3 7.16699 7 12.5l146 177c3.33301 4 7.33301 10.333 12 19s7 16.667 7 24
c0 14.667 -4.83301 26.667 -14.5 36s-22.167 14 -37.5 14c-12.667 0 -24 -3.33301 -34 -10s-17.333 -13 -22 -19c-4 -5.33301 -7.16699 -8.66602 -9.5 -9.99902s-5.5 -0.333008 -9.5 3l-29 22c-6.66699 4 -7 9.66699 -1 17c13.333 18 29.333 31 48 39s38 12 58 12
c36 0 64.333 -8.83301 85 -26.5s31 -41.834 31 -72.501c0 -13.333 -4.16699 -27.833 -12.5 -43.5s-16.166 -28.167 -23.499 -37.5l-111 -137c-2 -2.66699 -2.66699 -4.83398 -2 -6.50098s2 -2.5 4 -2.5h141c2.66699 0 5.16699 -1 7.5 -3s3.5 -4.66699 3.5 -8v-34z" />
    <glyph glyph-name="threequarters" unicode="&#xbe;" horiz-adv-x="700" 
d="M554 380c2.66699 0 4.66699 -0.833008 6 -2.5s1.33301 -3.83398 0 -6.50098l-117 -228c-0.666992 -1.33301 -1 -2.83301 -1 -4.5s2 -2.5 6 -2.5h72c3.33301 0 5.33301 1 6 3s1 3.66699 1 5v87c0 4 2 6 6 6h48c4.66699 0 7 -2 7 -6v-86
c0 -3.33301 0.333008 -5.66602 1 -6.99902s2.66699 -2 6 -2h41c4.66699 0 7 -2 7 -6v-40c0 -4 -2.33301 -6 -7 -6h-39c-6 0 -9 -2.66699 -9 -8v-70c0 -4 -2.33301 -6 -7 -6h-48c-4 0 -6 2 -6 6v70c0 5.33301 -3 8 -9 8h-147c-4.66699 0 -7 2 -7 6v17
c0 7.33301 0.333008 12.5 1 15.5s2.33398 6.83301 5.00098 11.5l128 244c1.33301 1.33301 3.66602 2 6.99902 2h49zM265 345c0 -35.333 -11 -62.668 -33 -82.001s-51.333 -29 -88 -29c-23.333 0 -44 4 -62 12s-32.667 22.667 -44 44c-1.33301 2.66699 -2 5.66699 -2 9
s2.66699 6.33301 8 9l24 15c8.66699 5.33301 16.334 4.33301 23.001 -3c14 -20.667 31.667 -31 53 -31c15.333 0 28.5 4.66699 39.5 14s16.5 21.333 16.5 36v29c0 13.333 -5.16699 25 -15.5 35s-23.166 15 -38.499 15h-39c-6 0 -9.83301 0.666992 -11.5 2s-2.5 4 -2.5 8v30
c0 5.33301 0.833008 8.83301 2.5 10.5s5.16699 2.5 10.5 2.5h40c15.333 0 27.833 4.16699 37.5 12.5s14.5 19.833 14.5 34.5s-5 26.334 -15 35.001s-22.667 13 -38 13c-12 0 -22.167 -2.33301 -30.5 -7s-15.166 -10.667 -20.499 -18c-2.66699 -3.33301 -6 -6.5 -10 -9.5
s-8.66699 -2.83301 -14 0.5l-27 17c-5.33301 3.33301 -7.5 7 -6.5 11s2.5 7.66699 4.5 11c11.333 17.333 26.166 30 44.499 38s38.166 12 59.499 12c36 0 64.667 -9.33301 86 -28s32 -43 32 -73c0 -14 -3.33301 -28 -10 -42s-16.667 -25.667 -30 -35
c-1.33301 -1.33301 -1.33301 -2.33301 0 -3c13.333 -7.33301 23.666 -17.5 30.999 -30.5s11 -26.167 11 -39.5v-25zM231 -23.002c-1.33301 -3.33301 -3.00098 -5.33301 -5.00098 -6s-4.33301 -1 -7 -1h-36c-6 0 -7.66699 3 -5 9l278 660c2 4 4.16699 6.33301 6.5 7
s4.5 1 6.5 1h30c6 0 9.33301 -1 10 -3s0.333984 -5 -0.999023 -9z" />
    <glyph glyph-name="questiondown" unicode="&#xbf;" horiz-adv-x="491" 
d="M84 -39c0 32.667 9.16895 62.3369 27.502 89.0039s43.5 49.667 75.5 69c28 17.333 49.167 34.666 63.5 51.999s21.5 38.666 21.5 63.999v21c0 9.33301 3 14 9 14h58c5.33301 0 9 -0.833008 11 -2.5s3 -5.83398 3 -12.501v-34c0 -25.333 -7 -50.666 -21 -75.999
s-33.667 -46.666 -59 -63.999c-30.667 -20.667 -55.5 -39.334 -74.5 -56.001s-29.5 -36.334 -31.5 -59.001c-1.33301 -11.333 0 -22.833 4 -34.5s10 -22 18 -31s18 -16.333 30 -22s25.333 -8.5 40 -8.5c23.333 0 41.666 4.66699 54.999 14s24.333 20.333 33 33
c1.33301 1.33301 2.33301 2.66602 3 3.99902s1.66699 3 3 5c5.33301 7.33301 12 8.33301 20 3l44 -28c4 -2.66699 6 -5.33398 6 -8.00098s-0.666992 -5.66699 -2 -9c-17.333 -28.667 -39.833 -49.667 -67.5 -63s-57.5 -20 -89.5 -20c-24.667 0 -47.834 3.33301 -69.501 10
s-40.667 16.834 -57 30.501s-29.333 30.5 -39 50.5s-14.5 43 -14.5 69zM259.002 385.003c0 14.667 5.16699 27.167 15.5 37.5s23.5 15.5 39.5 15.5c14.667 0 27.334 -5.16699 38.001 -15.5s16 -22.833 16 -37.5s-5.33301 -27.167 -16 -37.5s-23.334 -15.5 -38.001 -15.5
c-15.333 0 -28.333 5 -39 15s-16 22.667 -16 38z" />
    <glyph glyph-name="Agrave" unicode="&#xc0;" horiz-adv-x="457" 
d="M366 0c-8.66699 0 -13.333 2.33496 -14 7.00195l-33 130c-1.33301 2.66699 -2.66602 4 -3.99902 4h-177c-2.66699 0 -4.16699 -0.333008 -4.5 -1s-0.833008 -1.33398 -1.5 -2.00098l-32 -131c-0.666992 -4.66699 -5 -7 -13 -7h-54c-5.33301 0 -9.16602 1 -11.499 3
s-2.83301 6 -1.5 12l148 590c0.666992 3.33301 2.16699 6.16602 4.5 8.49902s6.16602 3.5 11.499 3.5h85c8 0 13 -3.33301 15 -10l152 -590c1.33301 -3.33301 1.66602 -7 0.999023 -11s-4 -6 -10 -6h-61zM196.001 402.002l-44.998 -184
c-0.666992 -3.33301 -0.833984 -5.5 -0.500977 -6.5s2.16602 -1.5 5.49902 -1.5h138c3.33301 0 5.33301 0.5 6 1.5s0.666992 3.16699 0 6.5l-44 180l-28 126c-0.666992 2 -1.5 3 -2.5 3s-1.83301 -0.666992 -2.5 -2zM79.0029 712.002
c-3.33301 1.33301 -6 3.66895 -8 7.00195s-1 7.66602 3 12.999l30 44c3.33301 3.33301 7 4.66602 11 3.99902s7.66699 -2.33398 11 -5.00098l116 -92c6.66699 -5.33301 7.66699 -11.333 3 -18l-13 -18c-2.66699 -3.33301 -6 -5.16602 -10 -5.49902
s-7.66699 0.166992 -11 1.5z" />
    <glyph glyph-name="Aacute" unicode="&#xc1;" horiz-adv-x="457" 
d="M366 0c-8.66699 0 -13.333 2.33496 -14 7.00195l-33 130c-1.33301 2.66699 -2.66602 4 -3.99902 4h-177c-2.66699 0 -4.16699 -0.333008 -4.5 -1s-0.833008 -1.33398 -1.5 -2.00098l-32 -131c-0.666992 -4.66699 -5 -7 -13 -7h-54c-5.33301 0 -9.16602 1 -11.499 3
s-2.83301 6 -1.5 12l148 590c0.666992 3.33301 2.16699 6.16602 4.5 8.49902s6.16602 3.5 11.499 3.5h85c8 0 13 -3.33301 15 -10l152 -590c1.33301 -3.33301 1.66602 -7 0.999023 -11s-4 -6 -10 -6h-61zM196.001 402.002l-44.998 -184
c-0.666992 -3.33301 -0.833984 -5.5 -0.500977 -6.5s2.16602 -1.5 5.49902 -1.5h138c3.33301 0 5.33301 0.5 6 1.5s0.666992 3.16699 0 6.5l-44 180l-28 126c-0.666992 2 -1.5 3 -2.5 3s-1.83301 -0.666992 -2.5 -2zM232.003 646.002
c-3.33301 -1.33301 -7 -1.83594 -11 -1.50293s-7.33301 2.16602 -10 5.49902l-13 18c-5.33301 6.66699 -4.33301 12.667 3 18l116 92c3.33301 2.66699 7 4.33398 11 5.00098s7.66699 -0.666016 11 -3.99902l30 -44c4 -5.33301 5 -9.66602 3 -12.999
s-4.66699 -5.66602 -8 -6.99902z" />
    <glyph glyph-name="Acircumflex" unicode="&#xc2;" horiz-adv-x="457" 
d="M366 0c-8.66699 0 -13.333 2.33496 -14 7.00195l-33 130c-1.33301 2.66699 -2.66602 4 -3.99902 4h-177c-2.66699 0 -4.16699 -0.333008 -4.5 -1s-0.833008 -1.33398 -1.5 -2.00098l-32 -131c-0.666992 -4.66699 -5 -7 -13 -7h-54c-5.33301 0 -9.16602 1 -11.499 3
s-2.83301 6 -1.5 12l148 590c0.666992 3.33301 2.16699 6.16602 4.5 8.49902s6.16602 3.5 11.499 3.5h85c8 0 13 -3.33301 15 -10l152 -590c1.33301 -3.33301 1.66602 -7 0.999023 -11s-4 -6 -10 -6h-61zM196.001 402.002l-44.998 -184
c-0.666992 -3.33301 -0.833984 -5.5 -0.500977 -6.5s2.16602 -1.5 5.49902 -1.5h138c3.33301 0 5.33301 0.5 6 1.5s0.666992 3.16699 0 6.5l-44 180l-28 126c-0.666992 2 -1.5 3 -2.5 3s-1.83301 -0.666992 -2.5 -2zM180.003 774.002
c3.33301 3.33301 6.49902 5.66602 9.49902 6.99902s7.16699 2 12.5 2h32c5.33301 0 9.5 -0.666992 12.5 -2s6.16699 -3.66602 9.5 -6.99902l96 -99c7.33301 -6 7 -11.667 -1 -17l-14 -10c-4.66699 -3.33301 -8.66699 -4.66602 -12 -3.99902
s-6.66602 2.33398 -9.99902 5.00098l-88 61c-4.66699 4.66699 -9.66699 4.66699 -15 0l-91 -61c-4 -2.66699 -7.5 -4.33398 -10.5 -5.00098s-6.83301 0.666016 -11.5 3.99902l-14 10c-8 5.33301 -8.33301 11 -1 17z" />
    <glyph glyph-name="Atilde" unicode="&#xc3;" horiz-adv-x="457" 
d="M366 0c-8.66699 0 -13.333 2.33496 -14 7.00195l-33 130c-1.33301 2.66699 -2.66602 4 -3.99902 4h-177c-2.66699 0 -4.16699 -0.333008 -4.5 -1s-0.833008 -1.33398 -1.5 -2.00098l-32 -131c-0.666992 -4.66699 -5 -7 -13 -7h-54c-5.33301 0 -9.16602 1 -11.499 3
s-2.83301 6 -1.5 12l148 590c0.666992 3.33301 2.16699 6.16602 4.5 8.49902s6.16602 3.5 11.499 3.5h85c8 0 13 -3.33301 15 -10l152 -590c1.33301 -3.33301 1.66602 -7 0.999023 -11s-4 -6 -10 -6h-61zM196.001 402.002l-44.998 -184
c-0.666992 -3.33301 -0.833984 -5.5 -0.500977 -6.5s2.16602 -1.5 5.49902 -1.5h138c3.33301 0 5.33301 0.5 6 1.5s0.666992 3.16699 0 6.5l-44 180l-28 126c-0.666992 2 -1.5 3 -2.5 3s-1.83301 -0.666992 -2.5 -2zM353.003 716.002
c-10.667 -22.667 -23.1641 -38.833 -37.4971 -48.5s-27.833 -14.5 -40.5 -14.5c-10.667 0 -20.834 1.83301 -30.501 5.5s-18.834 7.66699 -27.501 12s-17.167 8.33301 -25.5 12s-16.833 5.5 -25.5 5.5c-5.33301 0 -11.5 -3.16699 -18.5 -9.5s-12.833 -13.5 -17.5 -21.5
c-4 -6.66699 -9.66699 -8 -17 -4l-27 16c-3.33301 1.33301 -4.66602 3.66602 -3.99902 6.99902s1.66699 6.33301 3 9c8.66699 16.667 19.667 31.334 33 44.001s28.333 19 45 19c10 0 19.833 -2 29.5 -6s19 -8.16699 28 -12.5l26.5 -12.5c8.66699 -4 16.667 -6 24 -6
s14 3.5 20 10.5s11.333 14.5 16 22.5c1.33301 2 2.66602 3.66699 3.99902 5s3.66602 1 6.99902 -1l32 -15c6 -2 7 -7.66699 3 -17z" />
    <glyph glyph-name="Adieresis" unicode="&#xc4;" horiz-adv-x="457" 
d="M366 0c-8.66699 0 -13.333 2.33496 -14 7.00195l-33 130c-1.33301 2.66699 -2.66602 4 -3.99902 4h-177c-2.66699 0 -4.16699 -0.333008 -4.5 -1s-0.833008 -1.33398 -1.5 -2.00098l-32 -131c-0.666992 -4.66699 -5 -7 -13 -7h-54c-5.33301 0 -9.16602 1 -11.499 3
s-2.83301 6 -1.5 12l148 590c0.666992 3.33301 2.16699 6.16602 4.5 8.49902s6.16602 3.5 11.499 3.5h85c8 0 13 -3.33301 15 -10l152 -590c1.33301 -3.33301 1.66602 -7 0.999023 -11s-4 -6 -10 -6h-61zM196.001 402.002l-44.998 -184
c-0.666992 -3.33301 -0.833984 -5.5 -0.500977 -6.5s2.16602 -1.5 5.49902 -1.5h138c3.33301 0 5.33301 0.5 6 1.5s0.666992 3.16699 0 6.5l-44 180l-28 126c-0.666992 2 -1.5 3 -2.5 3s-1.83301 -0.666992 -2.5 -2zM347.003 700.002
c0 -13.333 -4.33398 -24.5 -13.001 -33.5s-19.667 -13.5 -33 -13.5s-24.666 4.5 -33.999 13.5s-14 20.167 -14 33.5s4.5 24.5 13.5 33.5s20.167 13.5 33.5 13.5s24.5 -4.5 33.5 -13.5s13.5 -20.167 13.5 -33.5zM185.002 700.002c0 -13.333 -4.5 -24.5 -13.5 -33.5
s-20.167 -13.5 -33.5 -13.5s-24.5 4.5 -33.5 13.5s-13.5 20.167 -13.5 33.5s4.5 24.5 13.5 33.5s20.167 13.5 33.5 13.5s24.5 -4.5 33.5 -13.5s13.5 -20.167 13.5 -33.5z" />
    <glyph glyph-name="Aring" unicode="&#xc5;" horiz-adv-x="457" 
d="M366 0c-8.66699 0 -13.333 2.33496 -14 7.00195l-33 130c-1.33301 2.66699 -2.66602 4 -3.99902 4h-177c-2.66699 0 -4.16699 -0.333008 -4.5 -1s-0.833008 -1.33398 -1.5 -2.00098l-32 -131c-0.666992 -4.66699 -5 -7 -13 -7h-54c-5.33301 0 -9.16602 1 -11.499 3
s-2.83301 6 -1.5 12l148 590c0.666992 3.33301 2.16699 6.16602 4.5 8.49902s6.16602 3.5 11.499 3.5h85c8 0 13 -3.33301 15 -10l152 -590c1.33301 -3.33301 1.66602 -7 0.999023 -11s-4 -6 -10 -6h-61zM196.001 402.002l-44.998 -184
c-0.666992 -3.33301 -0.833984 -5.5 -0.500977 -6.5s2.16602 -1.5 5.49902 -1.5h138c3.33301 0 5.33301 0.5 6 1.5s0.666992 3.16699 0 6.5l-44 180l-28 126c-0.666992 2 -1.5 3 -2.5 3s-1.83301 -0.666992 -2.5 -2zM304.003 720.002
c0 -11.333 -2.16602 -22.1631 -6.49902 -32.4961s-10.5 -19.333 -18.5 -27s-17.167 -13.834 -27.5 -18.501s-21.5 -7 -33.5 -7s-23.167 2.16699 -33.5 6.5s-19.333 10.166 -27 17.499s-13.834 16.166 -18.501 26.499s-7 21.166 -7 32.499s2.16699 22.166 6.5 32.499
s10.5 19.5 18.5 27.5s17.167 14.333 27.5 19s21.5 7 33.5 7c23.333 0 43.5 -8.16699 60.5 -24.5s25.5 -36.166 25.5 -59.499zM261.004 719.005c0 11.333 -4.33301 21.5 -13 30.5s-18.667 13.5 -30 13.5s-21 -4.33301 -29 -13s-12 -19 -12 -31s4 -22.167 12 -30.5
s17.667 -12.5 29 -12.5s21.333 4.16699 30 12.5s13 18.5 13 30.5z" />
    <glyph glyph-name="AE" unicode="&#xc6;" horiz-adv-x="729" 
d="M699 12c0 -8 -3.99902 -12 -11.999 -12h-326c-8 0 -12 3.66699 -12 11v126c0 3.33301 -0.5 6.33301 -1.5 9s-4.16699 4 -9.5 4h-181c-2.66699 0 -4.16699 -0.333008 -4.5 -1l-1.5 -3l-48 -136c-2.66699 -6.66699 -7.33398 -10 -14.001 -10h-56
c-6 -0 -9.66699 1.83301 -11 5.5s-1.33301 8.16699 0 13.5l217 584c1.33301 2.66699 3.33301 5.66699 6 9s8 5 16 5h422c8.66699 0 13 -3.66699 13 -11v-49c0 -8 -4 -12 -12 -12h-242c-6 0 -9 -2.66699 -9 -8v-176c0 -5.33301 2.66699 -8 8 -8h200c8 0 12 -4 12 -12v-50
c0 -7.33301 -3.66699 -11 -11 -11h-200c-6 0 -9 -3 -9 -9v-189c0 -6 2.66699 -9 8 -9h246c8 0 12 -3.66699 12 -11v-50zM301.001 545c-5.33301 0 -9.33301 -3 -12 -9l-108 -305c-2 -4.66699 -0.666992 -7 4 -7h153c7.33301 0 11 4 11 12v301c0 5.33301 -3 8 -9 8h-39z" />
    <glyph glyph-name="Ccedilla" unicode="&#xc7;" horiz-adv-x="430" 
d="M350 -126c0 -19.333 -8.16406 -37 -24.4971 -53s-38.833 -24 -67.5 -24c-17.333 0 -32 1.83301 -44 5.5s-23.667 9.16699 -35 16.5c-5.33301 4 -5.66602 9 -0.999023 15l16 21c4 4 8 5 12 3c7.33301 -4 14.833 -7.66699 22.5 -11s16.834 -5 27.501 -5
c13.333 0 23.666 2.83301 30.999 8.5s11 13.167 11 22.5c0 2.66699 -0.333008 5.83398 -1 9.50098s-2.33398 7.16699 -5.00098 10.5s-6.5 6.33301 -11.5 9s-11.833 4 -20.5 4h-27c-12.667 0 -21.334 3.66699 -26.001 11s-5.66699 16 -3 26l7 29c2 8 4.33301 16 7 24
c-46.667 4.66699 -85 21.167 -115 49.5s-45 67.5 -45 117.5v292c0 26 4.5 49.5 13.5 70.5s21.5 38.833 37.5 53.5s35.167 26 57.5 34s46.833 12 73.5 12c30.667 0 60.334 -5 89.001 -15s55.667 -29.667 81 -59c3.33301 -4 5 -7.5 5 -10.5s-2.66699 -6.83301 -8 -11.5
l-38 -32c-2.66699 -2.66699 -6.16699 -3.5 -10.5 -2.5s-7.83301 3.16699 -10.5 6.5c-12 15.333 -27.667 27.666 -47 36.999s-39.333 14 -60 14c-32 0 -56.5 -9 -73.5 -27s-25.5 -41.333 -25.5 -70v-291c0 -28 9.33301 -51.167 28 -69.5s44 -27.5 76 -27.5
c20.667 0 40 5.16699 58 15.5s32.667 21.166 44 32.499c3.33301 4 6.66602 7.16699 9.99902 9.5s7.66602 1.5 12.999 -2.5l40 -33c2 -1.33301 3.16699 -3.66602 3.5 -6.99902s-0.166992 -6.33301 -1.5 -9c-18 -23.333 -39.833 -41.5 -65.5 -54.5
s-53.167 -20.833 -82.5 -23.5l-9 -34c-2.66699 -7.33301 -0.333984 -11 6.99902 -11h11c23.333 0 41.833 -6.83301 55.5 -20.5s20.5 -32.167 20.5 -55.5z" />
    <glyph glyph-name="Egrave" unicode="&#xc8;" horiz-adv-x="440" 
d="M410 12c0 -8 -4 -12 -12 -12h-326c-8 0 -12 3.66699 -12 11v595c0 7.33301 4 11 12 11h322c8.66699 0 13 -3.66699 13 -11v-49c0 -8 -4 -12 -12 -12h-243c-5.33301 0 -8 -2.66699 -8 -8v-171c0 -5.33301 2.33301 -8 7 -8h201c8 0 12 -4 12 -12v-50
c0 -7.33301 -3.66699 -11 -11 -11h-201c-5.33301 0 -8 -3 -8 -9v-194c0 -6 2.33301 -9 7 -9h247c8 0 12 -3.66699 12 -11v-50zM102 712c-3.33301 1.33301 -6 3.66895 -8 7.00195s-1 7.66602 3 12.999l30 44c3.33301 3.33301 7 4.66602 11 3.99902
s7.66699 -2.33398 11 -5.00098l116 -92c6.66699 -5.33301 7.66699 -11.333 3 -18l-13 -18c-2.66699 -3.33301 -6 -5.16602 -10 -5.49902s-7.66699 0.166992 -11 1.5z" />
    <glyph glyph-name="Eacute" unicode="&#xc9;" horiz-adv-x="440" 
d="M410 12c0 -8 -4 -12 -12 -12h-326c-8 0 -12 3.66699 -12 11v595c0 7.33301 4 11 12 11h322c8.66699 0 13 -3.66699 13 -11v-49c0 -8 -4 -12 -12 -12h-243c-5.33301 0 -8 -2.66699 -8 -8v-171c0 -5.33301 2.33301 -8 7 -8h201c8 0 12 -4 12 -12v-50
c0 -7.33301 -3.66699 -11 -11 -11h-201c-5.33301 0 -8 -3 -8 -9v-194c0 -6 2.33301 -9 7 -9h247c8 0 12 -3.66699 12 -11v-50zM205 646c-3.33301 -1.33301 -7 -1.83594 -11 -1.50293s-7.33301 2.16602 -10 5.49902l-13 18c-5.33301 6.66699 -4.33301 12.667 3 18l116 92
c3.33301 2.66699 7 4.33398 11 5.00098s7.66699 -0.666016 11 -3.99902l30 -44c4 -5.33301 5 -9.66602 3 -12.999s-4.66699 -5.66602 -8 -6.99902z" />
    <glyph glyph-name="Ecircumflex" unicode="&#xca;" horiz-adv-x="440" 
d="M410 12c0 -8 -4 -12 -12 -12h-326c-8 0 -12 3.66699 -12 11v595c0 7.33301 4 11 12 11h322c8.66699 0 13 -3.66699 13 -11v-49c0 -8 -4 -12 -12 -12h-243c-5.33301 0 -8 -2.66699 -8 -8v-171c0 -5.33301 2.33301 -8 7 -8h201c8 0 12 -4 12 -12v-50
c0 -7.33301 -3.66699 -11 -11 -11h-201c-5.33301 0 -8 -3 -8 -9v-194c0 -6 2.33301 -9 7 -9h247c8 0 12 -3.66699 12 -11v-50zM186 774c3.33301 3.33301 6.49902 5.66602 9.49902 6.99902s7.16699 2 12.5 2h32c5.33301 0 9.5 -0.666992 12.5 -2
s6.16699 -3.66602 9.5 -6.99902l96 -99c7.33301 -6 7 -11.667 -1 -17l-14 -10c-4.66699 -3.33301 -8.66699 -4.66602 -12 -3.99902s-6.66602 2.33398 -9.99902 5.00098l-88 61c-4.66699 4.66699 -9.66699 4.66699 -15 0l-91 -61c-4 -2.66699 -7.5 -4.33398 -10.5 -5.00098
s-6.83301 0.666016 -11.5 3.99902l-14 10c-8 5.33301 -8.33301 11 -1 17z" />
    <glyph glyph-name="Edieresis" unicode="&#xcb;" horiz-adv-x="440" 
d="M410 12c0 -8 -4 -12 -12 -12h-326c-8 0 -12 3.66699 -12 11v595c0 7.33301 4 11 12 11h322c8.66699 0 13 -3.66699 13 -11v-49c0 -8 -4 -12 -12 -12h-243c-5.33301 0 -8 -2.66699 -8 -8v-171c0 -5.33301 2.33301 -8 7 -8h201c8 0 12 -4 12 -12v-50
c0 -7.33301 -3.66699 -11 -11 -11h-201c-5.33301 0 -8 -3 -8 -9v-194c0 -6 2.33301 -9 7 -9h247c8 0 12 -3.66699 12 -11v-50zM354 700c0 -13.333 -4.33398 -24.5 -13.001 -33.5s-19.667 -13.5 -33 -13.5s-24.666 4.5 -33.999 13.5s-14 20.167 -14 33.5s4.5 24.5 13.5 33.5
s20.167 13.5 33.5 13.5s24.5 -4.5 33.5 -13.5s13.5 -20.167 13.5 -33.5zM191.999 700c0 -13.333 -4.5 -24.5 -13.5 -33.5s-20.167 -13.5 -33.5 -13.5s-24.5 4.5 -33.5 13.5s-13.5 20.167 -13.5 33.5s4.5 24.5 13.5 33.5s20.167 13.5 33.5 13.5s24.5 -4.5 33.5 -13.5
s13.5 -20.167 13.5 -33.5z" />
    <glyph glyph-name="Igrave" unicode="&#xcc;" horiz-adv-x="241" 
d="M162 12c0 -8 -4 -12 -12 -12h-62c-8 0 -12 3.66699 -12 11v595c0 7.33301 4 11 12 11h62c8 0 12 -3.33301 12 -10v-595zM-32 712c-3.33301 1.33301 -6 3.66895 -8 7.00195s-1 7.66602 3 12.999l30 44c3.33301 3.33301 7 4.66602 11 3.99902s7.66699 -2.33398 11 -5.00098
l116 -92c6.66699 -5.33301 7.66699 -11.333 3 -18l-13 -18c-2.66699 -3.33301 -6 -5.16602 -10 -5.49902s-7.66699 0.166992 -11 1.5z" />
    <glyph glyph-name="Iacute" unicode="&#xcd;" horiz-adv-x="241" 
d="M162 12c0 -8 -4 -12 -12 -12h-62c-8 0 -12 3.66699 -12 11v595c0 7.33301 4 11 12 11h62c8 0 12 -3.33301 12 -10v-595zM126 646c-3.33301 -1.33301 -7 -1.83594 -11 -1.50293s-7.33301 2.16602 -10 5.49902l-13 18c-5.33301 6.66699 -4.33301 12.667 3 18l116 92
c3.33301 2.66699 7 4.33398 11 5.00098s7.66699 -0.666016 11 -3.99902l30 -44c4 -5.33301 5 -9.66602 3 -12.999s-4.66699 -5.66602 -8 -6.99902z" />
    <glyph glyph-name="Icircumflex" unicode="&#xce;" horiz-adv-x="241" 
d="M162 12c0 -8 -4 -12 -12 -12h-62c-8 0 -12 3.66699 -12 11v595c0 7.33301 4 11 12 11h62c8 0 12 -3.33301 12 -10v-595zM80 782c3.33301 3.33301 6.49902 5.66602 9.49902 6.99902s7.16699 2 12.5 2h32c5.33301 0 9.5 -0.666992 12.5 -2s6.16699 -3.66602 9.5 -6.99902
l96 -99c7.33301 -6 7 -11.667 -1 -17l-14 -10c-4.66699 -3.33301 -8.66699 -4.66602 -12 -3.99902s-6.66602 2.33398 -9.99902 5.00098l-88 61c-4.66699 4.66699 -9.66699 4.66699 -15 0l-91 -61c-4 -2.66699 -7.5 -4.33398 -10.5 -5.00098s-6.83301 0.666016 -11.5 3.99902
l-14 10c-8 5.33301 -8.33301 11 -1 17z" />
    <glyph glyph-name="Idieresis" unicode="&#xcf;" horiz-adv-x="241" 
d="M162 12c0 -8 -4 -12 -12 -12h-62c-8 0 -12 3.66699 -12 11v595c0 7.33301 4 11 12 11h62c8 0 12 -3.33301 12 -10v-595zM247 700c0 -13.333 -4.33398 -24.5 -13.001 -33.5s-19.667 -13.5 -33 -13.5s-24.666 4.5 -33.999 13.5s-14 20.167 -14 33.5s4.5 24.5 13.5 33.5
s20.167 13.5 33.5 13.5s24.5 -4.5 33.5 -13.5s13.5 -20.167 13.5 -33.5zM84.999 700c0 -13.333 -4.5 -24.5 -13.5 -33.5s-20.167 -13.5 -33.5 -13.5s-24.5 4.5 -33.5 13.5s-13.5 20.167 -13.5 33.5s4.5 24.5 13.5 33.5s20.167 13.5 33.5 13.5s24.5 -4.5 33.5 -13.5
s13.5 -20.167 13.5 -33.5z" />
    <glyph glyph-name="Eth" unicode="&#xd0;" horiz-adv-x="486" 
d="M61 606c0 7.33301 4 10.999 12 10.999h172c60 0 105.833 -15.667 137.5 -47s47.5 -75.666 47.5 -132.999v-251c0 -62 -16.167 -108.5 -48.5 -139.5s-77.833 -46.5 -136.5 -46.5h-172c-8 0 -12 3.66699 -12 11v265c0 6 -2.66699 9 -8 9h-32c-8 0 -12 4 -12 12v36
c0 8 3.66699 12 11 12h33c5.33301 0 8 3 8 9v252zM144 81.999c0 -6 2.66504 -9.00098 7.99805 -9.00098h95c32.667 0 57.334 8.83301 74.001 26.5s25 42.167 25 73.5v273c0 34.667 -9.83301 59.834 -29.5 75.501s-45.167 23.5 -76.5 23.5h-87c-6 0 -9 -2.66699 -9 -8v-182
c0 -4.66699 0.833008 -7.5 2.5 -8.5s3.83398 -1.5 6.50098 -1.5h70c8 0 12 -3.66699 12 -11v-37c0 -8 -3.66699 -12 -11 -12h-72c-5.33301 0 -8 -3 -8 -9v-194z" />
    <glyph glyph-name="Ntilde" unicode="&#xd1;" horiz-adv-x="519" 
d="M118 617c8 0 13.6689 -1.5 17.002 -4.5s6.66602 -6.83301 9.99902 -11.5l233 -429c0.666992 -1.33301 1.33398 -2.16602 2.00098 -2.49902s1 0.166992 1 1.5v435c0 7.33301 3.66699 11 11 11h56c8 0 12 -3.33301 12 -10v-587c0 -8.66699 -2.16699 -14.167 -6.5 -16.5
s-8.5 -3.5 -12.5 -3.5h-38c-7.33301 0 -12.833 1.16699 -16.5 3.5s-6.83398 6.16602 -9.50098 11.499l-233 428c-2 2 -3 2 -3 0v-431c0 -8 -3.66699 -12 -11 -12h-57c-8 0 -12 3.66699 -12 11v581c0 8.66699 1.16699 15 3.5 19s8.16602 6 17.499 6h36zM392.002 712
c-10.667 -22.667 -23.1641 -38.833 -37.4971 -48.5s-27.833 -14.5 -40.5 -14.5c-10.667 0 -20.834 1.83301 -30.501 5.5s-18.834 7.66699 -27.501 12s-17.167 8.33301 -25.5 12s-16.833 5.5 -25.5 5.5c-5.33301 0 -11.5 -3.16699 -18.5 -9.5s-12.833 -13.5 -17.5 -21.5
c-4 -6.66699 -9.66699 -8 -17 -4l-27 16c-3.33301 1.33301 -4.66602 3.66602 -3.99902 6.99902s1.66699 6.33301 3 9c8.66699 16.667 19.667 31.334 33 44.001s28.333 19 45 19c10 0 19.833 -2 29.5 -6s19 -8.16699 28 -12.5l26.5 -12.5c8.66699 -4 16.667 -6 24 -6
s14 3.5 20 10.5s11.333 14.5 16 22.5c1.33301 2 2.66602 3.66699 3.99902 5s3.66602 1 6.99902 -1l32 -15c6 -2 7 -7.66699 3 -17z" />
    <glyph glyph-name="Ograve" unicode="&#xd2;" horiz-adv-x="497" 
d="M439 165c0 -27.333 -4.83301 -51.501 -14.5 -72.501s-23 -38.833 -40 -53.5s-37 -25.834 -60 -33.501s-48.167 -11.5 -75.5 -11.5s-52.5 3.66699 -75.5 11s-43.167 18.166 -60.5 32.499s-30.833 32.166 -40.5 53.499s-14.5 46 -14.5 74v290c0 26.667 5 50.5 15 71.5
s23.5 38.833 40.5 53.5s37 25.834 60 33.501s47.833 11.5 74.5 11.5c26 0 50.5 -3.66699 73.5 -11s43.333 -18.166 61 -32.499s31.5 -32.166 41.5 -53.499s15 -45.666 15 -72.999v-290zM355 452.999c0 28.667 -9.66699 52.333 -29 71s-45 28 -77 28
c-32.667 0 -58.667 -9.5 -78 -28.5s-29 -42.5 -29 -70.5v-286c0 -30 9.16699 -54.167 27.5 -72.5s44.5 -27.5 78.5 -27.5c33.333 0 59.5 9.16699 78.5 27.5s28.5 42.5 28.5 72.5v286zM123 719.998c-3.33301 1.33301 -6 3.66895 -8 7.00195s-1 7.66602 3 12.999l30 44
c3.33301 3.33301 7 4.66602 11 3.99902s7.66699 -2.33398 11 -5.00098l116 -92c6.66699 -5.33301 7.66699 -11.333 3 -18l-13 -18c-2.66699 -3.33301 -6 -5.16602 -10 -5.49902s-7.66699 0.166992 -11 1.5z" />
    <glyph glyph-name="Oacute" unicode="&#xd3;" horiz-adv-x="497" 
d="M439 165c0 -27.333 -4.83301 -51.501 -14.5 -72.501s-23 -38.833 -40 -53.5s-37 -25.834 -60 -33.501s-48.167 -11.5 -75.5 -11.5s-52.5 3.66699 -75.5 11s-43.167 18.166 -60.5 32.499s-30.833 32.166 -40.5 53.499s-14.5 46 -14.5 74v290c0 26.667 5 50.5 15 71.5
s23.5 38.833 40.5 53.5s37 25.834 60 33.501s47.833 11.5 74.5 11.5c26 0 50.5 -3.66699 73.5 -11s43.333 -18.166 61 -32.499s31.5 -32.166 41.5 -53.499s15 -45.666 15 -72.999v-290zM355 452.999c0 28.667 -9.66699 52.333 -29 71s-45 28 -77 28
c-32.667 0 -58.667 -9.5 -78 -28.5s-29 -42.5 -29 -70.5v-286c0 -30 9.16699 -54.167 27.5 -72.5s44.5 -27.5 78.5 -27.5c33.333 0 59.5 9.16699 78.5 27.5s28.5 42.5 28.5 72.5v286zM248 652.998c-3.33301 -1.33301 -7 -1.83594 -11 -1.50293s-7.33301 2.16602 -10 5.49902
l-13 18c-5.33301 6.66699 -4.33301 12.667 3 18l116 92c3.33301 2.66699 7 4.33398 11 5.00098s7.66699 -0.666016 11 -3.99902l30 -44c4 -5.33301 5 -9.66602 3 -12.999s-4.66699 -5.66602 -8 -6.99902z" />
    <glyph glyph-name="Ocircumflex" unicode="&#xd4;" horiz-adv-x="497" 
d="M439 165c0 -27.333 -4.83301 -51.501 -14.5 -72.501s-23 -38.833 -40 -53.5s-37 -25.834 -60 -33.501s-48.167 -11.5 -75.5 -11.5s-52.5 3.66699 -75.5 11s-43.167 18.166 -60.5 32.499s-30.833 32.166 -40.5 53.499s-14.5 46 -14.5 74v290c0 26.667 5 50.5 15 71.5
s23.5 38.833 40.5 53.5s37 25.834 60 33.501s47.833 11.5 74.5 11.5c26 0 50.5 -3.66699 73.5 -11s43.333 -18.166 61 -32.499s31.5 -32.166 41.5 -53.499s15 -45.666 15 -72.999v-290zM355 452.999c0 28.667 -9.66699 52.333 -29 71s-45 28 -77 28
c-32.667 0 -58.667 -9.5 -78 -28.5s-29 -42.5 -29 -70.5v-286c0 -30 9.16699 -54.167 27.5 -72.5s44.5 -27.5 78.5 -27.5c33.333 0 59.5 9.16699 78.5 27.5s28.5 42.5 28.5 72.5v286zM216 773.998c3.33301 3.33301 6.49902 5.66602 9.49902 6.99902s7.16699 2 12.5 2h32
c5.33301 0 9.5 -0.666992 12.5 -2s6.16699 -3.66602 9.5 -6.99902l96 -99c7.33301 -6 7 -11.667 -1 -17l-14 -10c-4.66699 -3.33301 -8.66699 -4.66602 -12 -3.99902s-6.66602 2.33398 -9.99902 5.00098l-88 61c-4.66699 4.66699 -9.66699 4.66699 -15 0l-91 -61
c-4 -2.66699 -7.5 -4.33398 -10.5 -5.00098s-6.83301 0.666016 -11.5 3.99902l-14 10c-8 5.33301 -8.33301 11 -1 17z" />
    <glyph glyph-name="Otilde" unicode="&#xd5;" horiz-adv-x="497" 
d="M439 165c0 -27.333 -4.83301 -51.501 -14.5 -72.501s-23 -38.833 -40 -53.5s-37 -25.834 -60 -33.501s-48.167 -11.5 -75.5 -11.5s-52.5 3.66699 -75.5 11s-43.167 18.166 -60.5 32.499s-30.833 32.166 -40.5 53.499s-14.5 46 -14.5 74v290c0 26.667 5 50.5 15 71.5
s23.5 38.833 40.5 53.5s37 25.834 60 33.501s47.833 11.5 74.5 11.5c26 0 50.5 -3.66699 73.5 -11s43.333 -18.166 61 -32.499s31.5 -32.166 41.5 -53.499s15 -45.666 15 -72.999v-290zM355 452.999c0 28.667 -9.66699 52.333 -29 71s-45 28 -77 28
c-32.667 0 -58.667 -9.5 -78 -28.5s-29 -42.5 -29 -70.5v-286c0 -30 9.16699 -54.167 27.5 -72.5s44.5 -27.5 78.5 -27.5c33.333 0 59.5 9.16699 78.5 27.5s28.5 42.5 28.5 72.5v286zM381 721.998c-10.667 -22.667 -23.1641 -38.833 -37.4971 -48.5
s-27.833 -14.5 -40.5 -14.5c-10.667 0 -20.834 1.83301 -30.501 5.5s-18.834 7.66699 -27.501 12s-17.167 8.33301 -25.5 12s-16.833 5.5 -25.5 5.5c-5.33301 0 -11.5 -3.16699 -18.5 -9.5s-12.833 -13.5 -17.5 -21.5c-4 -6.66699 -9.66699 -8 -17 -4l-27 16
c-3.33301 1.33301 -4.66602 3.66602 -3.99902 6.99902s1.66699 6.33301 3 9c8.66699 16.667 19.667 31.334 33 44.001s28.333 19 45 19c10 0 19.833 -2 29.5 -6s19 -8.16699 28 -12.5l26.5 -12.5c8.66699 -4 16.667 -6 24 -6s14 3.5 20 10.5s11.333 14.5 16 22.5
c1.33301 2 2.66602 3.66699 3.99902 5s3.66602 1 6.99902 -1l32 -15c6 -2 7 -7.66699 3 -17z" />
    <glyph glyph-name="Odieresis" unicode="&#xd6;" horiz-adv-x="497" 
d="M439 165c0 -27.333 -4.83301 -51.501 -14.5 -72.501s-23 -38.833 -40 -53.5s-37 -25.834 -60 -33.501s-48.167 -11.5 -75.5 -11.5s-52.5 3.66699 -75.5 11s-43.167 18.166 -60.5 32.499s-30.833 32.166 -40.5 53.499s-14.5 46 -14.5 74v290c0 26.667 5 50.5 15 71.5
s23.5 38.833 40.5 53.5s37 25.834 60 33.501s47.833 11.5 74.5 11.5c26 0 50.5 -3.66699 73.5 -11s43.333 -18.166 61 -32.499s31.5 -32.166 41.5 -53.499s15 -45.666 15 -72.999v-290zM355 452.999c0 28.667 -9.66699 52.333 -29 71s-45 28 -77 28
c-32.667 0 -58.667 -9.5 -78 -28.5s-29 -42.5 -29 -70.5v-286c0 -30 9.16699 -54.167 27.5 -72.5s44.5 -27.5 78.5 -27.5c33.333 0 59.5 9.16699 78.5 27.5s28.5 42.5 28.5 72.5v286zM376 699.998c0 -13.333 -4.33398 -24.5 -13.001 -33.5s-19.667 -13.5 -33 -13.5
s-24.666 4.5 -33.999 13.5s-14 20.167 -14 33.5s4.5 24.5 13.5 33.5s20.167 13.5 33.5 13.5s24.5 -4.5 33.5 -13.5s13.5 -20.167 13.5 -33.5zM213.999 699.998c0 -13.333 -4.5 -24.5 -13.5 -33.5s-20.167 -13.5 -33.5 -13.5s-24.5 4.5 -33.5 13.5s-13.5 20.167 -13.5 33.5
s4.5 24.5 13.5 33.5s20.167 13.5 33.5 13.5s24.5 -4.5 33.5 -13.5s13.5 -20.167 13.5 -33.5z" />
    <glyph glyph-name="multiply" unicode="&#xd7;" horiz-adv-x="475" 
d="M388 66c-7.33301 -7.33301 -14.6699 -7.33301 -22.0029 0l-125 125c-1.33301 1.33301 -2.33301 2.16602 -3 2.49902s-1.66699 -0.166992 -3 -1.5l-125 -125c-7.33301 -6 -14 -6 -20 0l-24 24c-7.33301 6.66699 -7.66602 13.334 -0.999023 20.001l125 125c2 2 2 4 0 6
l-124 125c-7.33301 6.66699 -7.66602 13.334 -0.999023 20.001l23 23c6.66699 6.66699 13.667 6.66699 21 0l124 -124c2 -2 4 -2.33301 6 -1l125 125c6.66699 6.66699 13.334 7 20.001 1l24 -25c6.66699 -7.33301 6.66699 -14.333 0 -21l-124 -123
c-2 -2.66699 -2 -5.33398 0 -8.00098l126 -125c6.66699 -7.33301 6.66699 -14.333 0 -21l-22 -22v0z" />
    <glyph glyph-name="Oslash" unicode="&#xd8;" horiz-adv-x="497" 
d="M111 -3c-4.66699 -6.66699 -9.33594 -8.33301 -14.0029 -5l-32 17c-4.66699 2.66699 -5.33398 7.33398 -2.00098 14.001l19 35c2 5.33301 2.33301 9.66602 1 12.999c-7.33301 11.333 -13.333 25.333 -18 42s-7 34 -7 52v290c0 26.667 5 50.5 15 71.5
s23.5 38.833 40.5 53.5s37 25.834 60 33.501s47.833 11.5 74.5 11.5c43.333 0 81 -9.33301 113 -28c3.33301 -2.66699 7 -2 11 2c2 4 4.5 8.33301 7.5 13s5.5 9 7.5 13c3.33301 5.33301 8 6.66602 14 3.99902c5.33301 -2.66699 10.5 -5.5 15.5 -8.5s10.167 -5.5 15.5 -7.5
c6 -3.33301 7.33301 -7.66602 4 -12.999c-3.33301 -7.33301 -7.16602 -14.333 -11.499 -21s-8.16602 -13.667 -11.499 -21c-1.33301 -2.66699 -1.83301 -4.83398 -1.5 -6.50098s0.833008 -3.16699 1.5 -4.5c7.33301 -12 13.5 -26 18.5 -42s7.5 -32.667 7.5 -50v-290
c0 -27.333 -4.83301 -51.5 -14.5 -72.5s-23 -38.833 -40 -53.5s-37 -25.834 -60 -33.501s-48.167 -11.5 -75.5 -11.5c-23.333 0 -44.333 2.16699 -63 6.5s-35.667 11.5 -51 21.5c-1.33301 1.33301 -3.16602 2.33301 -5.49902 3s-4.16602 -0.666016 -5.49902 -3.99902z
M354.998 446.001c0 1.33301 -0.166992 2.16797 -0.5 2.50098s-0.5 0.166016 -0.5 -0.500977l-185 -344c-2 -3.33301 -1.66699 -7 1 -11c19.333 -17.333 45.333 -26 78 -26c33.333 0 59.5 9.16699 78.5 27.5s28.5 42.5 28.5 72.5v279zM141.998 178.003
c0 -1.33301 0.332031 -2.66797 0.999023 -4.00098s1.66699 -0.666016 3 2.00098l179 333c1.33301 2.66699 2.33301 5.5 3 8.5s-0.666016 5.83301 -3.99902 8.5c-19.333 17.333 -44.333 26 -75 26c-32.667 0 -58.667 -9.5 -78 -28.5s-29 -42.5 -29 -70.5v-275z" />
    <glyph glyph-name="Ugrave" unicode="&#xd9;" horiz-adv-x="498" 
d="M440 160c0 -26.667 -5.16895 -50.335 -15.502 -71.002s-24.333 -38 -42 -52s-38 -24.667 -61 -32s-47.167 -11 -72.5 -11s-49.666 3.66699 -72.999 11s-43.666 18 -60.999 32s-31.166 31.333 -41.499 52s-15.5 44.334 -15.5 71.001v446c0 7.33301 3.66699 11 11 11h62
c7.33301 0 11 -3.33301 11 -10v-447c0 -27.333 10.167 -49.666 30.5 -66.999s45.5 -26 75.5 -26c33.333 0 59.666 9 78.999 27s29 41 29 69v443c0 7.33301 4 11 12 11h60c8 0 12 -3.33301 12 -10v-447zM127.998 711.999c-3.33301 1.33301 -6 3.66895 -8 7.00195
s-1 7.66602 3 12.999l30 44c3.33301 3.33301 7 4.66602 11 3.99902s7.66699 -2.33398 11 -5.00098l116 -92c6.66699 -5.33301 7.66699 -11.333 3 -18l-13 -18c-2.66699 -3.33301 -6 -5.16602 -10 -5.49902s-7.66699 0.166992 -11 1.5z" />
    <glyph glyph-name="Uacute" unicode="&#xda;" horiz-adv-x="498" 
d="M440 160c0 -26.667 -5.16895 -50.335 -15.502 -71.002s-24.333 -38 -42 -52s-38 -24.667 -61 -32s-47.167 -11 -72.5 -11s-49.666 3.66699 -72.999 11s-43.666 18 -60.999 32s-31.166 31.333 -41.499 52s-15.5 44.334 -15.5 71.001v446c0 7.33301 3.66699 11 11 11h62
c7.33301 0 11 -3.33301 11 -10v-447c0 -27.333 10.167 -49.666 30.5 -66.999s45.5 -26 75.5 -26c33.333 0 59.666 9 78.999 27s29 41 29 69v443c0 7.33301 4 11 12 11h60c8 0 12 -3.33301 12 -10v-447zM244.998 645.999c-3.33301 -1.33301 -7 -1.83594 -11 -1.50293
s-7.33301 2.16602 -10 5.49902l-13 18c-5.33301 6.66699 -4.33301 12.667 3 18l116 92c3.33301 2.66699 7 4.33398 11 5.00098s7.66699 -0.666016 11 -3.99902l30 -44c4 -5.33301 5 -9.66602 3 -12.999s-4.66699 -5.66602 -8 -6.99902z" />
    <glyph glyph-name="Ucircumflex" unicode="&#xdb;" horiz-adv-x="498" 
d="M440 160c0 -26.667 -5.16895 -50.335 -15.502 -71.002s-24.333 -38 -42 -52s-38 -24.667 -61 -32s-47.167 -11 -72.5 -11s-49.666 3.66699 -72.999 11s-43.666 18 -60.999 32s-31.166 31.333 -41.499 52s-15.5 44.334 -15.5 71.001v446c0 7.33301 3.66699 11 11 11h62
c7.33301 0 11 -3.33301 11 -10v-447c0 -27.333 10.167 -49.666 30.5 -66.999s45.5 -26 75.5 -26c33.333 0 59.666 9 78.999 27s29 41 29 69v443c0 7.33301 4 11 12 11h60c8 0 12 -3.33301 12 -10v-447zM213.998 773.999c3.33301 3.33301 6.49902 5.66602 9.49902 6.99902
s7.16699 2 12.5 2h32c5.33301 0 9.5 -0.666992 12.5 -2s6.16699 -3.66602 9.5 -6.99902l96 -99c7.33301 -6 7 -11.667 -1 -17l-14 -10c-4.66699 -3.33301 -8.66699 -4.66602 -12 -3.99902s-6.66602 2.33398 -9.99902 5.00098l-88 61
c-4.66699 4.66699 -9.66699 4.66699 -15 0l-91 -61c-4 -2.66699 -7.5 -4.33398 -10.5 -5.00098s-6.83301 0.666016 -11.5 3.99902l-14 10c-8 5.33301 -8.33301 11 -1 17z" />
    <glyph glyph-name="Udieresis" unicode="&#xdc;" horiz-adv-x="498" 
d="M440 160c0 -26.667 -5.16895 -50.335 -15.502 -71.002s-24.333 -38 -42 -52s-38 -24.667 -61 -32s-47.167 -11 -72.5 -11s-49.666 3.66699 -72.999 11s-43.666 18 -60.999 32s-31.166 31.333 -41.499 52s-15.5 44.334 -15.5 71.001v446c0 7.33301 3.66699 11 11 11h62
c7.33301 0 11 -3.33301 11 -10v-447c0 -27.333 10.167 -49.666 30.5 -66.999s45.5 -26 75.5 -26c33.333 0 59.666 9 78.999 27s29 41 29 69v443c0 7.33301 4 11 12 11h60c8 0 12 -3.33301 12 -10v-447zM379.998 699.999c0 -13.333 -4.33398 -24.5 -13.001 -33.5
s-19.667 -13.5 -33 -13.5s-24.666 4.5 -33.999 13.5s-14 20.167 -14 33.5s4.5 24.5 13.5 33.5s20.167 13.5 33.5 13.5s24.5 -4.5 33.5 -13.5s13.5 -20.167 13.5 -33.5zM217.997 699.999c0 -13.333 -4.5 -24.5 -13.5 -33.5s-20.167 -13.5 -33.5 -13.5s-24.5 4.5 -33.5 13.5
s-13.5 20.167 -13.5 33.5s4.5 24.5 13.5 33.5s20.167 13.5 33.5 13.5s24.5 -4.5 33.5 -13.5s13.5 -20.167 13.5 -33.5z" />
    <glyph glyph-name="Yacute" unicode="&#xdd;" horiz-adv-x="435" 
d="M264 245c-3.33301 -7.33301 -5 -15.334 -5 -24.001v-209c0 -8 -4 -12 -12 -12h-60c-8 0 -12 3.66699 -12 11v212c0 8 -1.33301 14.667 -4 20l-154 357c-4.66699 11.333 -1.33398 17 9.99902 17h57c10.667 0 17.667 -3.66699 21 -11l108 -274
c3.33301 -5.33301 6.33301 -5.66602 9 -0.999023l54 136.5l53 136.5c2.66699 5.33301 5.33398 8.83301 8.00098 10.5s7.66699 2.5 15 2.5h55c7.33301 0 11.5 -1.5 12.5 -4.5s0.5 -6.83301 -1.5 -11.5zM201 645.999c-3.33301 -1.33301 -7 -1.83594 -11 -1.50293
s-7.33301 2.16602 -10 5.49902l-13 18c-5.33301 6.66699 -4.33301 12.667 3 18l116 92c3.33301 2.66699 7 4.33398 11 5.00098s7.66699 -0.666016 11 -3.99902l30 -44c4 -5.33301 5 -9.66602 3 -12.999s-4.66699 -5.66602 -8 -6.99902z" />
    <glyph glyph-name="Thorn" unicode="&#xde;" horiz-adv-x="458" 
d="M147 500c1.33301 -4 4.33496 -6 9.00195 -6h91c29.333 0 55.5 -4.66699 78.5 -14s42.5 -22.166 58.5 -38.499s28.333 -35.833 37 -58.5s13 -47 13 -73c0 -24.667 -4.66699 -47.834 -14 -69.501s-22.333 -40.667 -39 -57s-36.334 -29.333 -59.001 -39
s-47.334 -14.5 -74.001 -14.5h-92c-5.33301 0 -8 -3 -8 -9v-109c0 -8 -4 -12 -12 -12h-60c-6.66699 0 -10.667 3.66699 -12 11v595c0 7.33301 4 11 12 11h59c8 0 12 -3.33301 12 -10v-107zM156.002 422c-4.66699 0 -7.66699 -1.99805 -9 -5.99805v-208c0 -4 2.66699 -6 8 -6
h92c31.333 0 56.5 9.83301 75.5 29.5s28.5 46.167 28.5 79.5c0 13.333 -2.33301 26.666 -7 39.999s-11.5 25.166 -20.5 35.499s-20 18.833 -33 25.5s-27.5 10 -43.5 10h-91z" />
    <glyph glyph-name="germandbls" unicode="&#xdf;" horiz-adv-x="484" 
d="M430 155c0 -23.333 -4.16309 -45.168 -12.4961 -65.501s-19.833 -38.166 -34.5 -53.499c-14 -14.667 -30.333 -26 -49 -34s-38 -12 -58 -12h-67c-6 0 -9 2.66699 -9 8v43c0 6.66699 1.66699 10.5 5 11.5s7.66602 1.5 12.999 1.5h42c12.667 0 24.5 2.83301 35.5 8.5
s20.5 13.334 28.5 23.001s14.333 20.5 19 32.5s7 24.333 7 37v105c0 28 -8 49.667 -24 65s-38 23 -66 23h-12c-6 0 -9 3 -9 9v47c0 6 2.66699 9 8 9h16c24 0 42.833 7.5 56.5 22.5s20.5 34.167 20.5 57.5c0 25.333 -8 45.833 -24 61.5s-38 23.5 -66 23.5
s-50.5 -9.16699 -67.5 -27.5s-25.5 -40.833 -25.5 -67.5v-473c0 -6.66699 -3 -10 -9 -10h-62c-6.66699 0 -10 3 -10 9v471c0 24 4 46.167 12 66.5s19.5 38 34.5 53s33 26.667 54 35s44.833 12.5 71.5 12.5c52.667 0 94.5 -14 125.5 -42s46.5 -66.667 46.5 -116
c0 -10 -0.833008 -20.333 -2.5 -31s-4.33398 -20.834 -8.00098 -30.501s-8.33398 -18.5 -14.001 -26.5s-12.834 -14.333 -21.501 -19c-4 -2.66699 -4 -5.33398 0 -8.00098c19.333 -11.333 33.5 -27.166 42.5 -47.499s13.5 -42.5 13.5 -66.5v-105v0z" />
    <glyph glyph-name="agrave" unicode="&#xe0;" horiz-adv-x="438" 
d="M40 147c0 21.333 3.49902 41.3291 10.499 59.9961s17.333 34.834 31 48.501s30.5 24.5 50.5 32.5s43.333 12 70 12c29.333 0 55.666 -6.33301 78.999 -19c4.66699 -2.66699 8.83398 -3.5 12.501 -2.5s5.5 4.5 5.5 10.5v9c0 26.667 -6.83301 46.334 -20.5 59.001
s-36.5 19 -68.5 19c-6 0 -13.667 -0.666992 -23 -2s-18.833 -3 -28.5 -5s-19.167 -4.5 -28.5 -7.5s-17 -6.16699 -23 -9.5c-7.33301 -3.33301 -12.333 -1.33301 -15 6l-17 44c-2 6.66699 -0.333008 11 5 13c18 9.33301 39.667 16.666 65 21.999s50 8 74 8
c30.667 0 56.334 -3.66699 77.001 -11s37.167 -18 49.5 -32s21 -30.833 26 -50.5s7.5 -41.5 7.5 -65.5v-276c0 -6.66699 -3 -10 -9 -10h-55c-6 0 -9 2.66699 -9 8v18c0 4.66699 -1.33301 7.33398 -4 8.00098s-5.66699 -0.666016 -9 -3.99902
c-13.333 -13.333 -28.5 -22.666 -45.5 -27.999s-35.167 -8 -54.5 -8c-50 0 -88 14 -114 42s-39 65 -39 111zM114.999 148.996c0 -24.667 7.33105 -45.5 21.998 -62.5s37.334 -25.5 68.001 -25.5c27.333 0 49 8.33301 65 25s24 37.667 24 63
c0 24.667 -7.16699 45.5 -21.5 62.5s-37.166 25.5 -68.499 25.5c-27.333 0 -49 -8.33301 -65 -25s-24 -37.667 -24 -63zM119.997 600.996c-2.66699 2.66699 -4.33301 6.00098 -5 10.001s1.66602 8 6.99902 12l44 29c4 2.66699 7.83301 2.66699 11.5 0s6.5 -5.66699 8.5 -9
l76 -127c4.66699 -7.33301 3.33398 -13.333 -3.99902 -18l-19 -12c-3.33301 -2.66699 -7 -3.33398 -11 -2.00098s-7.33301 3.33301 -10 6z" />
    <glyph glyph-name="aacute" unicode="&#xe1;" horiz-adv-x="438" 
d="M40 147c0 21.333 3.49902 41.3291 10.499 59.9961s17.333 34.834 31 48.501s30.5 24.5 50.5 32.5s43.333 12 70 12c29.333 0 55.666 -6.33301 78.999 -19c4.66699 -2.66699 8.83398 -3.5 12.501 -2.5s5.5 4.5 5.5 10.5v9c0 26.667 -6.83301 46.334 -20.5 59.001
s-36.5 19 -68.5 19c-6 0 -13.667 -0.666992 -23 -2s-18.833 -3 -28.5 -5s-19.167 -4.5 -28.5 -7.5s-17 -6.16699 -23 -9.5c-7.33301 -3.33301 -12.333 -1.33301 -15 6l-17 44c-2 6.66699 -0.333008 11 5 13c18 9.33301 39.667 16.666 65 21.999s50 8 74 8
c30.667 0 56.334 -3.66699 77.001 -11s37.167 -18 49.5 -32s21 -30.833 26 -50.5s7.5 -41.5 7.5 -65.5v-276c0 -6.66699 -3 -10 -9 -10h-55c-6 0 -9 2.66699 -9 8v18c0 4.66699 -1.33301 7.33398 -4 8.00098s-5.66699 -0.666016 -9 -3.99902
c-13.333 -13.333 -28.5 -22.666 -45.5 -27.999s-35.167 -8 -54.5 -8c-50 0 -88 14 -114 42s-39 65 -39 111zM114.999 148.996c0 -24.667 7.33105 -45.5 21.998 -62.5s37.334 -25.5 68.001 -25.5c27.333 0 49 8.33301 65 25s24 37.667 24 63
c0 24.667 -7.16699 45.5 -21.5 62.5s-37.166 25.5 -68.499 25.5c-27.333 0 -49 -8.33301 -65 -25s-24 -37.667 -24 -63zM232.997 489.996c-2 -2.66699 -4.99902 -4.66797 -8.99902 -6.00098s-8 -0.666016 -12 2.00098l-19 12c-6 4.66699 -7 10.667 -3 18l75 127
c2 3.33301 4.5 6.5 7.5 9.5s7.16699 2.83301 12.5 -0.5l44 -29c5.33301 -4 7.66602 -8 6.99902 -12s-2 -7.33301 -4 -10z" />
    <glyph glyph-name="acircumflex" unicode="&#xe2;" horiz-adv-x="438" 
d="M40 147c0 21.333 3.49902 41.3291 10.499 59.9961s17.333 34.834 31 48.501s30.5 24.5 50.5 32.5s43.333 12 70 12c29.333 0 55.666 -6.33301 78.999 -19c4.66699 -2.66699 8.83398 -3.5 12.501 -2.5s5.5 4.5 5.5 10.5v9c0 26.667 -6.83301 46.334 -20.5 59.001
s-36.5 19 -68.5 19c-6 0 -13.667 -0.666992 -23 -2s-18.833 -3 -28.5 -5s-19.167 -4.5 -28.5 -7.5s-17 -6.16699 -23 -9.5c-7.33301 -3.33301 -12.333 -1.33301 -15 6l-17 44c-2 6.66699 -0.333008 11 5 13c18 9.33301 39.667 16.666 65 21.999s50 8 74 8
c30.667 0 56.334 -3.66699 77.001 -11s37.167 -18 49.5 -32s21 -30.833 26 -50.5s7.5 -41.5 7.5 -65.5v-276c0 -6.66699 -3 -10 -9 -10h-55c-6 0 -9 2.66699 -9 8v18c0 4.66699 -1.33301 7.33398 -4 8.00098s-5.66699 -0.666016 -9 -3.99902
c-13.333 -13.333 -28.5 -22.666 -45.5 -27.999s-35.167 -8 -54.5 -8c-50 0 -88 14 -114 42s-39 65 -39 111zM114.999 148.996c0 -24.667 7.33105 -45.5 21.998 -62.5s37.334 -25.5 68.001 -25.5c27.333 0 49 8.33301 65 25s24 37.667 24 63
c0 24.667 -7.16699 45.5 -21.5 62.5s-37.166 25.5 -68.499 25.5c-27.333 0 -49 -8.33301 -65 -25s-24 -37.667 -24 -63zM361.997 525.996c3.33301 -3.33301 5.16895 -6.83203 5.50195 -10.499s-1.83398 -7.16699 -6.50098 -10.5l-14 -12c-4.66699 -4 -8.5 -5.5 -11.5 -4.5
s-6.5 3.16699 -10.5 6.5l-91 80c-5.33301 5.33301 -10.333 5.66602 -15 0.999023l-88 -81c-3.33301 -3.33301 -6.66602 -5.5 -9.99902 -6.5s-7.33301 0.5 -12 4.5l-14 12c-4.66699 3.33301 -6.83398 6.83301 -6.50098 10.5s2.16602 7.16699 5.49902 10.5l96 117
c3.33301 3.33301 6.5 6 9.5 8s7.16699 3 12.5 3h32c5.33301 0 9.5 -1 12.5 -3s6.16699 -4.66699 9.5 -8z" />
    <glyph glyph-name="atilde" unicode="&#xe3;" horiz-adv-x="438" 
d="M40 147c0 21.333 3.49902 41.3291 10.499 59.9961s17.333 34.834 31 48.501s30.5 24.5 50.5 32.5s43.333 12 70 12c29.333 0 55.666 -6.33301 78.999 -19c4.66699 -2.66699 8.83398 -3.5 12.501 -2.5s5.5 4.5 5.5 10.5v9c0 26.667 -6.83301 46.334 -20.5 59.001
s-36.5 19 -68.5 19c-6 0 -13.667 -0.666992 -23 -2s-18.833 -3 -28.5 -5s-19.167 -4.5 -28.5 -7.5s-17 -6.16699 -23 -9.5c-7.33301 -3.33301 -12.333 -1.33301 -15 6l-17 44c-2 6.66699 -0.333008 11 5 13c18 9.33301 39.667 16.666 65 21.999s50 8 74 8
c30.667 0 56.334 -3.66699 77.001 -11s37.167 -18 49.5 -32s21 -30.833 26 -50.5s7.5 -41.5 7.5 -65.5v-276c0 -6.66699 -3 -10 -9 -10h-55c-6 0 -9 2.66699 -9 8v18c0 4.66699 -1.33301 7.33398 -4 8.00098s-5.66699 -0.666016 -9 -3.99902
c-13.333 -13.333 -28.5 -22.666 -45.5 -27.999s-35.167 -8 -54.5 -8c-50 0 -88 14 -114 42s-39 65 -39 111zM114.999 148.996c0 -24.667 7.33105 -45.5 21.998 -62.5s37.334 -25.5 68.001 -25.5c27.333 0 49 8.33301 65 25s24 37.667 24 63
c0 24.667 -7.16699 45.5 -21.5 62.5s-37.166 25.5 -68.499 25.5c-27.333 0 -49 -8.33301 -65 -25s-24 -37.667 -24 -63zM365.997 571.996c-10.667 -22.667 -23.1641 -38.833 -37.4971 -48.5s-27.833 -14.5 -40.5 -14.5c-10.667 0 -20.834 1.83301 -30.501 5.5
s-18.834 7.66699 -27.501 12s-17.167 8.33301 -25.5 12s-16.833 5.5 -25.5 5.5c-5.33301 0 -11.5 -3.16699 -18.5 -9.5s-12.833 -13.5 -17.5 -21.5c-4 -6.66699 -9.66699 -8 -17 -4l-27 16c-3.33301 1.33301 -4.66602 3.66602 -3.99902 6.99902s1.66699 6.33301 3 9
c8.66699 16.667 19.667 31.334 33 44.001s28.333 19 45 19c10 0 19.833 -2 29.5 -6s19 -8.16699 28 -12.5l26.5 -12.5c8.66699 -4 16.667 -6 24 -6s14 3.5 20 10.5s11.333 14.5 16 22.5c1.33301 2 2.66602 3.66699 3.99902 5s3.66602 1 6.99902 -1l32 -15
c6 -2 7 -7.66699 3 -17z" />
    <glyph glyph-name="adieresis" unicode="&#xe4;" horiz-adv-x="438" 
d="M40 147c0 21.333 3.49902 41.3291 10.499 59.9961s17.333 34.834 31 48.501s30.5 24.5 50.5 32.5s43.333 12 70 12c29.333 0 55.666 -6.33301 78.999 -19c4.66699 -2.66699 8.83398 -3.5 12.501 -2.5s5.5 4.5 5.5 10.5v9c0 26.667 -6.83301 46.334 -20.5 59.001
s-36.5 19 -68.5 19c-6 0 -13.667 -0.666992 -23 -2s-18.833 -3 -28.5 -5s-19.167 -4.5 -28.5 -7.5s-17 -6.16699 -23 -9.5c-7.33301 -3.33301 -12.333 -1.33301 -15 6l-17 44c-2 6.66699 -0.333008 11 5 13c18 9.33301 39.667 16.666 65 21.999s50 8 74 8
c30.667 0 56.334 -3.66699 77.001 -11s37.167 -18 49.5 -32s21 -30.833 26 -50.5s7.5 -41.5 7.5 -65.5v-276c0 -6.66699 -3 -10 -9 -10h-55c-6 0 -9 2.66699 -9 8v18c0 4.66699 -1.33301 7.33398 -4 8.00098s-5.66699 -0.666016 -9 -3.99902
c-13.333 -13.333 -28.5 -22.666 -45.5 -27.999s-35.167 -8 -54.5 -8c-50 0 -88 14 -114 42s-39 65 -39 111zM114.999 148.996c0 -24.667 7.33105 -45.5 21.998 -62.5s37.334 -25.5 68.001 -25.5c27.333 0 49 8.33301 65 25s24 37.667 24 63
c0 24.667 -7.16699 45.5 -21.5 62.5s-37.166 25.5 -68.499 25.5c-27.333 0 -49 -8.33301 -65 -25s-24 -37.667 -24 -63zM346.997 544.996c0 -13.333 -4.33398 -24.5 -13.001 -33.5s-19.667 -13.5 -33 -13.5s-24.666 4.5 -33.999 13.5s-14 20.167 -14 33.5
s4.5 24.5 13.5 33.5s20.167 13.5 33.5 13.5s24.5 -4.5 33.5 -13.5s13.5 -20.167 13.5 -33.5zM184.996 544.996c0 -13.333 -4.5 -24.5 -13.5 -33.5s-20.167 -13.5 -33.5 -13.5s-24.5 4.5 -33.5 13.5s-13.5 20.167 -13.5 33.5s4.5 24.5 13.5 33.5s20.167 13.5 33.5 13.5
s24.5 -4.5 33.5 -13.5s13.5 -20.167 13.5 -33.5z" />
    <glyph glyph-name="aring" unicode="&#xe5;" horiz-adv-x="438" 
d="M40 147c0 21.333 3.49902 41.3291 10.499 59.9961s17.333 34.834 31 48.501s30.5 24.5 50.5 32.5s43.333 12 70 12c29.333 0 55.666 -6.33301 78.999 -19c4.66699 -2.66699 8.83398 -3.5 12.501 -2.5s5.5 4.5 5.5 10.5v9c0 26.667 -6.83301 46.334 -20.5 59.001
s-36.5 19 -68.5 19c-6 0 -13.667 -0.666992 -23 -2s-18.833 -3 -28.5 -5s-19.167 -4.5 -28.5 -7.5s-17 -6.16699 -23 -9.5c-7.33301 -3.33301 -12.333 -1.33301 -15 6l-17 44c-2 6.66699 -0.333008 11 5 13c18 9.33301 39.667 16.666 65 21.999s50 8 74 8
c30.667 0 56.334 -3.66699 77.001 -11s37.167 -18 49.5 -32s21 -30.833 26 -50.5s7.5 -41.5 7.5 -65.5v-276c0 -6.66699 -3 -10 -9 -10h-55c-6 0 -9 2.66699 -9 8v18c0 4.66699 -1.33301 7.33398 -4 8.00098s-5.66699 -0.666016 -9 -3.99902
c-13.333 -13.333 -28.5 -22.666 -45.5 -27.999s-35.167 -8 -54.5 -8c-50 0 -88 14 -114 42s-39 65 -39 111zM114.999 148.996c0 -24.667 7.33105 -45.5 21.998 -62.5s37.334 -25.5 68.001 -25.5c27.333 0 49 8.33301 65 25s24 37.667 24 63
c0 24.667 -7.16699 45.5 -21.5 62.5s-37.166 25.5 -68.499 25.5c-27.333 0 -49 -8.33301 -65 -25s-24 -37.667 -24 -63zM313.997 562.996c0 -11.333 -2.16602 -22.1631 -6.49902 -32.4961s-10.5 -19.333 -18.5 -27s-17.167 -13.834 -27.5 -18.501s-21.5 -7 -33.5 -7
s-23.167 2.16699 -33.5 6.5s-19.333 10.166 -27 17.499s-13.834 16.166 -18.501 26.499s-7 21.166 -7 32.499s2.16699 22.166 6.5 32.499s10.5 19.5 18.5 27.5s17.167 14.333 27.5 19s21.5 7 33.5 7c23.333 0 43.5 -8.16699 60.5 -24.5s25.5 -36.166 25.5 -59.499z
M270.998 561.999c0 11.333 -4.33301 21.5 -13 30.5s-18.667 13.5 -30 13.5s-21 -4.33301 -29 -13s-12 -19 -12 -31s4 -22.167 12 -30.5s17.667 -12.5 29 -12.5s21.333 4.16699 30 12.5s13 18.5 13 30.5z" />
    <glyph glyph-name="ae" unicode="&#xe6;" horiz-adv-x="690" 
d="M651 225c0 -7.33301 -2.16895 -13.1699 -6.50195 -17.5029s-8.83301 -6.5 -13.5 -6.5h-234c-5.33301 0 -9.66602 -1.66699 -12.999 -5s-5 -7.66602 -5 -12.999v-19c0 -27.333 8.66699 -50.833 26 -70.5s40.666 -29.5 69.999 -29.5c20 0 37.667 4.83301 53 14.5
s28.666 22.167 39.999 37.5c5.33301 7.33301 12 8.33301 20 3l38 -25c8 -5.33301 10.667 -10.666 8 -15.999c-16 -29.333 -38 -50.666 -66 -63.999s-58.333 -20 -91 -20c-32 0 -60.333 5.33301 -85 16s-44.667 25.667 -60 45c-13.333 -18 -31.666 -32.5 -54.999 -43.5
s-49.666 -16.5 -78.999 -16.5c-22 0 -42.5 3.33301 -61.5 10s-35.667 16.5 -50 29.5s-25.666 29 -33.999 48s-12.5 40.833 -12.5 65.5c0 23.333 4.33301 44.5 13 63.5s20.334 35.167 35.001 48.5s32 23.666 52 30.999s41.667 11 65 11c11.333 0 24.5 -2.16699 39.5 -6.5
s27.167 -9.16602 36.5 -14.499c4.66699 -3.33301 8.83398 -4.33301 12.501 -3s5.5 5 5.5 11v11c0 26.667 -9.5 46 -28.5 58s-42.5 18 -70.5 18c-12.667 0 -28.167 -2.33301 -46.5 -7s-33.833 -10.334 -46.5 -17.001c-7.33301 -3.33301 -12.333 -1.33301 -15 6l-17 44
c-2 6.66699 -0.333008 11 5 13c18 9.33301 38.333 16.666 61 21.999s46 8 70 8c30 0 56.167 -4 78.5 -12s40.166 -22 53.499 -42c15.333 17.333 34.166 30.666 56.499 39.999s47.5 14 75.5 14c26.667 0 50.834 -4.16699 72.501 -12.5s40.167 -20.166 55.5 -35.499
s27.166 -33.666 35.499 -54.999s12.5 -44.666 12.5 -69.999v-47zM291.998 148.996c0 24.667 -8 45.832 -24 63.499s-37.333 26.5 -64 26.5c-26 0 -47.333 -8.66699 -64 -26s-25 -38.666 -25 -63.999c0 -24.667 7.16699 -45.834 21.5 -63.501s36.5 -26.5 66.5 -26.5
c14 0 26.5 2.5 37.5 7.5s20.333 11.833 28 20.5s13.5 18.334 17.5 29.001s6 21.667 6 33zM569.998 284.994c0 25.333 -8.66699 46.834 -26 64.501s-40.333 26.5 -69 26.5c-28 0 -50.667 -9 -68 -27s-26 -39.667 -26 -65v-7c0 -2.66699 1 -5.33398 3 -8.00098s6 -4 12 -4h164
c6.66699 0 10 3.66699 10 11v9z" />
    <glyph glyph-name="ccedilla" unicode="&#xe7;" horiz-adv-x="408" 
d="M314 -126c0 -19.333 -8.16504 -36.999 -24.498 -52.999s-38.833 -24 -67.5 -24c-17.333 0 -32 1.83301 -44 5.5s-23.667 9.16699 -35 16.5c-5.33301 4 -5.66602 9 -0.999023 15l16 21c4 4 8 5 12 3c7.33301 -4 14.833 -7.66699 22.5 -11s16.834 -5 27.501 -5
c13.333 0 23.666 2.83301 30.999 8.5s11 13.167 11 22.5c0 2.66699 -0.333008 5.83398 -1 9.50098s-2.33398 7.16699 -5.00098 10.5s-6.5 6.33301 -11.5 9s-11.833 4 -20.5 4h-27c-12.667 0 -21.334 3.66699 -26.001 11s-5.66699 16 -3 26
c2.66699 11.333 5.16699 21.333 7.5 30l6.5 25c-42 6.66699 -75.333 24 -100 52s-37 64.333 -37 109v115c0 26.667 4.5 50.667 13.5 72s21.333 39.166 37 53.499s34.167 25.333 55.5 33s44.666 11.5 69.999 11.5c64.667 -0.666992 116 -26 154 -76
c2.66699 -3.33301 3.66699 -7.16602 3 -11.499s-3 -7.83301 -7 -10.5l-35 -27c-8.66699 -6 -16.334 -4 -23.001 6c-11.333 16.667 -25.166 29.167 -41.499 37.5s-33.833 12.5 -52.5 12.5c-28.667 0 -51.5 -8.83301 -68.5 -26.5s-25.5 -40.5 -25.5 -68.5v-124
c0 -27.333 8.83301 -49.5 26.5 -66.5s41.167 -25.5 70.5 -25.5c26 0 46.667 5.66699 62 17s29 24.666 41 39.999c3.33301 4 8.33301 3.66699 15 -1l33 -24c6.66699 -4 10.334 -7.83301 11.001 -11.5s-0.333008 -7.16699 -3 -10.5c-19.333 -29.333 -42.5 -49.833 -69.5 -61.5
s-54.833 -17.834 -83.5 -18.501l-8 -33c-2.66699 -7.33301 -0.333984 -11 6.99902 -11h11c23.333 0 41.833 -6.83301 55.5 -20.5s20.5 -32.167 20.5 -55.5z" />
    <glyph glyph-name="egrave" unicode="&#xe8;" horiz-adv-x="438" 
d="M399 225c0 -7.33301 -2.16699 -13.1699 -6.5 -17.5029s-8.83301 -6.5 -13.5 -6.5h-234c-5.33301 0 -9.66602 -1.66699 -12.999 -5s-5 -7.66602 -5 -12.999v-19c0 -13.333 1.66699 -26.166 5 -38.499s8.83301 -23 16.5 -32s17.667 -16.167 30 -21.5s27.166 -8 44.499 -8
c20 0 38.167 4.66699 54.5 14s30.166 21.666 41.499 36.999c5.33301 7.33301 12 8.33301 20 3l35 -24c8 -5.33301 10.667 -10.666 8 -15.999c-16 -29.333 -38 -50.666 -66 -63.999s-58.333 -20 -91 -20c-54 0 -97.167 14.833 -129.5 44.5s-48.5 69.5 -48.5 119.5v114
c0 25.333 4.33301 48.666 13 69.999s20.834 39.666 36.501 54.999s34.167 27.166 55.5 35.499s45 12.5 71 12.5c26.667 0 50.834 -4.16699 72.501 -12.5s40.167 -20.166 55.5 -35.499s27.166 -33.666 35.499 -54.999s12.5 -44.666 12.5 -69.999v-47zM223 375.996
c-28 0 -50.667 -8.99902 -68 -26.999s-26 -39.667 -26 -65v-7c0 -2.66699 1 -5.33398 3 -8.00098s6 -4 12 -4h164c6.66699 0 10 3.66699 10 11v9c0 25.333 -8 46.833 -24 64.5s-39.667 26.5 -71 26.5zM114 600.997c-2.66699 2.66699 -4.33301 6.00098 -5 10.001
s1.66602 8 6.99902 12l44 29c4 2.66699 7.83301 2.66699 11.5 0s6.5 -5.66699 8.5 -9l76 -127c4.66699 -7.33301 3.33398 -13.333 -3.99902 -18l-19 -12c-3.33301 -2.66699 -7 -3.33398 -11 -2.00098s-7.33301 3.33301 -10 6z" />
    <glyph glyph-name="eacute" unicode="&#xe9;" horiz-adv-x="438" 
d="M399 225c0 -7.33301 -2.16699 -13.1699 -6.5 -17.5029s-8.83301 -6.5 -13.5 -6.5h-234c-5.33301 0 -9.66602 -1.66699 -12.999 -5s-5 -7.66602 -5 -12.999v-19c0 -13.333 1.66699 -26.166 5 -38.499s8.83301 -23 16.5 -32s17.667 -16.167 30 -21.5s27.166 -8 44.499 -8
c20 0 38.167 4.66699 54.5 14s30.166 21.666 41.499 36.999c5.33301 7.33301 12 8.33301 20 3l35 -24c8 -5.33301 10.667 -10.666 8 -15.999c-16 -29.333 -38 -50.666 -66 -63.999s-58.333 -20 -91 -20c-54 0 -97.167 14.833 -129.5 44.5s-48.5 69.5 -48.5 119.5v114
c0 25.333 4.33301 48.666 13 69.999s20.834 39.666 36.501 54.999s34.167 27.166 55.5 35.499s45 12.5 71 12.5c26.667 0 50.834 -4.16699 72.501 -12.5s40.167 -20.166 55.5 -35.499s27.166 -33.666 35.499 -54.999s12.5 -44.666 12.5 -69.999v-47zM223 375.996
c-28 0 -50.667 -8.99902 -68 -26.999s-26 -39.667 -26 -65v-7c0 -2.66699 1 -5.33398 3 -8.00098s6 -4 12 -4h164c6.66699 0 10 3.66699 10 11v9c0 25.333 -8 46.833 -24 64.5s-39.667 26.5 -71 26.5zM223 489.997c-2 -2.66699 -4.99902 -4.66797 -8.99902 -6.00098
s-8 -0.666016 -12 2.00098l-19 12c-6 4.66699 -7 10.667 -3 18l75 127c2 3.33301 4.5 6.5 7.5 9.5s7.16699 2.83301 12.5 -0.5l44 -29c5.33301 -4 7.66602 -8 6.99902 -12s-2 -7.33301 -4 -10z" />
    <glyph glyph-name="ecircumflex" unicode="&#xea;" horiz-adv-x="438" 
d="M399 225c0 -7.33301 -2.16699 -13.1699 -6.5 -17.5029s-8.83301 -6.5 -13.5 -6.5h-234c-5.33301 0 -9.66602 -1.66699 -12.999 -5s-5 -7.66602 -5 -12.999v-19c0 -13.333 1.66699 -26.166 5 -38.499s8.83301 -23 16.5 -32s17.667 -16.167 30 -21.5s27.166 -8 44.499 -8
c20 0 38.167 4.66699 54.5 14s30.166 21.666 41.499 36.999c5.33301 7.33301 12 8.33301 20 3l35 -24c8 -5.33301 10.667 -10.666 8 -15.999c-16 -29.333 -38 -50.666 -66 -63.999s-58.333 -20 -91 -20c-54 0 -97.167 14.833 -129.5 44.5s-48.5 69.5 -48.5 119.5v114
c0 25.333 4.33301 48.666 13 69.999s20.834 39.666 36.501 54.999s34.167 27.166 55.5 35.499s45 12.5 71 12.5c26.667 0 50.834 -4.16699 72.501 -12.5s40.167 -20.166 55.5 -35.499s27.166 -33.666 35.499 -54.999s12.5 -44.666 12.5 -69.999v-47zM223 375.996
c-28 0 -50.667 -8.99902 -68 -26.999s-26 -39.667 -26 -65v-7c0 -2.66699 1 -5.33398 3 -8.00098s6 -4 12 -4h164c6.66699 0 10 3.66699 10 11v9c0 25.333 -8 46.833 -24 64.5s-39.667 26.5 -71 26.5zM362 525.997c3.33301 -3.33301 5.16895 -6.83203 5.50195 -10.499
s-1.83398 -7.16699 -6.50098 -10.5l-14 -12c-4.66699 -4 -8.5 -5.5 -11.5 -4.5s-6.5 3.16699 -10.5 6.5l-91 80c-5.33301 5.33301 -10.333 5.66602 -15 0.999023l-88 -81c-3.33301 -3.33301 -6.66602 -5.5 -9.99902 -6.5s-7.33301 0.5 -12 4.5l-14 12
c-4.66699 3.33301 -6.83398 6.83301 -6.50098 10.5s2.16602 7.16699 5.49902 10.5l96 117c3.33301 3.33301 6.5 6 9.5 8s7.16699 3 12.5 3h32c5.33301 0 9.5 -1 12.5 -3s6.16699 -4.66699 9.5 -8z" />
    <glyph glyph-name="edieresis" unicode="&#xeb;" horiz-adv-x="438" 
d="M399 225c0 -7.33301 -2.16699 -13.1699 -6.5 -17.5029s-8.83301 -6.5 -13.5 -6.5h-234c-5.33301 0 -9.66602 -1.66699 -12.999 -5s-5 -7.66602 -5 -12.999v-19c0 -13.333 1.66699 -26.166 5 -38.499s8.83301 -23 16.5 -32s17.667 -16.167 30 -21.5s27.166 -8 44.499 -8
c20 0 38.167 4.66699 54.5 14s30.166 21.666 41.499 36.999c5.33301 7.33301 12 8.33301 20 3l35 -24c8 -5.33301 10.667 -10.666 8 -15.999c-16 -29.333 -38 -50.666 -66 -63.999s-58.333 -20 -91 -20c-54 0 -97.167 14.833 -129.5 44.5s-48.5 69.5 -48.5 119.5v114
c0 25.333 4.33301 48.666 13 69.999s20.834 39.666 36.501 54.999s34.167 27.166 55.5 35.499s45 12.5 71 12.5c26.667 0 50.834 -4.16699 72.501 -12.5s40.167 -20.166 55.5 -35.499s27.166 -33.666 35.499 -54.999s12.5 -44.666 12.5 -69.999v-47zM223 375.996
c-28 0 -50.667 -8.99902 -68 -26.999s-26 -39.667 -26 -65v-7c0 -2.66699 1 -5.33398 3 -8.00098s6 -4 12 -4h164c6.66699 0 10 3.66699 10 11v9c0 25.333 -8 46.833 -24 64.5s-39.667 26.5 -71 26.5zM355 544.997c0 -13.333 -4.33398 -24.5 -13.001 -33.5
s-19.667 -13.5 -33 -13.5s-24.666 4.5 -33.999 13.5s-14 20.167 -14 33.5s4.5 24.5 13.5 33.5s20.167 13.5 33.5 13.5s24.5 -4.5 33.5 -13.5s13.5 -20.167 13.5 -33.5zM192.999 544.997c0 -13.333 -4.5 -24.5 -13.5 -33.5s-20.167 -13.5 -33.5 -13.5s-24.5 4.5 -33.5 13.5
s-13.5 20.167 -13.5 33.5s4.5 24.5 13.5 33.5s20.167 13.5 33.5 13.5s24.5 -4.5 33.5 -13.5s13.5 -20.167 13.5 -33.5z" />
    <glyph glyph-name="igrave" unicode="&#xec;" horiz-adv-x="203" 
d="M61 428c0 6.66699 3 10 9 10h62c6.66699 0 10 -3.33301 10 -10v-419c0 -6 -3 -9 -9 -9h-62c-6.66699 0 -10 3 -10 9v419zM-8 601c-2.66699 2.66699 -4.33301 6.00098 -5 10.001s1.66602 8 6.99902 12l44 29c4 2.66699 7.83301 2.66699 11.5 0s6.5 -5.66699 8.5 -9
l76 -127c4.66699 -7.33301 3.33398 -13.333 -3.99902 -18l-19 -12c-3.33301 -2.66699 -7 -3.33398 -11 -2.00098s-7.33301 3.33301 -10 6z" />
    <glyph glyph-name="iacute" unicode="&#xed;" horiz-adv-x="203" 
d="M61 428c0 6.66699 3 10 9 10h62c6.66699 0 10 -3.33301 10 -10v-419c0 -6 -3 -9 -9 -9h-62c-6.66699 0 -10 3 -10 9v419zM117 490c-2 -2.66699 -4.99902 -4.66797 -8.99902 -6.00098s-8 -0.666016 -12 2.00098l-19 12c-6 4.66699 -7 10.667 -3 18l75 127
c2 3.33301 4.5 6.5 7.5 9.5s7.16699 2.83301 12.5 -0.5l44 -29c5.33301 -4 7.66602 -8 6.99902 -12s-2 -7.33301 -4 -10z" />
    <glyph glyph-name="icircumflex" unicode="&#xee;" horiz-adv-x="203" 
d="M61 428c0 6.66699 3 10 9 10h62c6.66699 0 10 -3.33301 10 -10v-419c0 -6 -3 -9 -9 -9h-62c-6.66699 0 -10 3 -10 9v419zM236 526c3.33301 -3.33301 5.16895 -6.83203 5.50195 -10.499s-1.83398 -7.16699 -6.50098 -10.5l-14 -12c-4.66699 -4 -8.5 -5.5 -11.5 -4.5
s-6.5 3.16699 -10.5 6.5l-91 80c-5.33301 5.33301 -10.333 5.66602 -15 0.999023l-88 -81c-3.33301 -3.33301 -6.66602 -5.5 -9.99902 -6.5s-7.33301 0.5 -12 4.5l-14 12c-4.66699 3.33301 -6.83398 6.83301 -6.50098 10.5s2.16602 7.16699 5.49902 10.5l96 117
c3.33301 3.33301 6.5 6 9.5 8s7.16699 3 12.5 3h32c5.33301 0 9.5 -1 12.5 -3s6.16699 -4.66699 9.5 -8z" />
    <glyph glyph-name="idieresis" unicode="&#xef;" horiz-adv-x="203" 
d="M61 428c0 6.66699 3 10 9 10h62c6.66699 0 10 -3.33301 10 -10v-419c0 -6 -3 -9 -9 -9h-62c-6.66699 0 -10 3 -10 9v419zM230 545c0 -13.333 -4.33398 -24.5 -13.001 -33.5s-19.667 -13.5 -33 -13.5s-24.666 4.5 -33.999 13.5s-14 20.167 -14 33.5s4.5 24.5 13.5 33.5
s20.167 13.5 33.5 13.5s24.5 -4.5 33.5 -13.5s13.5 -20.167 13.5 -33.5zM67.999 545c0 -13.333 -4.5 -24.5 -13.5 -33.5s-20.167 -13.5 -33.5 -13.5s-24.5 4.5 -33.5 13.5s-13.5 20.167 -13.5 33.5s4.5 24.5 13.5 33.5s20.167 13.5 33.5 13.5s24.5 -4.5 33.5 -13.5
s13.5 -20.167 13.5 -33.5z" />
    <glyph glyph-name="eth" unicode="&#xf0;" horiz-adv-x="448" 
d="M47 257c0 26 4.16992 49.333 12.5029 70s20 38.334 35 53.001s32.667 25.834 53 33.501s42.166 11.5 65.499 11.5c20 0 38.5 -2.5 55.5 -7.5s32.167 -13.167 45.5 -24.5c1.33301 -1.33301 2.66602 -2 3.99902 -2s2 1.33301 2 4c0 21.333 -1.33301 40.833 -4 58.5
s-9.33398 34.167 -20.001 49.5c0 0.666992 -0.666992 1 -2 1c-0.666992 0 -2.33398 -1.33301 -5.00098 -4l-38 -41c-2 -2 -4 -3 -6 -3l-4 2l-22 20c-2 2 -3 4 -3 6s0.666992 3.66699 2 5l40 44c2.66699 2.66699 4 4.66699 4 6s-1 2.66602 -3 3.99902
c-14.667 10.667 -31.167 17.5 -49.5 20.5s-37.166 5.16699 -56.499 6.5c-3.33301 0 -7.33301 0.666992 -12 2s-7 5 -7 11v48c0 5.33301 1.5 8.66602 4.5 9.99902s7.5 2 13.5 2c31.333 0 61.833 -3.5 91.5 -10.5s54.167 -18.833 73.5 -35.5l4 -2c0.666992 0 2 1 4 3l41 41
c2 2 4 3 6 3s3.66699 -1 5 -3l23 -21c2 -2 3 -3.66699 3 -5c0 -2 -1 -4 -3 -6l-43 -43c-2 -2 -3 -4 -3 -6c0 -1.33301 0.666992 -2.66602 2 -3.99902c10.667 -11.333 19 -26.333 25 -45s10.5 -38.834 13.5 -60.501s4.66699 -43.834 5 -66.501s0.5 -43.667 0.5 -63v-157
c0 -27.333 -4.33301 -51.333 -13 -72s-21 -38.167 -37 -52.5s-35 -25.166 -57 -32.499s-46.333 -11 -73 -11c-54 0 -96.333 14.667 -127 44s-46 71 -46 125v94zM126.003 162c0 -29.333 7.5 -53.167 22.5 -71.5s39.167 -27.5 72.5 -27.5c34 0 59 9.33301 75 28
s24 42.334 24 71.001v75c0 14.667 -1.16699 29 -3.5 43s-6.83301 26.667 -13.5 38s-16.334 20.5 -29.001 27.5s-29 10.5 -49 10.5c-33.333 0 -58.166 -9.33301 -74.499 -28s-24.5 -42.334 -24.5 -71.001v-95z" />
    <glyph glyph-name="ntilde" unicode="&#xf1;" horiz-adv-x="462" 
d="M408 10c0 -6.66699 -3.00098 -10.001 -9.00098 -10.001h-62c-6 0 -9 3 -9 9v267c0 28.667 -8 52.334 -24 71.001s-40 28 -72 28c-29.333 0 -52.666 -9.16699 -69.999 -27.5s-26 -41.833 -26 -70.5v-267c0 -6.66699 -3.33301 -10 -10 -10h-61c-6.66699 0 -10 3 -10 9v419
c0 6.66699 3 10 9 10h58c6 0 9 -3 9 -9v-15c0 -6 2.33301 -9 7 -9c1.33301 0 4 1.33301 8 4c28 23.333 61.333 35 100 35c50 0 89.5 -15.167 118.5 -45.5s43.5 -70.833 43.5 -121.5v-267zM357.999 571.999c-10.667 -22.667 -23.1641 -38.833 -37.4971 -48.5
s-27.833 -14.5 -40.5 -14.5c-10.667 0 -20.834 1.83301 -30.501 5.5s-18.834 7.66699 -27.501 12s-17.167 8.33301 -25.5 12s-16.833 5.5 -25.5 5.5c-5.33301 0 -11.5 -3.16699 -18.5 -9.5s-12.833 -13.5 -17.5 -21.5c-4 -6.66699 -9.66699 -8 -17 -4l-27 16
c-3.33301 1.33301 -4.66602 3.66602 -3.99902 6.99902s1.66699 6.33301 3 9c8.66699 16.667 19.667 31.334 33 44.001s28.333 19 45 19c10 0 19.833 -2 29.5 -6s19 -8.16699 28 -12.5l26.5 -12.5c8.66699 -4 16.667 -6 24 -6s14 3.5 20 10.5s11.333 14.5 16 22.5
c1.33301 2 2.66602 3.66699 3.99902 5s3.66602 1 6.99902 -1l32 -15c6 -2 7 -7.66699 3 -17z" />
    <glyph glyph-name="ograve" unicode="&#xf2;" horiz-adv-x="448" 
d="M400 163c0 -54 -15.834 -95.667 -47.501 -125s-74.5 -44 -128.5 -44c-55.333 0 -98.5 14.5 -129.5 43.5s-46.5 70.5 -46.5 124.5v115c0 51.333 15 92.166 45 122.499s73.333 45.5 130 45.5s100.334 -14.667 131.001 -44s46 -70.666 46 -123.999v-114zM319.999 277
c0 28.667 -7.83301 52.1689 -23.5 70.502s-39.834 27.5 -72.501 27.5c-29.333 0 -52.666 -9 -69.999 -27s-26 -41.667 -26 -71v-115c0 -28.667 7.33301 -52.334 22 -71.001s39 -28 73 -28s58.5 9.16699 73.5 27.5s22.833 42.166 23.5 71.499v115zM117.999 601.002
c-2.66699 2.66699 -4.33301 6.00098 -5 10.001s1.66602 8 6.99902 12l44 29c4 2.66699 7.83301 2.66699 11.5 0s6.5 -5.66699 8.5 -9l76 -127c4.66699 -7.33301 3.33398 -13.333 -3.99902 -18l-19 -12c-3.33301 -2.66699 -7 -3.33398 -11 -2.00098s-7.33301 3.33301 -10 6z
" />
    <glyph glyph-name="oacute" unicode="&#xf3;" horiz-adv-x="448" 
d="M400 163c0 -54 -15.834 -95.667 -47.501 -125s-74.5 -44 -128.5 -44c-55.333 0 -98.5 14.5 -129.5 43.5s-46.5 70.5 -46.5 124.5v115c0 51.333 15 92.166 45 122.499s73.333 45.5 130 45.5s100.334 -14.667 131.001 -44s46 -70.666 46 -123.999v-114zM319.999 277
c0 28.667 -7.83301 52.1689 -23.5 70.502s-39.834 27.5 -72.501 27.5c-29.333 0 -52.666 -9 -69.999 -27s-26 -41.667 -26 -71v-115c0 -28.667 7.33301 -52.334 22 -71.001s39 -28 73 -28s58.5 9.16699 73.5 27.5s22.833 42.166 23.5 71.499v115zM232.999 490.002
c-2 -2.66699 -4.99902 -4.66797 -8.99902 -6.00098s-8 -0.666016 -12 2.00098l-19 12c-6 4.66699 -7 10.667 -3 18l75 127c2 3.33301 4.5 6.5 7.5 9.5s7.16699 2.83301 12.5 -0.5l44 -29c5.33301 -4 7.66602 -8 6.99902 -12s-2 -7.33301 -4 -10z" />
    <glyph glyph-name="ocircumflex" unicode="&#xf4;" horiz-adv-x="448" 
d="M400 163c0 -54 -15.834 -95.667 -47.501 -125s-74.5 -44 -128.5 -44c-55.333 0 -98.5 14.5 -129.5 43.5s-46.5 70.5 -46.5 124.5v115c0 51.333 15 92.166 45 122.499s73.333 45.5 130 45.5s100.334 -14.667 131.001 -44s46 -70.666 46 -123.999v-114zM319.999 277
c0 28.667 -7.83301 52.1689 -23.5 70.502s-39.834 27.5 -72.501 27.5c-29.333 0 -52.666 -9 -69.999 -27s-26 -41.667 -26 -71v-115c0 -28.667 7.33301 -52.334 22 -71.001s39 -28 73 -28s58.5 9.16699 73.5 27.5s22.833 42.166 23.5 71.499v115zM361.999 526.002
c3.33301 -3.33301 5.16895 -6.83203 5.50195 -10.499s-1.83398 -7.16699 -6.50098 -10.5l-14 -12c-4.66699 -4 -8.5 -5.5 -11.5 -4.5s-6.5 3.16699 -10.5 6.5l-91 80c-5.33301 5.33301 -10.333 5.66602 -15 0.999023l-88 -81c-3.33301 -3.33301 -6.66602 -5.5 -9.99902 -6.5
s-7.33301 0.5 -12 4.5l-14 12c-4.66699 3.33301 -6.83398 6.83301 -6.50098 10.5s2.16602 7.16699 5.49902 10.5l96 117c3.33301 3.33301 6.5 6 9.5 8s7.16699 3 12.5 3h32c5.33301 0 9.5 -1 12.5 -3s6.16699 -4.66699 9.5 -8z" />
    <glyph glyph-name="otilde" unicode="&#xf5;" horiz-adv-x="448" 
d="M400 163c0 -54 -15.834 -95.667 -47.501 -125s-74.5 -44 -128.5 -44c-55.333 0 -98.5 14.5 -129.5 43.5s-46.5 70.5 -46.5 124.5v115c0 51.333 15 92.166 45 122.499s73.333 45.5 130 45.5s100.334 -14.667 131.001 -44s46 -70.666 46 -123.999v-114zM319.999 277
c0 28.667 -7.83301 52.1689 -23.5 70.502s-39.834 27.5 -72.501 27.5c-29.333 0 -52.666 -9 -69.999 -27s-26 -41.667 -26 -71v-115c0 -28.667 7.33301 -52.334 22 -71.001s39 -28 73 -28s58.5 9.16699 73.5 27.5s22.833 42.166 23.5 71.499v115zM361.999 572.002
c-10.667 -22.667 -23.1641 -38.833 -37.4971 -48.5s-27.833 -14.5 -40.5 -14.5c-10.667 0 -20.834 1.83301 -30.501 5.5s-18.834 7.66699 -27.501 12s-17.167 8.33301 -25.5 12s-16.833 5.5 -25.5 5.5c-5.33301 0 -11.5 -3.16699 -18.5 -9.5s-12.833 -13.5 -17.5 -21.5
c-4 -6.66699 -9.66699 -8 -17 -4l-27 16c-3.33301 1.33301 -4.66602 3.66602 -3.99902 6.99902s1.66699 6.33301 3 9c8.66699 16.667 19.667 31.334 33 44.001s28.333 19 45 19c10 0 19.833 -2 29.5 -6s19 -8.16699 28 -12.5l26.5 -12.5c8.66699 -4 16.667 -6 24 -6
s14 3.5 20 10.5s11.333 14.5 16 22.5c1.33301 2 2.66602 3.66699 3.99902 5s3.66602 1 6.99902 -1l32 -15c6 -2 7 -7.66699 3 -17z" />
    <glyph glyph-name="odieresis" unicode="&#xf6;" horiz-adv-x="448" 
d="M400 163c0 -54 -15.834 -95.667 -47.501 -125s-74.5 -44 -128.5 -44c-55.333 0 -98.5 14.5 -129.5 43.5s-46.5 70.5 -46.5 124.5v115c0 51.333 15 92.166 45 122.499s73.333 45.5 130 45.5s100.334 -14.667 131.001 -44s46 -70.666 46 -123.999v-114zM319.999 277
c0 28.667 -7.83301 52.1689 -23.5 70.502s-39.834 27.5 -72.501 27.5c-29.333 0 -52.666 -9 -69.999 -27s-26 -41.667 -26 -71v-115c0 -28.667 7.33301 -52.334 22 -71.001s39 -28 73 -28s58.5 9.16699 73.5 27.5s22.833 42.166 23.5 71.499v115zM352.999 545.002
c0 -13.333 -4.33398 -24.5 -13.001 -33.5s-19.667 -13.5 -33 -13.5s-24.666 4.5 -33.999 13.5s-14 20.167 -14 33.5s4.5 24.5 13.5 33.5s20.167 13.5 33.5 13.5s24.5 -4.5 33.5 -13.5s13.5 -20.167 13.5 -33.5zM190.998 545.002c0 -13.333 -4.5 -24.5 -13.5 -33.5
s-20.167 -13.5 -33.5 -13.5s-24.5 4.5 -33.5 13.5s-13.5 20.167 -13.5 33.5s4.5 24.5 13.5 33.5s20.167 13.5 33.5 13.5s24.5 -4.5 33.5 -13.5s13.5 -20.167 13.5 -33.5z" />
    <glyph glyph-name="divide" unicode="&#xf7;" horiz-adv-x="475" 
d="M435 217c0 -10 -5 -15 -15 -15h-365c-10 0 -15 4.66699 -15 14v32c0 10 5 15 15 15h365c10 0 15 -5 15 -15v-31zM280 58c0 -13.333 -4.33398 -24.5 -13.001 -33.5s-19.667 -13.5 -33 -13.5s-24.666 4.5 -33.999 13.5s-14 20.167 -14 33.5s4.5 24.5 13.5 33.5
s20.167 13.5 33.5 13.5s24.5 -4.5 33.5 -13.5s13.5 -20.167 13.5 -33.5zM280.999 394c0 -13.333 -4.5 -24.5 -13.5 -33.5s-20.167 -13.5 -33.5 -13.5s-24.5 4.5 -33.5 13.5s-13.5 20.167 -13.5 33.5s4.5 24.5 13.5 33.5s20.167 13.5 33.5 13.5s24.5 -4.5 33.5 -13.5
s13.5 -20.167 13.5 -33.5z" />
    <glyph glyph-name="oslash" unicode="&#xf8;" horiz-adv-x="448" 
d="M83 5c-1.33301 -2 -2.66602 -3.33398 -3.99902 -4.00098s-3.33301 0 -6 2l-24 18c-2.66699 2.66699 -2.66699 5.66699 0 9l22 29c2 2.66699 2 5.66699 0 9c-15.333 25.333 -23 56.666 -23 93.999v115c0 51.333 15.5 92.166 46.5 122.499s73.833 45.5 128.5 45.5
c44 0 81.667 -11 113 -33c1.33301 -0.666992 2.83301 -1.33398 4.5 -2.00098s3.5 0.333008 5.5 3l18 22c1.33301 1.33301 2.66602 2.33301 3.99902 3s3.33301 0 6 -2l23 -19c3.33301 -3.33301 4 -6.66602 2 -9.99902l-23 -28c-2 -2.66699 -2.83301 -4.5 -2.5 -5.5
s0.833008 -2.16699 1.5 -3.5c16.667 -26 25 -57 25 -93v-114c0 -54 -15.833 -95.667 -47.5 -125s-74.5 -44 -128.5 -44c-23.333 0 -44.666 2.83301 -63.999 8.5s-36.333 13.834 -51 24.501c-1.33301 0.666992 -2.83301 1.33398 -4.5 2.00098
s-3.83398 -0.666016 -6.50098 -3.99902zM320 276.999l0.000976562 10.499c0 3.66699 -0.666992 6.83398 -2 9.50098c-1.33301 3.33301 -3 4 -5 2l-154 -197c-3.33301 -5.33301 -3.33301 -10.666 0 -15.999c7.33301 -9.33301 16.5 -15.5 27.5 -18.5s23.167 -4.5 36.5 -4.5
c33.333 0 57.666 9.16699 72.999 27.5s23.333 42.166 24 71.499v115zM128.001 161.998l0.000976562 -7.99902c0 -2.66699 0.333008 -5.33398 1 -8.00098c0.666992 -2 1.5 -3.66699 2.5 -5s2.16699 -1 3.5 1l153 198c3.33301 4 4.16602 7 2.49902 9
s-2.83398 3.33301 -3.50098 4c-8.66699 6.66699 -18.167 12 -28.5 16s-21.833 6 -34.5 6c-29.333 0 -52.666 -9 -69.999 -27s-26 -41.667 -26 -71v-115z" />
    <glyph glyph-name="ugrave" unicode="&#xf9;" horiz-adv-x="459" 
d="M401 10c0 -6.66699 -3.33301 -10 -10 -10h-57c-6.66699 0 -10 3 -10 9v15c0 4.66699 -1.5 7.5 -4.5 8.5s-6.16699 -0.166992 -9.5 -3.5c-12.667 -11.333 -28.667 -20 -48 -26s-37.666 -9 -54.999 -9c-50 0 -89 15 -117 45s-42 70.667 -42 122v267c0 6.66699 3 10 9 10h62
c6 0 9 -3 9 -9v-268c0 -28 8 -51.333 24 -70s40 -28 72 -28c29.333 0 52.666 9.16699 69.999 27.5s26 41.833 26 70.5v267c0 6.66699 3 10 9 10h62c6.66699 0 10 -3 10 -9v-419zM118 601c-2.66699 2.66699 -4.33301 6.00098 -5 10.001s1.66602 8 6.99902 12l44 29
c4 2.66699 7.83301 2.66699 11.5 0s6.5 -5.66699 8.5 -9l76 -127c4.66699 -7.33301 3.33398 -13.333 -3.99902 -18l-19 -12c-3.33301 -2.66699 -7 -3.33398 -11 -2.00098s-7.33301 3.33301 -10 6z" />
    <glyph glyph-name="uacute" unicode="&#xfa;" horiz-adv-x="459" 
d="M401 10c0 -6.66699 -3.33301 -10 -10 -10h-57c-6.66699 0 -10 3 -10 9v15c0 4.66699 -1.5 7.5 -4.5 8.5s-6.16699 -0.166992 -9.5 -3.5c-12.667 -11.333 -28.667 -20 -48 -26s-37.666 -9 -54.999 -9c-50 0 -89 15 -117 45s-42 70.667 -42 122v267c0 6.66699 3 10 9 10h62
c6 0 9 -3 9 -9v-268c0 -28 8 -51.333 24 -70s40 -28 72 -28c29.333 0 52.666 9.16699 69.999 27.5s26 41.833 26 70.5v267c0 6.66699 3 10 9 10h62c6.66699 0 10 -3 10 -9v-419zM238 490c-2 -2.66699 -4.99902 -4.66797 -8.99902 -6.00098s-8 -0.666016 -12 2.00098l-19 12
c-6 4.66699 -7 10.667 -3 18l75 127c2 3.33301 4.5 6.5 7.5 9.5s7.16699 2.83301 12.5 -0.5l44 -29c5.33301 -4 7.66602 -8 6.99902 -12s-2 -7.33301 -4 -10z" />
    <glyph glyph-name="ucircumflex" unicode="&#xfb;" horiz-adv-x="459" 
d="M401 10c0 -6.66699 -3.33301 -10 -10 -10h-57c-6.66699 0 -10 3 -10 9v15c0 4.66699 -1.5 7.5 -4.5 8.5s-6.16699 -0.166992 -9.5 -3.5c-12.667 -11.333 -28.667 -20 -48 -26s-37.666 -9 -54.999 -9c-50 0 -89 15 -117 45s-42 70.667 -42 122v267c0 6.66699 3 10 9 10h62
c6 0 9 -3 9 -9v-268c0 -28 8 -51.333 24 -70s40 -28 72 -28c29.333 0 52.666 9.16699 69.999 27.5s26 41.833 26 70.5v267c0 6.66699 3 10 9 10h62c6.66699 0 10 -3 10 -9v-419zM357 526c3.33301 -3.33301 5.16895 -6.83203 5.50195 -10.499
s-1.83398 -7.16699 -6.50098 -10.5l-14 -12c-4.66699 -4 -8.5 -5.5 -11.5 -4.5s-6.5 3.16699 -10.5 6.5l-91 80c-5.33301 5.33301 -10.333 5.66602 -15 0.999023l-88 -81c-3.33301 -3.33301 -6.66602 -5.5 -9.99902 -6.5s-7.33301 0.5 -12 4.5l-14 12
c-4.66699 3.33301 -6.83398 6.83301 -6.50098 10.5s2.16602 7.16699 5.49902 10.5l96 117c3.33301 3.33301 6.5 6 9.5 8s7.16699 3 12.5 3h32c5.33301 0 9.5 -1 12.5 -3s6.16699 -4.66699 9.5 -8z" />
    <glyph glyph-name="udieresis" unicode="&#xfc;" horiz-adv-x="459" 
d="M401 10c0 -6.66699 -3.33301 -10 -10 -10h-57c-6.66699 0 -10 3 -10 9v15c0 4.66699 -1.5 7.5 -4.5 8.5s-6.16699 -0.166992 -9.5 -3.5c-12.667 -11.333 -28.667 -20 -48 -26s-37.666 -9 -54.999 -9c-50 0 -89 15 -117 45s-42 70.667 -42 122v267c0 6.66699 3 10 9 10h62
c6 0 9 -3 9 -9v-268c0 -28 8 -51.333 24 -70s40 -28 72 -28c29.333 0 52.666 9.16699 69.999 27.5s26 41.833 26 70.5v267c0 6.66699 3 10 9 10h62c6.66699 0 10 -3 10 -9v-419zM352 545c0 -13.333 -4.33398 -24.5 -13.001 -33.5s-19.667 -13.5 -33 -13.5
s-24.666 4.5 -33.999 13.5s-14 20.167 -14 33.5s4.5 24.5 13.5 33.5s20.167 13.5 33.5 13.5s24.5 -4.5 33.5 -13.5s13.5 -20.167 13.5 -33.5zM189.999 545c0 -13.333 -4.5 -24.5 -13.5 -33.5s-20.167 -13.5 -33.5 -13.5s-24.5 4.5 -33.5 13.5s-13.5 20.167 -13.5 33.5
s4.5 24.5 13.5 33.5s20.167 13.5 33.5 13.5s24.5 -4.5 33.5 -13.5s13.5 -20.167 13.5 -33.5z" />
    <glyph glyph-name="yacute" unicode="&#xfd;" horiz-adv-x="412" 
d="M187 87c1.33301 -5.33301 3.33301 -8.49707 6 -9.49707s5.33398 2.16699 8.00098 9.5l110 333c1.33301 4 3.5 8.16699 6.5 12.5s8.5 6.5 16.5 6.5h47c6.66699 0 10.834 -1.83301 12.501 -5.5s1.83398 -8.16699 0.500977 -13.5l-193 -582
c-1.33301 -4.66699 -4.5 -9.33398 -9.5 -14.001s-12.167 -7 -21.5 -7h-37c-14.667 0 -19.334 8.66699 -14.001 26l47 142c1.33301 3.33301 2.16602 6.66602 2.49902 9.99902s-2.16699 5 -7.5 5h-10c-12.667 0 -20.667 6.66699 -24 20l-110 401
c-1.33301 5.33301 -1.33301 9.66602 0 12.999s5 5 11 5h53c6.66699 0 11.667 -1.5 15 -4.5s5.66602 -6.5 6.99902 -10.5zM210 490.003c-2 -2.66699 -4.99902 -4.66797 -8.99902 -6.00098s-8 -0.666016 -12 2.00098l-19 12c-6 4.66699 -7 10.667 -3 18l75 127
c2 3.33301 4.5 6.5 7.5 9.5s7.16699 2.83301 12.5 -0.5l44 -29c5.33301 -4 7.66602 -8 6.99902 -12s-2 -7.33301 -4 -10z" />
    <glyph glyph-name="thorn" unicode="&#xfe;" horiz-adv-x="454" 
d="M408 161c0 -23.333 -3.99902 -45.1689 -11.999 -65.502s-19.167 -38.166 -33.5 -53.499s-31.333 -27.333 -51 -36s-41.167 -13 -64.5 -13c-26 0 -46.167 3.16699 -60.5 9.5s-25.833 13.5 -34.5 21.5c-5.33301 4.66699 -9.5 5.83398 -12.5 3.50098s-4.5 -5.5 -4.5 -9.5
v-189c0 -6.66699 -3 -10 -9 -10h-62c-6 0 -9 3 -9 9v800c0 6 3 9 9 9h55c6.66699 0 10 -3 10 -9v-220c0 -4 1.66699 -5.83301 5 -5.5s7 2.5 11 6.5c8.66699 7.33301 20.167 14.833 34.5 22.5s34.166 11.5 59.499 11.5c24 0 46.333 -3.66699 67 -11s38.5 -18 53.5 -32
s26.833 -31.167 35.5 -51.5s13 -43.5 13 -69.5v-118zM327.001 277.997c0 28 -9 51.165 -27 69.498s-41 27.5 -69 27.5s-51 -9.16699 -69 -27.5s-27 -41.166 -27 -68.499v-118c0 -27.333 8.83301 -50.666 26.5 -69.999s40.834 -29 69.501 -29
c29.333 0 52.666 9.5 69.999 28.5s26 42.5 26 70.5v117z" />
    <glyph glyph-name="ydieresis" unicode="&#xff;" horiz-adv-x="412" 
d="M187 87c1.33301 -5.33301 3.33301 -8.49707 6 -9.49707s5.33398 2.16699 8.00098 9.5l110 333c1.33301 4 3.5 8.16699 6.5 12.5s8.5 6.5 16.5 6.5h47c6.66699 0 10.834 -1.83301 12.501 -5.5s1.83398 -8.16699 0.500977 -13.5l-193 -582
c-1.33301 -4.66699 -4.5 -9.33398 -9.5 -14.001s-12.167 -7 -21.5 -7h-37c-14.667 0 -19.334 8.66699 -14.001 26l47 142c1.33301 3.33301 2.16602 6.66602 2.49902 9.99902s-2.16699 5 -7.5 5h-10c-12.667 0 -20.667 6.66699 -24 20l-110 401
c-1.33301 5.33301 -1.33301 9.66602 0 12.999s5 5 11 5h53c6.66699 0 11.667 -1.5 15 -4.5s5.66602 -6.5 6.99902 -10.5zM322 545.003c0 -13.333 -4.33398 -24.5 -13.001 -33.5s-19.667 -13.5 -33 -13.5s-24.666 4.5 -33.999 13.5s-14 20.167 -14 33.5s4.5 24.5 13.5 33.5
s20.167 13.5 33.5 13.5s24.5 -4.5 33.5 -13.5s13.5 -20.167 13.5 -33.5zM159.999 545.003c0 -13.333 -4.5 -24.5 -13.5 -33.5s-20.167 -13.5 -33.5 -13.5s-24.5 4.5 -33.5 13.5s-13.5 20.167 -13.5 33.5s4.5 24.5 13.5 33.5s20.167 13.5 33.5 13.5s24.5 -4.5 33.5 -13.5
s13.5 -20.167 13.5 -33.5z" />
    <glyph glyph-name="Amacron" unicode="&#x100;" horiz-adv-x="457" 
d="M366 0c-8.66699 0 -13.333 2.33496 -14 7.00195l-33 130c-1.33301 2.66699 -2.66602 4 -3.99902 4h-177c-2.66699 0 -4.16699 -0.333008 -4.5 -1s-0.833008 -1.33398 -1.5 -2.00098l-32 -131c-0.666992 -4.66699 -5 -7 -13 -7h-54c-5.33301 0 -9.16602 1 -11.499 3
s-2.83301 6 -1.5 12l148 590c0.666992 3.33301 2.16699 6.16602 4.5 8.49902s6.16602 3.5 11.499 3.5h85c8 0 13 -3.33301 15 -10l152 -590c1.33301 -3.33301 1.66602 -7 0.999023 -11s-4 -6 -10 -6h-61zM196.001 402.002l-44.998 -184
c-0.666992 -3.33301 -0.833984 -5.5 -0.500977 -6.5s2.16602 -1.5 5.49902 -1.5h138c3.33301 0 5.33301 0.5 6 1.5s0.666992 3.16699 0 6.5l-44 180l-28 126c-0.666992 2 -1.5 3 -2.5 3s-1.83301 -0.666992 -2.5 -2zM336.003 683.002c0 -6.66699 -3 -10 -9 -10h-213
c-6.66699 0 -10 3.33301 -10 10v41c0 6.66699 3 10 9 10h213c6.66699 0 10 -3 10 -9v-42z" />
    <glyph glyph-name="amacron" unicode="&#x101;" horiz-adv-x="438" 
d="M40 147c0 21.333 3.49902 41.3291 10.499 59.9961s17.333 34.834 31 48.501s30.5 24.5 50.5 32.5s43.333 12 70 12c29.333 0 55.666 -6.33301 78.999 -19c4.66699 -2.66699 8.83398 -3.5 12.501 -2.5s5.5 4.5 5.5 10.5v9c0 26.667 -6.83301 46.334 -20.5 59.001
s-36.5 19 -68.5 19c-6 0 -13.667 -0.666992 -23 -2s-18.833 -3 -28.5 -5s-19.167 -4.5 -28.5 -7.5s-17 -6.16699 -23 -9.5c-7.33301 -3.33301 -12.333 -1.33301 -15 6l-17 44c-2 6.66699 -0.333008 11 5 13c18 9.33301 39.667 16.666 65 21.999s50 8 74 8
c30.667 0 56.334 -3.66699 77.001 -11s37.167 -18 49.5 -32s21 -30.833 26 -50.5s7.5 -41.5 7.5 -65.5v-276c0 -6.66699 -3 -10 -9 -10h-55c-6 0 -9 2.66699 -9 8v18c0 4.66699 -1.33301 7.33398 -4 8.00098s-5.66699 -0.666016 -9 -3.99902
c-13.333 -13.333 -28.5 -22.666 -45.5 -27.999s-35.167 -8 -54.5 -8c-50 0 -88 14 -114 42s-39 65 -39 111zM114.999 148.996c0 -24.667 7.33105 -45.5 21.998 -62.5s37.334 -25.5 68.001 -25.5c27.333 0 49 8.33301 65 25s24 37.667 24 63
c0 24.667 -7.16699 45.5 -21.5 62.5s-37.166 25.5 -68.499 25.5c-27.333 0 -49 -8.33301 -65 -25s-24 -37.667 -24 -63zM338.997 524.996c0 -6.66699 -3 -10 -9 -10h-213c-6.66699 0 -10 3.33301 -10 10v41c0 6.66699 3 10 9 10h213c6.66699 0 10 -3 10 -9v-42z" />
    <glyph glyph-name="Abreve" unicode="&#x102;" horiz-adv-x="457" 
d="M366 0c-8.66699 0 -13.333 2.33496 -14 7.00195l-33 130c-1.33301 2.66699 -2.66602 4 -3.99902 4h-177c-2.66699 0 -4.16699 -0.333008 -4.5 -1s-0.833008 -1.33398 -1.5 -2.00098l-32 -131c-0.666992 -4.66699 -5 -7 -13 -7h-54c-5.33301 0 -9.16602 1 -11.499 3
s-2.83301 6 -1.5 12l148 590c0.666992 3.33301 2.16699 6.16602 4.5 8.49902s6.16602 3.5 11.499 3.5h85c8 0 13 -3.33301 15 -10l152 -590c1.33301 -3.33301 1.66602 -7 0.999023 -11s-4 -6 -10 -6h-61zM196.001 402.002l-44.998 -184
c-0.666992 -3.33301 -0.833984 -5.5 -0.500977 -6.5s2.16602 -1.5 5.49902 -1.5h138c3.33301 0 5.33301 0.5 6 1.5s0.666992 3.16699 0 6.5l-44 180l-28 126c-0.666992 2 -1.5 3 -2.5 3s-1.83301 -0.666992 -2.5 -2zM104.003 767.002c0 3.33301 0.671875 6 2.00488 8
s4.66602 3 9.99902 3h21c5.33301 0 8.66602 -1 9.99902 -3s2.66602 -5.33301 3.99902 -10c6 -19.333 14.167 -34 24.5 -44s25.166 -15 44.499 -15c36 0 59 19.667 69 59c1.33301 4.66699 2.5 8 3.5 10s4.5 3 10.5 3h21c5.33301 0 8.66602 -1 9.99902 -3s2 -4.66699 2 -8
c-0.666992 -16.667 -4 -32.5 -10 -47.5s-14 -28 -24 -39s-22 -19.667 -36 -26s-29.667 -9.5 -47 -9.5c-16 0 -30.833 3.16699 -44.5 9.5s-25.667 15 -36 26s-18.5 24 -24.5 39s-9.33301 30.833 -10 47.5z" />
    <glyph glyph-name="abreve" unicode="&#x103;" horiz-adv-x="438" 
d="M40 147c0 21.333 3.49902 41.3291 10.499 59.9961s17.333 34.834 31 48.501s30.5 24.5 50.5 32.5s43.333 12 70 12c29.333 0 55.666 -6.33301 78.999 -19c4.66699 -2.66699 8.83398 -3.5 12.501 -2.5s5.5 4.5 5.5 10.5v9c0 26.667 -6.83301 46.334 -20.5 59.001
s-36.5 19 -68.5 19c-6 0 -13.667 -0.666992 -23 -2s-18.833 -3 -28.5 -5s-19.167 -4.5 -28.5 -7.5s-17 -6.16699 -23 -9.5c-7.33301 -3.33301 -12.333 -1.33301 -15 6l-17 44c-2 6.66699 -0.333008 11 5 13c18 9.33301 39.667 16.666 65 21.999s50 8 74 8
c30.667 0 56.334 -3.66699 77.001 -11s37.167 -18 49.5 -32s21 -30.833 26 -50.5s7.5 -41.5 7.5 -65.5v-276c0 -6.66699 -3 -10 -9 -10h-55c-6 0 -9 2.66699 -9 8v18c0 4.66699 -1.33301 7.33398 -4 8.00098s-5.66699 -0.666016 -9 -3.99902
c-13.333 -13.333 -28.5 -22.666 -45.5 -27.999s-35.167 -8 -54.5 -8c-50 0 -88 14 -114 42s-39 65 -39 111zM114.999 148.996c0 -24.667 7.33105 -45.5 21.998 -62.5s37.334 -25.5 68.001 -25.5c27.333 0 49 8.33301 65 25s24 37.667 24 63
c0 24.667 -7.16699 45.5 -21.5 62.5s-37.166 25.5 -68.499 25.5c-27.333 0 -49 -8.33301 -65 -25s-24 -37.667 -24 -63zM108.997 613.996c0 3.33301 0.671875 6 2.00488 8s4.66602 3 9.99902 3h21c5.33301 0 8.66602 -1 9.99902 -3s2.66602 -5.33301 3.99902 -10
c6 -19.333 14.167 -34 24.5 -44s25.166 -15 44.499 -15c36 0 59 19.667 69 59c1.33301 4.66699 2.5 8 3.5 10s4.5 3 10.5 3h21c5.33301 0 8.66602 -1 9.99902 -3s2 -4.66699 2 -8c-0.666992 -16.667 -4 -32.5 -10 -47.5s-14 -28 -24 -39s-22 -19.667 -36 -26
s-29.667 -9.5 -47 -9.5c-16 0 -30.833 3.16699 -44.5 9.5s-25.667 15 -36 26s-18.5 24 -24.5 39s-9.33301 30.833 -10 47.5z" />
    <glyph glyph-name="Aogonek" unicode="&#x104;" horiz-adv-x="457" 
d="M351 12l-32 125c-1.33301 2.66699 -2.66602 4 -3.99902 4h-177c-2.66699 0 -4.16699 -0.333008 -4.5 -1s-0.833008 -1.33398 -1.5 -2.00098l-32 -131c-0.666992 -4.66699 -5 -7 -13 -7h-54c-5.33301 0 -9.16602 1 -11.499 3s-2.83301 6 -1.5 12l148 590
c0.666992 3.33301 2.16699 6.16602 4.5 8.49902s6.16602 3.5 11.499 3.5h85c8 0 13 -3.33301 15 -10l152 -590c1.33301 -3.33301 1.66602 -7 0.999023 -11s-4 -6 -10 -6h-36c-13.333 -14.667 -24.166 -31.667 -32.499 -51s-12.5 -37.666 -12.5 -54.999
c0 -8.66699 2.16699 -16 6.5 -22s13.166 -9 26.499 -9c9.33301 0 19.166 2.5 29.499 7.5l30.5 15.5c4 2 7 1.66699 9 -1l16 -22c1.33301 -1.33301 2 -2.66602 2 -3.99902c0 -2 -1 -4 -3 -6c-10 -9.33301 -24.167 -18.333 -42.5 -27s-36.833 -13 -55.5 -13
c-30 0 -50.667 7 -62 21s-17 31.333 -17 52c0 10 1.66699 20.833 5 32.5s8 23.167 14 34.5s12.833 22 20.5 32s15.834 18.667 24.501 26zM196 402l-44.998 -184c-0.666992 -3.33301 -0.833984 -5.5 -0.500977 -6.5s2.16602 -1.5 5.49902 -1.5h138
c3.33301 0 5.33301 0.5 6 1.5s0.666992 3.16699 0 6.5l-44 180l-28 126c-0.666992 2 -1.5 3 -2.5 3s-1.83301 -0.666992 -2.5 -2z" />
    <glyph glyph-name="aogonek" unicode="&#x105;" horiz-adv-x="438" 
d="M306 15l-0.000976562 10.9941c0 4.66699 -1.33301 7.33398 -4 8.00098s-5.66699 -0.666016 -9 -3.99902c-13.333 -13.333 -28.5 -22.666 -45.5 -27.999s-35.167 -8 -54.5 -8c-50 0 -88 14 -114 42s-39 65 -39 111c0 21.333 3.5 41.333 10.5 60s17.333 34.834 31 48.501
s30.5 24.5 50.5 32.5s43.333 12 70 12c29.333 0 55.666 -6.33301 78.999 -19c4.66699 -2.66699 8.83398 -3.5 12.501 -2.5s5.5 4.5 5.5 10.5v9c0 26.667 -6.83301 46.334 -20.5 59.001s-36.5 19 -68.5 19c-6 0 -13.667 -0.666992 -23 -2s-18.833 -3 -28.5 -5
s-19.167 -4.5 -28.5 -7.5s-17 -6.16699 -23 -9.5c-7.33301 -3.33301 -12.333 -1.33301 -15 6l-17 44c-2 6.66699 -0.333008 11 5 13c18 9.33301 39.667 16.666 65 21.999s50 8 74 8c30.667 0 56.334 -3.66699 77.001 -11s37.167 -18 49.5 -32s21 -30.833 26 -50.5
s7.5 -41.5 7.5 -65.5v-276c0 -6.66699 -3 -10 -9 -10h-28c-13.333 -14.667 -24.166 -31.667 -32.499 -51s-12.5 -37.666 -12.5 -54.999c0 -8.66699 2.16699 -16 6.5 -22s13.166 -9 26.499 -9c9.33301 0 19.166 2.5 29.499 7.5l30.5 15.5c4 2 7 1.66699 9 -1l16 -22
c1.33301 -1.33301 2 -2.66602 2 -3.99902c0 -2 -1 -4 -3 -6c-10 -9.33301 -24.167 -18.333 -42.5 -27s-36.833 -13 -55.5 -13c-30 0 -50.667 7 -62 21s-17 31.333 -17 52c0 10 1.66699 20.833 5 32.5s8 23.167 14 34.5s12.833 22 20.5 32s15.834 18.667 24.501 26z
M114.999 148.994c0 -24.667 7.33105 -45.5 21.998 -62.5s37.334 -25.5 68.001 -25.5c27.333 0 49 8.33301 65 25s24 37.667 24 63c0 24.667 -7.16699 45.5 -21.5 62.5s-37.166 25.5 -68.499 25.5c-27.333 0 -49 -8.33301 -65 -25s-24 -37.667 -24 -63z" />
    <glyph glyph-name="Cacute" unicode="&#x106;" horiz-adv-x="430" 
d="M410 551c3.33301 -4 5.00195 -7.49805 5.00195 -10.498s-2.66699 -6.83301 -8 -11.5l-38 -32c-2.66699 -2.66699 -6.16699 -3.5 -10.5 -2.5s-7.83301 3.16699 -10.5 6.5c-12 15.333 -27.667 27.666 -47 36.999s-39.333 14 -60 14c-32 0 -56.5 -9 -73.5 -27
s-25.5 -41.333 -25.5 -70v-291c0 -28 9.33301 -51.167 28 -69.5s44 -27.5 76 -27.5c20.667 0 40 5.16699 58 15.5s32.667 21.166 44 32.499c3.33301 4 6.66602 7.16699 9.99902 9.5s7.66602 1.5 12.999 -2.5l40 -33c2 -1.33301 3.16699 -3.66602 3.5 -6.99902
s-0.166992 -6.33301 -1.5 -9c-20 -26 -44.667 -45.667 -74 -59s-60.333 -20 -93 -20c-26.667 0 -51.5 3.66699 -74.5 11s-42.833 18.166 -59.5 32.499s-29.834 32 -39.501 53s-14.5 45.167 -14.5 72.5v292c0 26 4.5 49.5 13.5 70.5s21.5 38.833 37.5 53.5s35.167 26 57.5 34
s46.833 12 73.5 12c30.667 0 60.334 -5 89.001 -15s55.667 -29.667 81 -59zM229.002 646.002c-3.33301 -1.33301 -7 -1.83594 -11 -1.50293s-7.33301 2.16602 -10 5.49902l-13 18c-5.33301 6.66699 -4.33301 12.667 3 18l116 92c3.33301 2.66699 7 4.33398 11 5.00098
s7.66699 -0.666016 11 -3.99902l30 -44c4 -5.33301 5 -9.66602 3 -12.999s-4.66699 -5.66602 -8 -6.99902z" />
    <glyph glyph-name="cacute" unicode="&#x107;" horiz-adv-x="402" 
d="M375 368c2.66699 -3.33301 3.66699 -7.16406 3 -11.4971s-3 -7.83301 -7 -10.5l-35 -27c-8.66699 -6 -16.334 -4 -23.001 6c-11.333 16.667 -25.166 29.167 -41.499 37.5s-33.833 12.5 -52.5 12.5c-28.667 0 -51.5 -8.83301 -68.5 -26.5s-25.5 -40.5 -25.5 -68.5v-124
c0 -27.333 8.83301 -49.5 26.5 -66.5s41.167 -25.5 70.5 -25.5c26 0 46.667 5.66699 62 17s29 24.666 41 39.999c3.33301 4 8.33301 3.66699 15 -1l33 -24c6.66699 -4 10.334 -7.83301 11.001 -11.5s-0.333008 -7.16699 -3 -10.5c-20 -30 -43.833 -50.833 -71.5 -62.5
s-56.5 -17.5 -86.5 -17.5c-54 0 -97.167 14.667 -129.5 44s-48.5 69.666 -48.5 120.999v115c0 26.667 4.5 50.667 13.5 72s21.333 39.166 37 53.499s34.167 25.333 55.5 33s44.666 11.5 69.999 11.5c64.667 -0.666992 116 -26 154 -76zM212 490.002
c-2 -2.66699 -4.99902 -4.66797 -8.99902 -6.00098s-8 -0.666016 -12 2.00098l-19 12c-6 4.66699 -7 10.667 -3 18l75 127c2 3.33301 4.5 6.5 7.5 9.5s7.16699 2.83301 12.5 -0.5l44 -29c5.33301 -4 7.66602 -8 6.99902 -12s-2 -7.33301 -4 -10z" />
    <glyph glyph-name="Ccircumflex" unicode="&#x108;" horiz-adv-x="430" 
d="M410 551c3.33301 -4 5.00195 -7.49805 5.00195 -10.498s-2.66699 -6.83301 -8 -11.5l-38 -32c-2.66699 -2.66699 -6.16699 -3.5 -10.5 -2.5s-7.83301 3.16699 -10.5 6.5c-12 15.333 -27.667 27.666 -47 36.999s-39.333 14 -60 14c-32 0 -56.5 -9 -73.5 -27
s-25.5 -41.333 -25.5 -70v-291c0 -28 9.33301 -51.167 28 -69.5s44 -27.5 76 -27.5c20.667 0 40 5.16699 58 15.5s32.667 21.166 44 32.499c3.33301 4 6.66602 7.16699 9.99902 9.5s7.66602 1.5 12.999 -2.5l40 -33c2 -1.33301 3.16699 -3.66602 3.5 -6.99902
s-0.166992 -6.33301 -1.5 -9c-20 -26 -44.667 -45.667 -74 -59s-60.333 -20 -93 -20c-26.667 0 -51.5 3.66699 -74.5 11s-42.833 18.166 -59.5 32.499s-29.834 32 -39.501 53s-14.5 45.167 -14.5 72.5v292c0 26 4.5 49.5 13.5 70.5s21.5 38.833 37.5 53.5s35.167 26 57.5 34
s46.833 12 73.5 12c30.667 0 60.334 -5 89.001 -15s55.667 -29.667 81 -59zM212.002 774.002c3.33301 3.33301 6.49902 5.66602 9.49902 6.99902s7.16699 2 12.5 2h32c5.33301 0 9.5 -0.666992 12.5 -2s6.16699 -3.66602 9.5 -6.99902l96 -99c7.33301 -6 7 -11.667 -1 -17
l-14 -10c-4.66699 -3.33301 -8.66699 -4.66602 -12 -3.99902s-6.66602 2.33398 -9.99902 5.00098l-88 61c-4.66699 4.66699 -9.66699 4.66699 -15 0l-91 -61c-4 -2.66699 -7.5 -4.33398 -10.5 -5.00098s-6.83301 0.666016 -11.5 3.99902l-14 10
c-8 5.33301 -8.33301 11 -1 17z" />
    <glyph glyph-name="ccircumflex" unicode="&#x109;" horiz-adv-x="402" 
d="M375 368c2.66699 -3.33301 3.66699 -7.16406 3 -11.4971s-3 -7.83301 -7 -10.5l-35 -27c-8.66699 -6 -16.334 -4 -23.001 6c-11.333 16.667 -25.166 29.167 -41.499 37.5s-33.833 12.5 -52.5 12.5c-28.667 0 -51.5 -8.83301 -68.5 -26.5s-25.5 -40.5 -25.5 -68.5v-124
c0 -27.333 8.83301 -49.5 26.5 -66.5s41.167 -25.5 70.5 -25.5c26 0 46.667 5.66699 62 17s29 24.666 41 39.999c3.33301 4 8.33301 3.66699 15 -1l33 -24c6.66699 -4 10.334 -7.83301 11.001 -11.5s-0.333008 -7.16699 -3 -10.5c-20 -30 -43.833 -50.833 -71.5 -62.5
s-56.5 -17.5 -86.5 -17.5c-54 0 -97.167 14.667 -129.5 44s-48.5 69.666 -48.5 120.999v115c0 26.667 4.5 50.667 13.5 72s21.333 39.166 37 53.499s34.167 25.333 55.5 33s44.666 11.5 69.999 11.5c64.667 -0.666992 116 -26 154 -76zM354 526.002
c3.33301 -3.33301 5.16895 -6.83203 5.50195 -10.499s-1.83398 -7.16699 -6.50098 -10.5l-14 -12c-4.66699 -4 -8.5 -5.5 -11.5 -4.5s-6.5 3.16699 -10.5 6.5l-91 80c-5.33301 5.33301 -10.333 5.66602 -15 0.999023l-88 -81c-3.33301 -3.33301 -6.66602 -5.5 -9.99902 -6.5
s-7.33301 0.5 -12 4.5l-14 12c-4.66699 3.33301 -6.83398 6.83301 -6.50098 10.5s2.16602 7.16699 5.49902 10.5l96 117c3.33301 3.33301 6.5 6 9.5 8s7.16699 3 12.5 3h32c5.33301 0 9.5 -1 12.5 -3s6.16699 -4.66699 9.5 -8z" />
    <glyph glyph-name="Cdotaccent" unicode="&#x10a;" horiz-adv-x="430" 
d="M410 551c3.33301 -4 5.00195 -7.49805 5.00195 -10.498s-2.66699 -6.83301 -8 -11.5l-38 -32c-2.66699 -2.66699 -6.16699 -3.5 -10.5 -2.5s-7.83301 3.16699 -10.5 6.5c-12 15.333 -27.667 27.666 -47 36.999s-39.333 14 -60 14c-32 0 -56.5 -9 -73.5 -27
s-25.5 -41.333 -25.5 -70v-291c0 -28 9.33301 -51.167 28 -69.5s44 -27.5 76 -27.5c20.667 0 40 5.16699 58 15.5s32.667 21.166 44 32.499c3.33301 4 6.66602 7.16699 9.99902 9.5s7.66602 1.5 12.999 -2.5l40 -33c2 -1.33301 3.16699 -3.66602 3.5 -6.99902
s-0.166992 -6.33301 -1.5 -9c-20 -26 -44.667 -45.667 -74 -59s-60.333 -20 -93 -20c-26.667 0 -51.5 3.66699 -74.5 11s-42.833 18.166 -59.5 32.499s-29.834 32 -39.501 53s-14.5 45.167 -14.5 72.5v292c0 26 4.5 49.5 13.5 70.5s21.5 38.833 37.5 53.5s35.167 26 57.5 34
s46.833 12 73.5 12c30.667 0 60.334 -5 89.001 -15s55.667 -29.667 81 -59zM278.002 723.002c0 -13.333 -4.50098 -24.5 -13.501 -33.5s-19.833 -13.5 -32.5 -13.5c-13.333 0 -24.666 4.33301 -33.999 13s-14 19.667 -14 33s4.5 24.5 13.5 33.5s20.167 13.5 33.5 13.5
s24.5 -4.5 33.5 -13.5s13.5 -19.833 13.5 -32.5z" />
    <glyph glyph-name="cdotaccent" unicode="&#x10b;" horiz-adv-x="402" 
d="M375 368c2.66699 -3.33301 3.66699 -7.16406 3 -11.4971s-3 -7.83301 -7 -10.5l-35 -27c-8.66699 -6 -16.334 -4 -23.001 6c-11.333 16.667 -25.166 29.167 -41.499 37.5s-33.833 12.5 -52.5 12.5c-28.667 0 -51.5 -8.83301 -68.5 -26.5s-25.5 -40.5 -25.5 -68.5v-124
c0 -27.333 8.83301 -49.5 26.5 -66.5s41.167 -25.5 70.5 -25.5c26 0 46.667 5.66699 62 17s29 24.666 41 39.999c3.33301 4 8.33301 3.66699 15 -1l33 -24c6.66699 -4 10.334 -7.83301 11.001 -11.5s-0.333008 -7.16699 -3 -10.5c-20 -30 -43.833 -50.833 -71.5 -62.5
s-56.5 -17.5 -86.5 -17.5c-54 0 -97.167 14.667 -129.5 44s-48.5 69.666 -48.5 120.999v115c0 26.667 4.5 50.667 13.5 72s21.333 39.166 37 53.499s34.167 25.333 55.5 33s44.666 11.5 69.999 11.5c64.667 -0.666992 116 -26 154 -76zM272 553.002
c0 -13.333 -4.50098 -24.5 -13.501 -33.5s-19.833 -13.5 -32.5 -13.5c-13.333 0 -24.666 4.33301 -33.999 13s-14 19.667 -14 33s4.5 24.5 13.5 33.5s20.167 13.5 33.5 13.5s24.5 -4.5 33.5 -13.5s13.5 -19.833 13.5 -32.5z" />
    <glyph glyph-name="Ccaron" unicode="&#x10c;" horiz-adv-x="430" 
d="M410 551c3.33301 -4 5.00195 -7.49805 5.00195 -10.498s-2.66699 -6.83301 -8 -11.5l-38 -32c-2.66699 -2.66699 -6.16699 -3.5 -10.5 -2.5s-7.83301 3.16699 -10.5 6.5c-12 15.333 -27.667 27.666 -47 36.999s-39.333 14 -60 14c-32 0 -56.5 -9 -73.5 -27
s-25.5 -41.333 -25.5 -70v-291c0 -28 9.33301 -51.167 28 -69.5s44 -27.5 76 -27.5c20.667 0 40 5.16699 58 15.5s32.667 21.166 44 32.499c3.33301 4 6.66602 7.16699 9.99902 9.5s7.66602 1.5 12.999 -2.5l40 -33c2 -1.33301 3.16699 -3.66602 3.5 -6.99902
s-0.166992 -6.33301 -1.5 -9c-20 -26 -44.667 -45.667 -74 -59s-60.333 -20 -93 -20c-26.667 0 -51.5 3.66699 -74.5 11s-42.833 18.166 -59.5 32.499s-29.834 32 -39.501 53s-14.5 45.167 -14.5 72.5v292c0 26 4.5 49.5 13.5 70.5s21.5 38.833 37.5 53.5s35.167 26 57.5 34
s46.833 12 73.5 12c30.667 0 60.334 -5 89.001 -15s55.667 -29.667 81 -59zM108.002 752.002c-7.33301 6 -6.99902 11.667 1.00098 17l14 10c4.66699 3.33301 8.5 4.66602 11.5 3.99902s6.5 -2.33398 10.5 -5.00098l91 -61c5.33301 -4.66699 10.333 -4.66699 15 0l88 61
c3.33301 2.66699 6.66602 4.33398 9.99902 5.00098s7.33301 -0.666016 12 -3.99902l14 -10c8 -5.33301 8.33301 -11 1 -17l-96 -99c-3.33301 -3.33301 -6.5 -5.66602 -9.5 -6.99902s-7.16699 -2 -12.5 -2h-32c-5.33301 0 -9.5 0.666992 -12.5 2
s-6.16699 3.66602 -9.5 6.99902z" />
    <glyph glyph-name="ccaron" unicode="&#x10d;" horiz-adv-x="402" 
d="M375 368c2.66699 -3.33301 3.66699 -7.16406 3 -11.4971s-3 -7.83301 -7 -10.5l-35 -27c-8.66699 -6 -16.334 -4 -23.001 6c-11.333 16.667 -25.166 29.167 -41.499 37.5s-33.833 12.5 -52.5 12.5c-28.667 0 -51.5 -8.83301 -68.5 -26.5s-25.5 -40.5 -25.5 -68.5v-124
c0 -27.333 8.83301 -49.5 26.5 -66.5s41.167 -25.5 70.5 -25.5c26 0 46.667 5.66699 62 17s29 24.666 41 39.999c3.33301 4 8.33301 3.66699 15 -1l33 -24c6.66699 -4 10.334 -7.83301 11.001 -11.5s-0.333008 -7.16699 -3 -10.5c-20 -30 -43.833 -50.833 -71.5 -62.5
s-56.5 -17.5 -86.5 -17.5c-54 0 -97.167 14.667 -129.5 44s-48.5 69.666 -48.5 120.999v115c0 26.667 4.5 50.667 13.5 72s21.333 39.166 37 53.499s34.167 25.333 55.5 33s44.666 11.5 69.999 11.5c64.667 -0.666992 116 -26 154 -76zM265 494.002
c-3.33301 -3.33301 -6.50293 -5.99902 -9.50293 -7.99902s-7.16699 -3 -12.5 -3h-32c-5.33301 0 -9.5 1 -12.5 3s-6.16699 4.66699 -9.5 8l-96 117c-3.33301 3.33301 -5.16602 6.83301 -5.49902 10.5s1.83398 7.16699 6.50098 10.5l14 12c4.66699 4 8.66699 5.5 12 4.5
s6.66602 -3.16699 9.99902 -6.5l88 -81c4.66699 -4.66699 9.66699 -4.33398 15 0.999023l91 80c4 3.33301 7.5 5.5 10.5 6.5s6.83301 -0.5 11.5 -4.5l14 -12c4.66699 -3.33301 6.83398 -6.83301 6.50098 -10.5s-2.16602 -7.16699 -5.49902 -10.5z" />
    <glyph glyph-name="Dcaron" unicode="&#x10e;" horiz-adv-x="492" 
d="M437 186c0 -62 -16.167 -108.501 -48.5 -139.501s-77.833 -46.5 -136.5 -46.5h-179c-8 0 -12 3.66699 -12 11v595c0 7.33301 4 11 12 11h179c60 0 105.833 -15.667 137.5 -47s47.5 -75.666 47.5 -132.999v-251zM353 445.999c0 34.667 -9.83203 59.833 -29.499 75.5
s-45.167 23.5 -76.5 23.5h-93c-6 0 -9 -2.66699 -9 -8v-455c0 -6 2.66699 -9 8 -9h101c33.333 0 58.166 8.83301 74.499 26.5s24.5 42.167 24.5 73.5v273zM84.001 751.998c-7.33301 6 -6.99902 11.667 1.00098 17l14 10c4.66699 3.33301 8.5 4.66602 11.5 3.99902
s6.5 -2.33398 10.5 -5.00098l91 -61c5.33301 -4.66699 10.333 -4.66699 15 0l88 61c3.33301 2.66699 6.66602 4.33398 9.99902 5.00098s7.33301 -0.666016 12 -3.99902l14 -10c8 -5.33301 8.33301 -11 1 -17l-96 -99c-3.33301 -3.33301 -6.5 -5.66602 -9.5 -6.99902
s-7.16699 -2 -12.5 -2h-32c-5.33301 0 -9.5 0.666992 -12.5 2s-6.16699 3.66602 -9.5 6.99902z" />
    <glyph glyph-name="dcaron" unicode="&#x10f;" horiz-adv-x="562" 
d="M516 458c-3.33301 -8 -8.33203 -12 -14.999 -12h-27c-4.66699 0 -7.83398 1.83301 -9.50098 5.5s-2.16699 7.5 -1.5 11.5l10 157c1.33301 10.667 6.33301 16 15 16h62c12.667 0 17 -6.66699 13 -20zM399.001 9c0 -6 -3.00098 -9.00098 -9.00098 -9.00098h-54
c-6.66699 0 -10 3.33301 -10 10v14c0 4 -1.83301 6.66699 -5.5 8s-7.5 0.333008 -11.5 -3c-8.66699 -7.33301 -22 -14.833 -40 -22.5s-39 -11.5 -63 -11.5c-48.667 0 -87.5 14 -116.5 42s-43.5 69 -43.5 123v116c0 22.667 3.66699 44.167 11 64.5s18 38 32 53
s30.833 27 50.5 36s41.834 13.5 66.501 13.5c26.667 0 47.667 -3.66699 63 -11s26.333 -13.666 33 -18.999c5.33301 -4 9.33301 -5 12 -3s4 5.33301 4 10v207c0 6.66699 3.33301 10 10 10h61c6.66699 0 10 -3 10 -9v-619zM319 275.999c0 27.333 -7.66895 50.5 -23.002 69.5
s-39.666 28.5 -72.999 28.5c-34.667 0 -59.5 -9.5 -74.5 -28.5s-22.5 -42.167 -22.5 -69.5v-116c0 -28 7.83301 -51.167 23.5 -69.5s38.834 -27.5 69.501 -27.5c28 0 51.5 9.33301 70.5 28s28.5 41.667 28.5 69z" />
    <glyph glyph-name="Dcroat" unicode="&#x110;" horiz-adv-x="486" 
d="M61 606c0 7.33301 4 10.999 12 10.999h172c60 0 105.833 -15.667 137.5 -47s47.5 -75.666 47.5 -132.999v-251c0 -62 -16.167 -108.5 -48.5 -139.5s-77.833 -46.5 -136.5 -46.5h-172c-8 0 -12 3.66699 -12 11v265c0 6 -2.66699 9 -8 9h-32c-8 0 -12 4 -12 12v36
c0 8 3.66699 12 11 12h33c5.33301 0 8 3 8 9v252zM144 81.999c0 -6 2.66504 -9.00098 7.99805 -9.00098h95c32.667 0 57.334 8.83301 74.001 26.5s25 42.167 25 73.5v273c0 34.667 -9.83301 59.834 -29.5 75.501s-45.167 23.5 -76.5 23.5h-87c-6 0 -9 -2.66699 -9 -8v-182
c0 -4.66699 0.833008 -7.5 2.5 -8.5s3.83398 -1.5 6.50098 -1.5h70c8 0 12 -3.66699 12 -11v-37c0 -8 -3.66699 -12 -11 -12h-72c-5.33301 0 -8 -3 -8 -9v-194z" />
    <glyph glyph-name="dcroat" unicode="&#x111;" horiz-adv-x="451" 
d="M307 538c3.33301 0 5.99805 0.667969 7.99805 2.00098s3 4.66602 3 9.99902v57c0 6.66699 3.33301 10 10 10h61c6.66699 0 10 -3 10 -9v-59c0 -7.33301 3.33301 -11 10 -11h32c6 0 9 -3.33301 9 -10v-36c0 -6.66699 -3.33301 -10 -10 -10h-31c-4.66699 0 -7.5 -1 -8.5 -3
s-1.5 -4.66699 -1.5 -8v-462c0 -6 -3 -9 -9 -9h-54c-6.66699 -0 -10 3.33301 -10 10v14c0 4 -1.83301 6.66699 -5.5 8s-7.5 0.333008 -11.5 -3c-8.66699 -7.33301 -20.5 -14.833 -35.5 -22.5s-34.5 -11.5 -58.5 -11.5s-46.333 4 -67 12s-38.5 19.167 -53.5 33.5
s-26.833 31.666 -35.5 51.999s-13 42.833 -13 67.5v116c0 22.667 4 44.167 12 64.5s19.333 38 34 53s32.334 27 53.001 36s43.334 13.5 68.001 13.5c26.667 0 46.5 -3.66699 59.5 -11s22.833 -13.666 29.5 -18.999c5.33301 -4 9.33301 -5 12 -3s4 5.33301 4 10v51
c0 4.66699 -0.5 7.66699 -1.5 9s-3.83301 2 -8.5 2h-72c-6 0 -9 3.33301 -9 10v37c0 6 3.33301 9 10 9h70zM318.998 276.001c0 27.333 -8.83203 50.5 -26.499 69.5s-40.834 28.5 -69.501 28.5c-29.333 0 -52.833 -9.5 -70.5 -28.5s-26.5 -42.167 -26.5 -69.5v-116
c0 -28 9.16699 -51.167 27.5 -69.5s41.5 -27.5 69.5 -27.5s50.833 9.33301 68.5 28s26.5 41.667 26.5 69z" />
    <glyph glyph-name="Emacron" unicode="&#x112;" horiz-adv-x="440" 
d="M410 12c0 -8 -4 -12 -12 -12h-326c-8 0 -12 3.66699 -12 11v595c0 7.33301 4 11 12 11h322c8.66699 0 13 -3.66699 13 -11v-49c0 -8 -4 -12 -12 -12h-243c-5.33301 0 -8 -2.66699 -8 -8v-171c0 -5.33301 2.33301 -8 7 -8h201c8 0 12 -4 12 -12v-50
c0 -7.33301 -3.66699 -11 -11 -11h-201c-5.33301 0 -8 -3 -8 -9v-194c0 -6 2.33301 -9 7 -9h247c8 0 12 -3.66699 12 -11v-50zM340 683c0 -6.66699 -3 -10 -9 -10h-213c-6.66699 0 -10 3.33301 -10 10v41c0 6.66699 3 10 9 10h213c6.66699 0 10 -3 10 -9v-42z" />
    <glyph glyph-name="emacron" unicode="&#x113;" horiz-adv-x="438" 
d="M399 225c0 -7.33301 -2.16699 -13.1699 -6.5 -17.5029s-8.83301 -6.5 -13.5 -6.5h-234c-5.33301 0 -9.66602 -1.66699 -12.999 -5s-5 -7.66602 -5 -12.999v-19c0 -13.333 1.66699 -26.166 5 -38.499s8.83301 -23 16.5 -32s17.667 -16.167 30 -21.5s27.166 -8 44.499 -8
c20 0 38.167 4.66699 54.5 14s30.166 21.666 41.499 36.999c5.33301 7.33301 12 8.33301 20 3l35 -24c8 -5.33301 10.667 -10.666 8 -15.999c-16 -29.333 -38 -50.666 -66 -63.999s-58.333 -20 -91 -20c-54 0 -97.167 14.833 -129.5 44.5s-48.5 69.5 -48.5 119.5v114
c0 25.333 4.33301 48.666 13 69.999s20.834 39.666 36.501 54.999s34.167 27.166 55.5 35.499s45 12.5 71 12.5c26.667 0 50.834 -4.16699 72.501 -12.5s40.167 -20.166 55.5 -35.499s27.166 -33.666 35.499 -54.999s12.5 -44.666 12.5 -69.999v-47zM223 375.996
c-28 0 -50.667 -8.99902 -68 -26.999s-26 -39.667 -26 -65v-7c0 -2.66699 1 -5.33398 3 -8.00098s6 -4 12 -4h164c6.66699 0 10 3.66699 10 11v9c0 25.333 -8 46.833 -24 64.5s-39.667 26.5 -71 26.5zM340 524.997c0 -6.66699 -3 -10 -9 -10h-213
c-6.66699 0 -10 3.33301 -10 10v41c0 6.66699 3 10 9 10h213c6.66699 0 10 -3 10 -9v-42z" />
    <glyph glyph-name="Ebreve" unicode="&#x114;" horiz-adv-x="440" 
d="M410 12c0 -8 -4 -12 -12 -12h-326c-8 0 -12 3.66699 -12 11v595c0 7.33301 4 11 12 11h322c8.66699 0 13 -3.66699 13 -11v-49c0 -8 -4 -12 -12 -12h-243c-5.33301 0 -8 -2.66699 -8 -8v-171c0 -5.33301 2.33301 -8 7 -8h201c8 0 12 -4 12 -12v-50
c0 -7.33301 -3.66699 -11 -11 -11h-201c-5.33301 0 -8 -3 -8 -9v-194c0 -6 2.33301 -9 7 -9h247c8 0 12 -3.66699 12 -11v-50zM118 767c0 3.33301 0.671875 6 2.00488 8s4.66602 3 9.99902 3h21c5.33301 0 8.66602 -1 9.99902 -3s2.66602 -5.33301 3.99902 -10
c6 -19.333 14.167 -34 24.5 -44s25.166 -15 44.499 -15c36 0 59 19.667 69 59c1.33301 4.66699 2.5 8 3.5 10s4.5 3 10.5 3h21c5.33301 0 8.66602 -1 9.99902 -3s2 -4.66699 2 -8c-0.666992 -16.667 -4 -32.5 -10 -47.5s-14 -28 -24 -39s-22 -19.667 -36 -26
s-29.667 -9.5 -47 -9.5c-16 0 -30.833 3.16699 -44.5 9.5s-25.667 15 -36 26s-18.5 24 -24.5 39s-9.33301 30.833 -10 47.5z" />
    <glyph glyph-name="ebreve" unicode="&#x115;" horiz-adv-x="438" 
d="M399 225c0 -7.33301 -2.16699 -13.1699 -6.5 -17.5029s-8.83301 -6.5 -13.5 -6.5h-234c-5.33301 0 -9.66602 -1.66699 -12.999 -5s-5 -7.66602 -5 -12.999v-19c0 -13.333 1.66699 -26.166 5 -38.499s8.83301 -23 16.5 -32s17.667 -16.167 30 -21.5s27.166 -8 44.499 -8
c20 0 38.167 4.66699 54.5 14s30.166 21.666 41.499 36.999c5.33301 7.33301 12 8.33301 20 3l35 -24c8 -5.33301 10.667 -10.666 8 -15.999c-16 -29.333 -38 -50.666 -66 -63.999s-58.333 -20 -91 -20c-54 0 -97.167 14.833 -129.5 44.5s-48.5 69.5 -48.5 119.5v114
c0 25.333 4.33301 48.666 13 69.999s20.834 39.666 36.501 54.999s34.167 27.166 55.5 35.499s45 12.5 71 12.5c26.667 0 50.834 -4.16699 72.501 -12.5s40.167 -20.166 55.5 -35.499s27.166 -33.666 35.499 -54.999s12.5 -44.666 12.5 -69.999v-47zM223 375.996
c-28 0 -50.667 -8.99902 -68 -26.999s-26 -39.667 -26 -65v-7c0 -2.66699 1 -5.33398 3 -8.00098s6 -4 12 -4h164c6.66699 0 10 3.66699 10 11v9c0 25.333 -8 46.833 -24 64.5s-39.667 26.5 -71 26.5zM114 613.997c0 3.33301 0.671875 6 2.00488 8s4.66602 3 9.99902 3h21
c5.33301 0 8.66602 -1 9.99902 -3s2.66602 -5.33301 3.99902 -10c6 -19.333 14.167 -34 24.5 -44s25.166 -15 44.499 -15c36 0 59 19.667 69 59c1.33301 4.66699 2.5 8 3.5 10s4.5 3 10.5 3h21c5.33301 0 8.66602 -1 9.99902 -3s2 -4.66699 2 -8
c-0.666992 -16.667 -4 -32.5 -10 -47.5s-14 -28 -24 -39s-22 -19.667 -36 -26s-29.667 -9.5 -47 -9.5c-16 0 -30.833 3.16699 -44.5 9.5s-25.667 15 -36 26s-18.5 24 -24.5 39s-9.33301 30.833 -10 47.5z" />
    <glyph glyph-name="Edotaccent" unicode="&#x116;" horiz-adv-x="440" 
d="M410 12c0 -8 -4 -12 -12 -12h-326c-8 0 -12 3.66699 -12 11v595c0 7.33301 4 11 12 11h322c8.66699 0 13 -3.66699 13 -11v-49c0 -8 -4 -12 -12 -12h-243c-5.33301 0 -8 -2.66699 -8 -8v-171c0 -5.33301 2.33301 -8 7 -8h201c8 0 12 -4 12 -12v-50
c0 -7.33301 -3.66699 -11 -11 -11h-201c-5.33301 0 -8 -3 -8 -9v-194c0 -6 2.33301 -9 7 -9h247c8 0 12 -3.66699 12 -11v-50zM279 703c0 -13.333 -4.50098 -24.5 -13.501 -33.5s-19.833 -13.5 -32.5 -13.5c-13.333 0 -24.666 4.33301 -33.999 13s-14 19.667 -14 33
s4.5 24.5 13.5 33.5s20.167 13.5 33.5 13.5s24.5 -4.5 33.5 -13.5s13.5 -19.833 13.5 -32.5z" />
    <glyph glyph-name="edotaccent" unicode="&#x117;" horiz-adv-x="438" 
d="M399 225c0 -7.33301 -2.16699 -13.1699 -6.5 -17.5029s-8.83301 -6.5 -13.5 -6.5h-234c-5.33301 0 -9.66602 -1.66699 -12.999 -5s-5 -7.66602 -5 -12.999v-19c0 -13.333 1.66699 -26.166 5 -38.499s8.83301 -23 16.5 -32s17.667 -16.167 30 -21.5s27.166 -8 44.499 -8
c20 0 38.167 4.66699 54.5 14s30.166 21.666 41.499 36.999c5.33301 7.33301 12 8.33301 20 3l35 -24c8 -5.33301 10.667 -10.666 8 -15.999c-16 -29.333 -38 -50.666 -66 -63.999s-58.333 -20 -91 -20c-54 0 -97.167 14.833 -129.5 44.5s-48.5 69.5 -48.5 119.5v114
c0 25.333 4.33301 48.666 13 69.999s20.834 39.666 36.501 54.999s34.167 27.166 55.5 35.499s45 12.5 71 12.5c26.667 0 50.834 -4.16699 72.501 -12.5s40.167 -20.166 55.5 -35.499s27.166 -33.666 35.499 -54.999s12.5 -44.666 12.5 -69.999v-47zM223 375.996
c-28 0 -50.667 -8.99902 -68 -26.999s-26 -39.667 -26 -65v-7c0 -2.66699 1 -5.33398 3 -8.00098s6 -4 12 -4h164c6.66699 0 10 3.66699 10 11v9c0 25.333 -8 46.833 -24 64.5s-39.667 26.5 -71 26.5zM272 552.997c0 -13.333 -4.50098 -24.5 -13.501 -33.5
s-19.833 -13.5 -32.5 -13.5c-13.333 0 -24.666 4.33301 -33.999 13s-14 19.667 -14 33s4.5 24.5 13.5 33.5s20.167 13.5 33.5 13.5s24.5 -4.5 33.5 -13.5s13.5 -19.833 13.5 -32.5z" />
    <glyph glyph-name="Eogonek" unicode="&#x118;" horiz-adv-x="440" 
d="M410 12c0 -8 -3.99902 -12.001 -11.999 -12.001h-31c-13.333 -14.667 -24.166 -31.667 -32.499 -51s-12.5 -37.666 -12.5 -54.999c0 -8.66699 2.16699 -16 6.5 -22s13.166 -9 26.499 -9c9.33301 0 19.166 2.5 29.499 7.5l30.5 15.5c4 2 7 1.66699 9 -1l16 -22
c1.33301 -1.33301 2 -2.66602 2 -3.99902c0 -2 -1 -4 -3 -6c-10 -9.33301 -24.167 -18.333 -42.5 -27s-36.833 -13 -55.5 -13c-30 0 -50.667 7 -62 21s-17 31.333 -17 52c0 18 5 37.667 15 59s22.333 39.666 37 54.999h-242c-8 0 -12 3.66699 -12 11v595
c0 7.33301 4 11 12 11h322c8.66699 0 13 -3.66699 13 -11v-49c0 -8 -4 -12 -12 -12h-243c-5.33301 0 -8 -2.66699 -8 -8v-171c0 -5.33301 2.33301 -8 7 -8h201c8 0 12 -4 12 -12v-50c0 -7.33301 -3.66699 -11 -11 -11h-201c-5.33301 0 -8 -3 -8 -9v-194
c0 -6 2.33301 -9 7 -9h247c8 0 12 -3.66699 12 -11v-50v0z" />
    <glyph glyph-name="eogonek" unicode="&#x119;" horiz-adv-x="438" 
d="M399 225c0 -7.33301 -2.16504 -13.1699 -6.49805 -17.5029s-8.83301 -6.5 -13.5 -6.5h-234c-5.33301 0 -9.66602 -1.66699 -12.999 -5s-5 -7.66602 -5 -12.999v-19c0 -13.333 1.66699 -26.166 5 -38.499s8.83301 -23 16.5 -32s17.667 -16.167 30 -21.5
s27.166 -8 44.499 -8c20 0 38.167 4.66699 54.5 14s30.166 21.666 41.499 36.999c5.33301 7.33301 12 8.33301 20 3l35 -24c8 -5.33301 10.667 -10.666 8 -15.999c-15.333 -27.333 -36.333 -48 -63 -62c-12.667 -14.667 -23.167 -31.5 -31.5 -50.5
s-12.5 -37.167 -12.5 -54.5c0 -8.66699 2.16699 -16 6.5 -22s13.166 -9 26.499 -9c9.33301 0 19.166 2.5 29.499 7.5l30.5 15.5c4 2 7 1.66699 9 -1l16 -22c1.33301 -1.33301 2 -2.66602 2 -3.99902c0 -2 -1 -4 -3 -6c-10 -9.33301 -24.167 -18.333 -42.5 -27
s-36.833 -13 -55.5 -13c-30 0 -50.667 7 -62 21s-17 31.333 -17 52c0 14 3.16699 29.333 9.5 46s14.5 32 24.5 46c-4 -0.666992 -8 -1 -12 -1h-12c-54 0 -97.167 14.833 -129.5 44.5s-48.5 69.5 -48.5 119.5v114c0 25.333 4.33301 48.666 13 69.999
s20.834 39.666 36.501 54.999s34.167 27.166 55.5 35.499s45 12.5 71 12.5c26.667 0 50.834 -4.16699 72.501 -12.5s40.167 -20.166 55.5 -35.499s27.166 -33.666 35.499 -54.999s12.5 -44.666 12.5 -69.999v-47zM223.002 375.996c-28 0 -50.667 -8.99902 -68 -26.999
s-26 -39.667 -26 -65v-7c0 -2.66699 1 -5.33398 3 -8.00098s6 -4 12 -4h164c6.66699 0 10 3.66699 10 11v9c0 25.333 -8 46.833 -24 64.5s-39.667 26.5 -71 26.5z" />
    </font>
</defs>
</svg>
